<svg width="24" height="25" viewBox="0 0 24 25" fill="none" xmlns="http://www.w3.org/2000/svg">
<rect y="0.5" width="24" height="24" rx="4" fill="#F1F4F7"/>
<path fill-rule="evenodd" clip-rule="evenodd" d="M14.533 6.7253C14.8334 6.4249 15.3204 6.4249 15.6209 6.7253L17.7747 8.87915C18.0751 9.17955 18.0751 9.6666 17.7747 9.96701C17.4743 10.2674 16.9872 10.2674 16.6868 9.96701L15.8462 9.12632V17.7308C15.8462 18.1556 15.5018 18.5 15.0769 18.5C14.6521 18.5 14.3077 18.1556 14.3077 17.7308V9.12632L13.467 9.96701C13.1666 10.2674 12.6796 10.2674 12.3791 9.96701C12.0787 9.6666 12.0787 9.17955 12.3791 8.87915L14.533 6.7253ZM8.37915 11.6484C8.67955 11.348 9.1666 11.348 9.46701 11.6484L11.6209 13.8022C11.9213 14.1026 11.9213 14.5897 11.6209 14.8901C11.3204 15.1905 10.8334 15.1905 10.533 14.8901L9.69231 14.0494V17.7308C9.69231 18.1556 9.34791 18.5 8.92308 18.5C8.49824 18.5 8.15385 18.1556 8.15385 17.7308V14.0494L7.31316 14.8901C7.01276 15.1905 6.52571 15.1905 6.2253 14.8901C5.9249 14.5897 5.9249 14.1026 6.2253 13.8022L8.37915 11.6484Z" fill="black"/>
</svg>
