<svg width="24" height="25" viewBox="0 0 24 25" fill="none" xmlns="http://www.w3.org/2000/svg">
<rect y="0.5" width="24" height="24" rx="4" fill="#F1F4F7"/>
<path d="M7.11562 13.4219L11.3508 17.3758C11.5266 17.5398 11.7586 17.6312 12 17.6312C12.2414 17.6312 12.4734 17.5398 12.6492 17.3758L16.8844 13.4219C17.5969 12.7586 18 11.8281 18 10.8554V10.7195C18 9.08123 16.8164 7.68435 15.2016 7.41482C14.1328 7.2367 13.0453 7.58592 12.2812 8.34998L12 8.63123L11.7188 8.34998C10.9547 7.58592 9.86719 7.2367 8.79844 7.41482C7.18359 7.68435 6 9.08123 6 10.7195V10.8554C6 11.8281 6.40312 12.7586 7.11562 13.4219Z" fill="black"/>
</svg>
