<svg width="24" height="25" viewBox="0 0 24 25" fill="none" xmlns="http://www.w3.org/2000/svg">
<rect y="0.5" width="24" height="24" rx="4" fill="#F1F4F7"/>
<path fill-rule="evenodd" clip-rule="evenodd" d="M12 6.5C15.3137 6.5 18 9.18629 18 12.5C18 15.8137 15.3137 18.5 12 18.5C8.68629 18.5 6 15.8137 6 12.5C6 9.18629 8.68629 6.5 12 6.5ZM16.3466 14.973C15.486 16.4824 13.8618 17.5 12 17.5V12.7053L16.3466 14.973ZM16.7528 14.0571L12 11.5773V7.5C14.7614 7.5 17 9.73858 17 12.5C17 13.0436 16.9132 13.567 16.7528 14.0571Z" fill="black"/>
</svg>
