<svg width="131" height="18" viewBox="0 0 131 18" fill="none" xmlns="http://www.w3.org/2000/svg">
<path d="M43.3427 14.1245C44.8966 14.1245 46.4679 13.2424 47.2976 11.7772L45.9381 10.895C45.4437 11.7772 44.5998 12.413 43.3403 12.413C41.9635 12.413 40.7103 11.39 40.7103 9.48332C40.7103 7.4712 41.9635 6.55367 43.3403 6.55367C44.3637 6.55367 45.1942 6.97703 45.9381 7.85915L47.1386 6.78345C46.7207 6.18753 46.1663 5.70026 45.5215 5.36239C44.8767 5.02452 44.1604 4.84586 43.4324 4.84136C41.1369 4.84136 38.8769 6.55367 38.8769 9.48411C38.8769 12.4146 41.0834 14.1245 43.3427 14.1245Z" fill="black"/>
<path d="M36.3161 3.41234C36.591 3.41421 36.8603 3.33431 37.0897 3.1828C37.3191 3.03129 37.4982 2.81501 37.6044 2.56146C37.7105 2.30791 37.7388 2.02855 37.6856 1.75889C37.6325 1.48922 37.5004 1.24144 37.306 1.04704C37.1117 0.852645 36.8639 0.720411 36.5941 0.667154C36.3244 0.613896 36.0449 0.642022 35.7912 0.747953C35.5375 0.853884 35.321 1.03284 35.1693 1.26206C35.0176 1.49128 34.9375 1.76042 34.9393 2.03526C34.937 2.21665 34.9711 2.39665 35.0395 2.56467C35.1079 2.7327 35.2092 2.88535 35.3375 3.01366C35.4658 3.14197 35.6185 3.24334 35.7865 3.3118C35.9546 3.38027 36.1346 3.41445 36.3161 3.41234Z" fill="black"/>
<path d="M37.1639 5.12386H35.4163V13.9128H37.1639V5.12386Z" fill="black"/>
<path d="M33.0854 0.5H31.1788V13.9128H33.0854V0.5Z" fill="black"/>
<path d="M25.2118 4.84136C23.8877 4.84136 22.9163 5.3922 22.3692 6.27117V0.5H20.4272V13.9128H22.3692V12.8009C22.9202 13.6303 23.8877 14.1245 25.2118 14.1245C27.7537 14.1245 29.5194 12.1659 29.5194 9.48175C29.5194 6.94083 27.6482 4.84136 25.2118 4.84136ZM25.0543 12.3248C23.306 12.3248 22.1236 11.1445 22.1236 9.48333C22.1236 7.85915 23.3044 6.64181 25.0543 6.64181C26.6287 6.64181 27.7552 7.77102 27.7552 9.48333C27.7537 11.1421 26.624 12.3248 25.0528 12.3248H25.0543Z" fill="black"/>
<path d="M14.0697 14.0364C15.0057 14.0364 15.7819 13.6303 16.3652 12.8009V13.9128H18.1836V5.12386H16.3132V10.2065C16.3132 11.4947 15.5363 12.3248 14.2665 12.3248C13.1896 12.3248 12.6071 11.3892 12.6071 10.2065V5.12386H10.6989V10.5071C10.6989 12.5538 11.9702 14.0364 14.0697 14.0364Z" fill="black"/>
<path d="M4.8909 4.84136C3.61957 4.84136 2.64894 5.3922 1.85387 6.27117V5.12386H0V17.0542H1.85387V12.8049C2.64894 13.6343 3.61957 14.1284 4.8909 14.1284C7.41546 14.1284 9.23391 12.0282 9.23391 9.48569C9.23391 6.78345 7.41546 4.84136 4.8909 4.84136ZM4.64372 12.3248C2.8426 12.3248 1.7657 11.1445 1.7657 9.48332C1.7657 7.85915 2.8426 6.6418 4.64372 6.6418C6.35589 6.6418 7.41546 7.85915 7.41546 9.48332C7.41546 11.1421 6.3551 12.3248 4.64372 12.3248Z" fill="black"/>
<path d="M126.091 14.0968C123.409 14.0968 121.608 12.1523 121.608 9.50551C121.608 6.82274 123.499 4.89618 126.037 4.89618C128.576 4.89618 130.197 7.00279 130.197 9.32545C130.197 9.39748 130.197 9.50551 130.197 9.57753H122.418C122.472 11.7742 123.877 13.3946 126.109 13.3946C127.532 13.3946 128.684 12.5844 129.386 11.324L129.962 11.7381C129.134 13.1966 127.766 14.0968 126.091 14.0968ZM126.019 5.58038C123.859 5.58038 122.598 7.23685 122.436 8.92934H129.422C129.224 7.20084 127.964 5.58038 126.019 5.58038Z" fill="black"/>
<path d="M115.131 17.4998C113.907 17.4998 112.647 17.1397 111.674 16.3475L112.07 15.6993C112.971 16.4015 114.069 16.7796 115.149 16.7796C117.382 16.7796 118.606 15.1051 118.606 12.8545V11.7742C117.94 13.1966 116.554 13.9708 114.969 13.9708C112.376 13.9708 110.504 12.0262 110.504 9.43349C110.504 6.84074 112.376 4.89618 114.969 4.89618C116.608 4.89618 117.976 5.72442 118.624 7.12882V5.04022H119.399V12.8545C119.399 15.5552 117.814 17.4998 115.131 17.4998ZM114.987 13.2506C117.148 13.2506 118.642 11.6121 118.642 9.39748C118.642 7.23685 117.148 5.61639 114.987 5.61639C112.827 5.61639 111.314 7.23685 111.314 9.43349C111.314 11.6121 112.809 13.2506 114.987 13.2506Z" fill="black"/>
<path d="M106.134 13.9528V5.04022H106.836V6.82273C107.268 5.6704 108.114 4.89618 109.195 4.89618C109.393 4.89618 109.609 4.91419 109.789 4.98621L109.681 5.6704C109.519 5.6524 109.375 5.63439 109.213 5.63439C107.88 5.63439 106.926 6.96678 106.926 8.7853V13.9528H106.134Z" fill="black"/>
<path d="M99.8474 14.0968C97.1646 14.0968 95.3641 12.1523 95.3641 9.50551C95.3641 6.82274 97.2547 4.89618 99.7934 4.89618C102.332 4.89618 103.953 7.00279 103.953 9.32545C103.953 9.39748 103.953 9.50551 103.953 9.57753H96.1743C96.2284 11.7742 97.6328 13.3946 99.8654 13.3946C101.288 13.3946 102.44 12.5844 103.142 11.324L103.719 11.7381C102.89 13.1966 101.522 14.0968 99.8474 14.0968ZM99.7754 5.58038C97.6148 5.58038 96.3544 7.23685 96.1923 8.92934H103.178C102.98 7.20084 101.72 5.58038 99.7754 5.58038Z" fill="black"/>
<path d="M92.5368 2.62759C92.0507 2.62759 91.6906 2.24948 91.6906 1.78135C91.6906 1.29521 92.0507 0.935104 92.5368 0.935104C93.005 0.935104 93.3831 1.29521 93.3831 1.78135C93.3831 2.24948 93.005 2.62759 92.5368 2.62759ZM92.1407 13.9528V5.04029H92.951V13.9528H92.1407Z" fill="black"/>
<path d="M86.2879 14.0968C83.8752 14.0968 81.8946 12.2243 81.8946 9.50551C81.8946 6.78673 83.9112 4.89618 86.2519 4.89618C87.8363 4.89618 89.1327 5.72442 89.8529 6.98478L89.2588 7.3989C88.6286 6.30058 87.5843 5.59838 86.2519 5.59838C84.3253 5.59838 82.7049 7.14683 82.7049 9.4875C82.7049 11.8282 84.3073 13.3946 86.3059 13.3946C87.7823 13.3946 88.8987 12.5664 89.4748 11.288L90.069 11.6301C89.3848 13.1426 88.0164 14.0968 86.2879 14.0968Z" fill="black"/>
<path d="M72.8475 13.9528V5.04022H73.5677V6.60667C74.1439 5.52636 75.2422 4.89618 76.5926 4.89618C78.5552 4.89618 79.7795 6.3546 79.7795 8.22714V13.9528H78.9873V8.33517C78.9873 6.80473 78.033 5.58038 76.4125 5.58038C74.7561 5.58038 73.6397 6.75071 73.6397 8.35318V13.9528H72.8475Z" fill="black"/>
<path d="M66.1391 14.0968C63.5463 14.0968 61.6558 12.0983 61.6558 9.50551C61.6558 6.91276 63.5643 4.89618 66.1391 4.89618C68.7318 4.89618 70.6043 6.89476 70.6043 9.50551C70.6043 12.1163 68.7318 14.0968 66.1391 14.0968ZM66.1391 13.3946C68.2997 13.3946 69.8121 11.7381 69.8121 9.4875C69.8121 7.25486 68.2817 5.59838 66.1391 5.59838C63.9784 5.59838 62.466 7.25486 62.466 9.4875C62.466 11.7201 63.9604 13.3946 66.1391 13.3946Z" fill="black"/>
<path d="M56.7559 14.0968C54.3433 14.0968 52.3627 12.2243 52.3627 9.50551C52.3627 6.78673 54.3793 4.89618 56.7199 4.89618C58.3044 4.89618 59.6008 5.72442 60.321 6.98478L59.7268 7.3989C59.0966 6.30058 58.0523 5.59838 56.7199 5.59838C54.7934 5.59838 53.1729 7.14683 53.1729 9.4875C53.1729 11.8282 54.7754 13.3946 56.774 13.3946C58.2504 13.3946 59.3667 12.5664 59.9429 11.288L60.537 11.6301C59.8528 13.1426 58.4844 14.0968 56.7559 14.0968Z" fill="black"/>
</svg>
