<svg width="32" height="32" viewBox="0 0 32 32" fill="none" xmlns="http://www.w3.org/2000/svg">
<path d="M0 2C0 0.895431 0.895431 0 2 0H30C31.1046 0 32 0.895431 32 2V30C32 31.1046 31.1046 32 30 32H2C0.895431 32 0 31.1046 0 30V2Z" fill="white" fill-opacity="0.08"/>
<path d="M8.44424 11.8404C8.22463 11.7778 8 11.9387 8 12.1671V15.3275C8 15.4711 8.09185 15.5992 8.22923 15.641C10.3532 16.2877 12.4633 16.1223 14.587 15.806C14.7496 15.7818 14.8696 15.6418 14.8696 15.4773V12.2856C14.8696 12.0812 14.6873 11.9251 14.4851 11.9549C12.4674 12.2523 10.4617 12.4153 8.44424 11.8404Z" fill="#95F001"/>
<path d="M24 20.2124C24 20.4402 23.776 20.6009 23.5567 20.5393C18.4409 19.1012 13.3108 22.3371 8.22779 20.7502C8.09164 20.7077 8 20.58 8 20.4373V19.8352C8 19.605 8.22838 19.444 8.44903 19.5095C13.5306 21.018 18.6581 17.7223 23.7706 19.2898C23.9076 19.3318 24 19.4599 24 19.6032V20.2124Z" fill="#95F001"/>
<path d="M24 17.6585C24 17.8863 23.776 18.047 23.5566 17.9856C18.4358 16.5508 13.2275 19.851 8.22242 18.1987C8.08898 18.1547 8 18.0283 8 17.8877V17.2703C8 17.0432 8.22258 16.8826 8.44145 16.9429C13.5255 18.3436 18.6556 15.164 23.7707 16.7358C23.9076 16.7779 24 16.906 24 17.0493V17.6585Z" fill="#95F001"/>
<path d="M24 15.1027C24 15.331 23.7752 15.4919 23.5556 15.4295C21.1705 14.7516 18.773 15.1076 16.3881 15.5034C16.1849 15.5371 16 15.3805 16 15.1746V14.538C16 14.375 16.1178 14.2359 16.2785 14.2092C18.772 13.7943 21.2796 13.4062 23.7729 14.1817C23.9092 14.2241 24 14.3516 24 14.4944V15.1027Z" fill="#95F001"/>
<path d="M24 12.5665C24 12.7948 23.7752 12.9557 23.5556 12.8933C21.1705 12.2154 18.773 12.5715 16.3881 12.9672C16.1849 13.001 16 12.8444 16 12.6384V12.0018C16 11.8389 16.1178 11.6998 16.2785 11.673C18.772 11.2581 21.2796 10.87 23.7729 11.6455C23.9092 11.6879 24 11.8154 24 11.9582V12.5665Z" fill="#95F001"/>
</svg>
