<svg width="33" height="32" viewBox="0 0 33 32" fill="none" xmlns="http://www.w3.org/2000/svg">
<path d="M0.333496 2C0.333496 0.895431 1.22893 0 2.3335 0H30.3335C31.4381 0 32.3335 0.895431 32.3335 2V30C32.3335 31.1046 31.4381 32 30.3335 32H2.3335C1.22893 32 0.333496 31.1046 0.333496 30V2Z" fill="white" fill-opacity="0.08"/>
<path d="M12.9585 14.05V12.3C12.9585 10.3671 14.5253 8.80005 16.4585 8.80005C18.3917 8.80005 19.9585 10.3671 19.9585 12.3V14.05H20.8335C21.7987 14.05 22.5835 14.8348 22.5835 15.8V21.05C22.5835 22.0153 21.7987 22.8 20.8335 22.8H12.0835C11.1169 22.8 10.3335 22.0153 10.3335 21.05V15.8C10.3335 14.8348 11.1169 14.05 12.0835 14.05H12.9585ZM14.271 14.05H18.646V12.3C18.646 11.092 17.6671 10.1125 16.4585 10.1125C15.2499 10.1125 14.271 11.092 14.271 12.3V14.05ZM11.646 21.05C11.646 21.2907 11.8418 21.4875 12.0835 21.4875H20.8335C21.0741 21.4875 21.271 21.2907 21.271 21.05V15.8C21.271 15.5594 21.0741 15.3625 20.8335 15.3625H12.0835C11.8418 15.3625 11.646 15.5594 11.646 15.8V21.05Z" fill="#95F001"/>
</svg>
