<svg width="33" height="32" viewBox="0 0 33 32" fill="none" xmlns="http://www.w3.org/2000/svg">
<path d="M0.666748 2C0.666748 0.895431 1.56218 0 2.66675 0H30.6667C31.7713 0 32.6667 0.895431 32.6667 2V30C32.6667 31.1046 31.7713 32 30.6667 32H2.66675C1.56218 32 0.666748 31.1046 0.666748 30V2Z" fill="white" fill-opacity="0.08"/>
<path d="M18.9011 10.6625C18.7605 10.7156 18.6667 10.85 18.6667 11C18.6667 11.15 18.7605 11.2844 18.9011 11.3375L20.6667 12L21.3292 13.7656C21.3824 13.9062 21.5167 14 21.6667 14C21.8167 14 21.9511 13.9062 22.0042 13.7656L22.6667 12L24.4324 11.3375C24.573 11.2844 24.6667 11.15 24.6667 11C24.6667 10.85 24.573 10.7156 24.4324 10.6625L22.6667 10L22.0042 8.23438C21.9511 8.09375 21.8167 8 21.6667 8C21.5167 8 21.3824 8.09375 21.3292 8.23438L20.6667 10L18.9011 10.6625ZM15.0761 10.2906C14.9949 10.1125 14.8167 10 14.623 10C14.4292 10 14.2511 10.1125 14.1699 10.2906L12.5199 13.8531L8.95737 15.5C8.77925 15.5813 8.66675 15.7594 8.66675 15.9563C8.66675 16.1531 8.77925 16.3281 8.95737 16.4094L12.523 18.0562L14.1667 21.6187C14.248 21.7969 14.4261 21.9094 14.6199 21.9094C14.8136 21.9094 14.9917 21.7969 15.073 21.6187L16.7199 18.0531L20.2855 16.4062C20.4636 16.325 20.5761 16.1469 20.5761 15.9531C20.5761 15.7594 20.4636 15.5813 20.2855 15.5L16.723 13.8562L15.0761 10.2906ZM20.6667 20L18.9011 20.6625C18.7605 20.7156 18.6667 20.85 18.6667 21C18.6667 21.15 18.7605 21.2844 18.9011 21.3375L20.6667 22L21.3292 23.7656C21.3824 23.9062 21.5167 24 21.6667 24C21.8167 24 21.9511 23.9062 22.0042 23.7656L22.6667 22L24.4324 21.3375C24.573 21.2844 24.6667 21.15 24.6667 21C24.6667 20.85 24.573 20.7156 24.4324 20.6625L22.6667 20L22.0042 18.2344C21.9511 18.0938 21.8167 18 21.6667 18C21.5167 18 21.3824 18.0938 21.3292 18.2344L20.6667 20Z" fill="#95F001"/>
</svg>
