<svg width="32" height="32" viewBox="0 0 32 32" fill="none" xmlns="http://www.w3.org/2000/svg">
<path d="M0 4C0 1.79086 1.79086 0 4 0H28C30.2091 0 32 1.79086 32 4V28C32 30.2091 30.2091 32 28 32H4C1.79086 32 0 30.2091 0 28V4Z" fill="white" fill-opacity="0.08"/>
<path d="M11.8803 8.91211H17.3916" stroke="white" stroke-width="2" stroke-linejoin="round"/>
<path d="M13.435 13.2793H18.9463" stroke="white" stroke-width="2" stroke-linejoin="round"/>
<path d="M14.9877 17.6484H20.499" stroke="white" stroke-width="2" stroke-linejoin="round"/>
<path d="M6.81147 10.1554C6.25919 10.1554 5.96146 10.5773 6.14648 11.0977C6.33151 11.618 6.92921 12.0399 7.48149 12.0399L6.81147 10.1554ZM12.6578 11.0977L12.3228 10.1554H6.81147L7.14648 11.0977L7.48149 12.0399H12.9928L12.6578 11.0977Z" fill="white"/>
<path d="M21.7587 10.1554C22.311 10.1554 22.9087 10.5773 23.0938 11.0977C23.2788 11.618 22.981 12.0399 22.4288 12.0399L21.7587 10.1554ZM18.1679 11.0977L17.8329 10.1554H21.7587L22.0938 11.0977L22.4288 12.0399H18.5029L18.1679 11.0977Z" fill="white"/>
<path d="M8.36421 14.5226C7.81192 14.5226 7.5142 14.9445 7.69922 15.4648C7.88424 15.9852 8.48194 16.4071 9.03423 16.4071L8.36421 14.5226ZM14.2105 15.4648L13.8755 14.5226H8.36421L8.69922 15.4648L9.03423 16.4071H14.5455L14.2105 15.4648Z" fill="white"/>
<path d="M9.9189 18.8918C9.36661 18.8918 9.06889 19.3136 9.25391 19.834C9.43893 20.3544 10.0366 20.7762 10.5889 20.7762L9.9189 18.8918ZM15.7652 19.834L15.4302 18.8918H9.9189L10.2539 19.834L10.5889 20.7762H16.1002L15.7652 19.834Z" fill="white"/>
<path d="M23.3115 14.5226C23.8638 14.5226 24.4615 14.9445 24.6465 15.4648C24.8315 15.9852 24.5338 16.4071 23.9815 16.4071L23.3115 14.5226ZM19.7207 15.4648L19.3856 14.5226H23.3115L23.6465 15.4648L23.9815 16.4071H20.0557L19.7207 15.4648Z" fill="white"/>
<path d="M24.8667 18.8918C25.4189 18.8918 26.0166 19.3136 26.2017 19.834C26.3867 20.3544 26.089 20.7762 25.5367 20.7762L24.8667 18.8918ZM21.2758 19.834L20.9408 18.8918H24.8667L25.2017 19.834L25.5367 20.7762H21.6108L21.2758 19.834Z" fill="white"/>
<path d="M7.14648 11.0977L11.464 23.2407" stroke="white" stroke-width="2" stroke-linecap="round" stroke-linejoin="round"/>
</svg>
