<svg width="32" height="33" viewBox="0 0 32 33" fill="none" xmlns="http://www.w3.org/2000/svg">
<rect y="0.664062" width="32" height="32" rx="4" fill="white" fill-opacity="0.08"/>
<path d="M21.7062 23.9578L19.9062 15.7578L23.4062 12.2578C24.9062 10.7578 25.4062 8.75781 24.9062 7.75781C23.9062 7.25781 21.9062 7.75781 20.4062 9.25781L16.9062 12.7578L8.70625 10.9578C8.20625 10.8578 7.80625 11.0578 7.60625 11.4578L7.30625 11.9578C7.10625 12.4578 7.20625 12.9578 7.60625 13.2578L12.9062 16.7578L10.9062 19.7578H7.90625L6.90625 20.7578L9.90625 22.7578L11.9062 25.7578L12.9062 24.7578V21.7578L15.9062 19.7578L19.4062 25.0578C19.7063 25.4578 20.2062 25.5578 20.7062 25.3578L21.2062 25.1578C21.6062 24.8578 21.8062 24.4578 21.7062 23.9578Z" stroke="white" stroke-width="2" stroke-linecap="round" stroke-linejoin="round"/>
</svg>
