<svg width="32" height="32" viewBox="0 0 32 32" fill="none" xmlns="http://www.w3.org/2000/svg">
<path d="M0 4C0 1.79086 1.79086 0 4 0H28C30.2091 0 32 1.79086 32 4V28C32 30.2091 30.2091 32 28 32H4C1.79086 32 0 30.2091 0 28V4Z" fill="white" fill-opacity="0.08"/>
<path d="M15.1665 20.1666L16.8332 21.8333C16.9973 21.9974 17.1922 22.1276 17.4067 22.2165C17.6212 22.3053 17.851 22.351 18.0832 22.351C18.3153 22.351 18.5452 22.3053 18.7597 22.2165C18.9741 22.1276 19.169 21.9974 19.3332 21.8333C19.4973 21.6691 19.6275 21.4742 19.7164 21.2597C19.8052 21.0453 19.8509 20.8154 19.8509 20.5833C19.8509 20.3511 19.8052 20.1212 19.7164 19.9068C19.6275 19.6923 19.4973 19.4974 19.3332 19.3333" stroke="white" stroke-width="1.66667" stroke-linecap="round" stroke-linejoin="round"/>
<path d="M17.6669 17.6666L19.7502 19.7499C20.0817 20.0815 20.5313 20.2677 21.0002 20.2677C21.469 20.2677 21.9187 20.0815 22.2502 19.7499C22.5817 19.4184 22.768 18.9688 22.768 18.4999C22.768 18.0311 22.5817 17.5815 22.2502 17.2499L19.0169 14.0166C18.5481 13.5484 17.9127 13.2855 17.2502 13.2855C16.5877 13.2855 15.9523 13.5484 15.4835 14.0166L14.7502 14.7499C14.4187 15.0815 13.969 15.2677 13.5002 15.2677C13.0313 15.2677 12.5817 15.0815 12.2502 14.7499C11.9187 14.4184 11.7324 13.9688 11.7324 13.4999C11.7324 13.0311 11.9187 12.5815 12.2502 12.2499L14.5919 9.90826C15.3521 9.15005 16.3434 8.66706 17.4091 8.53574C18.4747 8.40443 19.5537 8.63229 20.4752 9.18326L20.8669 9.4166C21.2217 9.63075 21.6436 9.70503 22.0502 9.62493L23.5002 9.33326" stroke="white" stroke-width="1.66667" stroke-linecap="round" stroke-linejoin="round"/>
<path d="M23.4998 8.5L24.3332 17.6667H22.6665" stroke="white" stroke-width="1.66667" stroke-linecap="round" stroke-linejoin="round"/>
<path d="M8.49984 8.5L7.6665 17.6667L13.0832 23.0833C13.4147 23.4149 13.8643 23.6011 14.3332 23.6011C14.802 23.6011 15.2516 23.4149 15.5832 23.0833C15.9147 22.7518 16.1009 22.3022 16.1009 21.8333C16.1009 21.3645 15.9147 20.9149 15.5832 20.5833" stroke="white" stroke-width="1.66667" stroke-linecap="round" stroke-linejoin="round"/>
<path d="M8.5 9.33325H15.1667" stroke="white" stroke-width="1.66667" stroke-linecap="round" stroke-linejoin="round"/>
</svg>
