<svg width="32" height="33" viewBox="0 0 32 33" fill="none" xmlns="http://www.w3.org/2000/svg">
<rect y="0.664062" width="32" height="32" rx="4" fill="white" fill-opacity="0.08"/>
<path d="M22.9835 9.54748L19.3335 8.33081C19.3335 9.21487 18.9823 10.0627 18.3572 10.6878C17.7321 11.313 16.8842 11.6641 16.0002 11.6641C15.1161 11.6641 14.2683 11.313 13.6431 10.6878C13.018 10.0627 12.6668 9.21487 12.6668 8.33081L9.01682 9.54748C8.63964 9.67314 8.3198 9.92949 8.11503 10.2703C7.91027 10.611 7.83405 11.0138 7.90016 11.4058L8.38349 14.2975C8.41522 14.4932 8.51572 14.6713 8.66694 14.7996C8.81816 14.9279 9.01017 14.998 9.20849 14.9975H11.0002V23.3308C11.0002 24.2475 11.7502 24.9975 12.6668 24.9975H19.3335C19.7755 24.9975 20.1994 24.8219 20.512 24.5093C20.8246 24.1968 21.0002 23.7728 21.0002 23.3308V14.9975H22.7918C22.9901 14.998 23.1822 14.9279 23.3334 14.7996C23.4846 14.6713 23.5851 14.4932 23.6168 14.2975L24.1002 11.4058C24.1663 11.0138 24.09 10.611 23.8853 10.2703C23.6805 9.92949 23.3607 9.67314 22.9835 9.54748Z" stroke="white" stroke-width="2" stroke-linecap="round" stroke-linejoin="round"/>
</svg>
