<svg width="32" height="33" viewBox="0 0 32 33" fill="none" xmlns="http://www.w3.org/2000/svg">
<rect y="0.664062" width="32" height="32" rx="4" fill="white" fill-opacity="0.08"/>
<path d="M15.604 8.57656C15.6406 8.50277 15.697 8.44067 15.7669 8.39724C15.8369 8.35382 15.9175 8.33081 15.9999 8.33081C16.0822 8.33081 16.1629 8.35382 16.2328 8.39724C16.3028 8.44067 16.3592 8.50277 16.3957 8.57656L18.3207 12.4757C18.4475 12.7324 18.6347 12.9544 18.8662 13.1228C19.0977 13.2911 19.3666 13.4008 19.6499 13.4424L23.9549 14.0724C24.0364 14.0842 24.1131 14.1186 24.1761 14.1717C24.2391 14.2248 24.2861 14.2945 24.3116 14.3729C24.337 14.4513 24.3401 14.5352 24.3204 14.6153C24.3006 14.6953 24.2589 14.7682 24.1999 14.8257L21.0865 17.8574C20.8812 18.0575 20.7276 18.3045 20.6389 18.5771C20.5502 18.8497 20.5291 19.1398 20.5774 19.4224L21.3124 23.7057C21.3268 23.7873 21.318 23.8712 21.287 23.948C21.2559 24.0247 21.204 24.0912 21.137 24.1399C21.07 24.1885 20.9907 24.2174 20.9081 24.2231C20.8255 24.2289 20.743 24.2113 20.6699 24.1724L16.8215 22.1491C16.568 22.0159 16.2859 21.9463 15.9995 21.9463C15.7131 21.9463 15.4309 22.0159 15.1774 22.1491L11.3299 24.1724C11.2568 24.2111 11.1744 24.2285 11.0919 24.2226C11.0095 24.2167 10.9303 24.1879 10.8635 24.1392C10.7966 24.0906 10.7447 24.0242 10.7138 23.9476C10.6828 23.8709 10.6739 23.7871 10.6882 23.7057L11.4224 19.4232C11.4709 19.1405 11.4499 18.8502 11.3612 18.5774C11.2724 18.3046 11.1187 18.0575 10.9132 17.8574L7.79987 14.8266C7.74037 14.7691 7.6982 14.6961 7.67817 14.6158C7.65815 14.5355 7.66107 14.4512 7.6866 14.3725C7.71214 14.2939 7.75926 14.2239 7.8226 14.1707C7.88594 14.1175 7.96296 14.0831 8.04487 14.0716L12.349 13.4424C12.6326 13.4011 12.9019 13.2916 13.1337 13.1232C13.3655 12.9548 13.553 12.7326 13.6799 12.4757L15.604 8.57656Z" stroke="white" stroke-width="2" stroke-linecap="round" stroke-linejoin="round"/>
</svg>
