<svg width="178" height="79" viewBox="0 0 178 79" fill="none" xmlns="http://www.w3.org/2000/svg">
<g clip-path="url(#clip0_309_1304)">
<path d="M0.949137 75.9412C0.763645 75.489 0.670898 74.9847 0.670898 74.4225C0.670898 73.8602 0.763645 73.3501 0.949137 72.8979C1.13463 72.4458 1.39548 72.0632 1.72009 71.7444C2.0505 71.4256 2.43308 71.1821 2.86783 71.0082C3.30258 70.8401 3.77211 70.7532 4.26482 70.7532C4.75754 70.7532 5.23286 70.8401 5.66182 71.0082C6.09656 71.1763 6.47914 71.4256 6.80955 71.7444C7.13996 72.0632 7.40081 72.4458 7.5863 72.8979C7.7718 73.3501 7.86454 73.8544 7.86454 74.4225C7.86454 74.9905 7.7718 75.489 7.5863 75.9412C7.40081 76.3933 7.13996 76.7817 6.80955 77.1005C6.47914 77.4193 6.09656 77.6628 5.66182 77.8367C5.22707 78.0048 4.76333 78.0917 4.26482 78.0917C3.76631 78.0917 3.30837 78.0048 2.86783 77.8367C2.43308 77.6686 2.0505 77.4193 1.72009 77.1005C1.38968 76.7817 1.13463 76.3933 0.949137 75.9412ZM6.50233 74.4225C6.50233 73.8254 6.40958 73.3153 6.22409 72.8921C6.0386 72.469 5.77775 72.1444 5.44154 71.9125C5.10534 71.6806 4.71696 71.5705 4.27062 71.5705C3.82428 71.5705 3.4417 71.6864 3.10549 71.9125C2.76929 72.1444 2.50844 72.469 2.32294 72.8921C2.13745 73.3153 2.0447 73.8254 2.0447 74.4225C2.0447 75.0195 2.13745 75.5354 2.32294 75.9586C2.50844 76.3875 2.76929 76.7121 3.10549 76.9382C3.4417 77.1643 3.83007 77.2802 4.27062 77.2802C4.71116 77.2802 5.11113 77.1643 5.44154 76.9382C5.77775 76.7121 6.0386 76.3875 6.22409 75.9586C6.40958 75.5296 6.50233 75.0195 6.50233 74.4225Z" fill="white"/>
<path d="M9.09331 72.9329C9.09331 72.5329 9.09331 72.1851 9.08172 71.8895C9.07592 71.5939 9.06433 71.2634 9.05273 70.9041H13.3191L13.3886 71.8779C13.093 71.8257 12.7974 71.7851 12.5075 71.762C12.2177 71.7388 11.9047 71.7156 11.5743 71.704C11.2439 71.6924 10.8729 71.6866 10.4613 71.6866H10.3338V73.9531C10.7975 73.9531 11.2381 73.9531 11.6438 73.9357C12.0496 73.9241 12.4496 73.9067 12.8379 73.8835L12.7974 74.7994C12.409 74.7762 12.0148 74.753 11.6207 74.7472C11.2207 74.7356 10.7917 74.7298 10.3338 74.7298V75.9124C10.3338 76.3123 10.3338 76.6601 10.3454 76.95C10.3512 77.2398 10.3628 77.5702 10.3744 77.9412H9.05273C9.06433 77.576 9.07592 77.2456 9.08172 76.95C9.08751 76.6601 9.09331 76.3123 9.09331 75.9124V72.9387V72.9329Z" fill="white"/>
<path d="M14.4898 72.9329C14.4898 72.5329 14.4898 72.1851 14.4782 71.8895C14.4724 71.5939 14.4608 71.2634 14.4492 70.9041H18.7156L18.7851 71.8779C18.4895 71.8257 18.1939 71.7851 17.904 71.762C17.6142 71.7388 17.3012 71.7156 16.9708 71.704C16.6404 71.6924 16.2694 71.6866 15.8578 71.6866H15.7303V73.9531C16.194 73.9531 16.6346 73.9531 17.0403 73.9357C17.4461 73.9241 17.8461 73.9067 18.2344 73.8835L18.1939 74.7994C17.8055 74.7762 17.4113 74.753 17.0171 74.7472C16.6172 74.7356 16.1882 74.7298 15.7303 74.7298V75.9124C15.7303 76.3123 15.7303 76.6601 15.7419 76.95C15.7477 77.2398 15.7593 77.5702 15.7709 77.9412H14.4492C14.4608 77.576 14.4724 77.2456 14.4782 76.95C14.484 76.6601 14.4898 76.3123 14.4898 75.9124V72.9387V72.9329Z" fill="white"/>
<path d="M19.8921 72.9329C19.8921 72.5329 19.8921 72.1851 19.8805 71.8895C19.8747 71.5939 19.8632 71.2634 19.8516 70.9041H21.1732C21.1616 71.2634 21.15 71.5939 21.1442 71.8895C21.1384 72.1851 21.1326 72.5329 21.1326 72.9329V75.9066C21.1326 76.3065 21.1326 76.6543 21.1442 76.9442C21.15 77.234 21.1616 77.5644 21.1732 77.9354H19.8516C19.8632 77.5702 19.8747 77.2398 19.8805 76.9442C19.8863 76.6543 19.8921 76.3065 19.8921 75.9066V72.9329Z" fill="white"/>
<path d="M22.8197 76.376C22.5125 75.8311 22.356 75.1993 22.356 74.4689C22.356 73.895 22.4545 73.3849 22.6516 72.927C22.8487 72.469 23.1211 72.0807 23.4689 71.7561C23.8167 71.4314 24.2225 71.1822 24.6862 71.0141C25.1499 70.846 25.6485 70.759 26.1875 70.759C26.5527 70.759 26.8947 70.7938 27.2078 70.875C27.5208 70.9503 27.8048 71.0547 28.0715 71.1938L28.2164 72.4459C27.9613 72.214 27.6657 72.0169 27.3295 71.8488C26.9933 71.6807 26.6049 71.5995 26.1586 71.5995C25.6658 71.5995 25.2369 71.7155 24.8717 71.9473C24.5065 72.1792 24.2225 72.5096 24.0254 72.9328C23.8283 73.3559 23.724 73.8602 23.724 74.4457C23.724 75.3326 23.9442 76.0224 24.3906 76.5093C24.8369 76.9962 25.4224 77.2455 26.1586 77.2455C26.5643 77.2455 26.9643 77.1701 27.3585 77.0194C27.7468 76.8687 28.083 76.6658 28.3671 76.4166L28.228 77.5991C27.9265 77.7614 27.5903 77.8889 27.2193 77.9701C26.8484 78.0512 26.4716 78.0918 26.0832 78.0918C25.3412 78.0918 24.6862 77.9411 24.1297 77.6454C23.5733 77.3498 23.1327 76.9267 22.8255 76.3818L22.8197 76.376Z" fill="white"/>
<path d="M29.5088 72.9329C29.5088 72.5329 29.5088 72.1851 29.4972 71.8895C29.4915 71.5939 29.4799 71.2634 29.4683 70.9041H30.7899C30.7783 71.2634 30.7667 71.5939 30.7609 71.8895C30.7551 72.1851 30.7493 72.5329 30.7493 72.9329V75.9066C30.7493 76.3065 30.7493 76.6543 30.7609 76.9442C30.7667 77.234 30.7783 77.5644 30.7899 77.9354H29.4683C29.4799 77.5702 29.4915 77.2398 29.4972 76.9442C29.503 76.6543 29.5088 76.3065 29.5088 75.9066V72.9329Z" fill="white"/>
<path d="M34.6333 70.904H35.3695L37.4853 75.8311C37.665 76.2543 37.8273 76.6195 37.9722 76.9325C38.1171 77.2455 38.2852 77.5817 38.4591 77.9353H36.894C36.7897 77.5991 36.6911 77.3035 36.5984 77.0426C36.5057 76.7818 36.3897 76.4862 36.2506 76.15H33.4334C33.2827 76.5615 33.161 76.9151 33.0682 77.1992C32.9755 77.4832 32.9059 77.7324 32.8538 77.9353H31.6133C31.7466 77.6571 31.8567 77.4252 31.9437 77.2281C32.0306 77.031 32.1176 76.8398 32.1987 76.6485C32.2799 76.463 32.3726 76.2543 32.4712 76.0224L34.6275 70.8982L34.6333 70.904ZM34.842 72.6314L33.7464 75.379H35.955L34.842 72.6314Z" fill="white"/>
<path d="M40.575 77.1295H40.6156C41.2068 77.1295 41.7517 77.1121 42.256 77.0831C42.7603 77.0483 43.2473 76.9962 43.7284 76.9266L43.6704 77.941H39.2939C39.3055 77.5758 39.3171 77.2454 39.3229 76.9498C39.3287 76.6599 39.3345 76.3121 39.3345 75.9122V72.9385C39.3345 72.5385 39.3345 72.1907 39.3229 71.8951C39.3171 71.5995 39.3055 71.2691 39.2939 70.9097H40.6156C40.604 71.2691 40.5924 71.5995 40.5866 71.8951C40.5808 72.1907 40.575 72.5385 40.575 72.9385V77.1353V77.1295Z" fill="white"/>
<path d="M46.771 72.9329C46.771 72.5329 46.771 72.1851 46.7595 71.8895C46.7537 71.5939 46.7421 71.2634 46.7305 70.9041H48.0521C48.0405 71.2634 48.0289 71.5939 48.0231 71.8895C48.0173 72.1851 48.0115 72.5329 48.0115 72.9329V74.8052C48.0115 75.5588 48.168 76.1384 48.4811 76.5326C48.7941 76.9326 49.2578 77.1297 49.8781 77.1297C50.4983 77.1297 50.9504 76.9326 51.2692 76.5384C51.5881 76.1442 51.7446 75.5704 51.7446 74.8168V72.9329C51.7446 72.5329 51.7446 72.1851 51.733 71.8895C51.7272 71.5939 51.7156 71.2634 51.704 70.9041H52.7068C52.6952 71.2634 52.6836 71.5939 52.6778 71.8895C52.672 72.1851 52.6662 72.5329 52.6662 72.9329V74.8921C52.6662 75.8718 52.4228 76.6485 51.9301 77.2224C51.4431 77.7963 50.707 78.0861 49.7273 78.0861C49.0723 78.0861 48.5216 77.9528 48.0869 77.6919C47.6521 77.4311 47.3217 77.0601 47.1015 76.579C46.8812 76.0978 46.771 75.5356 46.771 74.8921V72.9329Z" fill="white"/>
<path d="M53.8196 72.6777C53.8196 72.0748 54.034 71.5995 54.4572 71.2633C54.8803 70.9271 55.4658 70.7532 56.2136 70.7532C56.5092 70.7532 56.8048 70.7764 57.1063 70.8343C57.4077 70.8923 57.6859 70.9676 57.9468 71.0778L58.0627 72.2197C57.4367 71.7908 56.8338 71.5821 56.2368 71.5821C55.8426 71.5821 55.5412 71.6575 55.3267 71.814C55.1122 71.9705 55.0079 72.1849 55.0079 72.4574C55.0079 72.6661 55.0774 72.8516 55.2108 73.0139C55.3441 73.1762 55.5817 73.3385 55.9237 73.5124L56.9266 73.9935C57.4888 74.2602 57.912 74.5616 58.1902 74.8862C58.4685 75.2108 58.6018 75.605 58.6018 76.0745C58.6018 76.7121 58.3641 77.2048 57.8946 77.5584C57.4251 77.912 56.7816 78.0859 55.9701 78.0859C55.5701 78.0859 55.1876 78.0454 54.8282 77.9584C54.4688 77.8715 54.1442 77.7555 53.8601 77.6048L53.75 76.4049C54.4282 76.9614 55.1644 77.2454 55.9585 77.2454C56.4107 77.2454 56.7643 77.1585 57.0135 76.9788C57.2628 76.7991 57.3903 76.5672 57.3903 76.2716C57.3903 76.0629 57.3207 75.8716 57.1758 75.6977C57.0309 75.5296 56.7585 75.3441 56.3585 75.1586L55.2861 74.6485C54.3065 74.1848 53.8196 73.5298 53.8196 72.6893V72.6777Z" fill="white"/>
<path d="M61.8135 72.9329C61.8135 72.5329 61.8135 72.1851 61.8019 71.8895C61.7961 71.5939 61.7845 71.2634 61.7729 70.9041H63.0946C63.083 71.2634 63.0714 71.5939 63.0656 71.8895C63.0598 72.1851 63.054 72.5329 63.054 72.9329V75.9066C63.054 76.3065 63.054 76.6543 63.0656 76.9442C63.0714 77.234 63.083 77.5644 63.0946 77.9354H61.7729C61.7845 77.5702 61.7961 77.2398 61.8019 76.9442C61.8077 76.6543 61.8135 76.3065 61.8135 75.9066V72.9329Z" fill="white"/>
<path d="M69.6332 75.8139V72.9387C69.6332 72.5388 69.6332 72.191 69.6216 71.8953C69.6158 71.5997 69.6042 71.2693 69.5926 70.9099H70.5955C70.5839 71.2693 70.5723 71.5997 70.5665 71.8953C70.5607 72.191 70.5549 72.5388 70.5549 72.9387V75.9124C70.5549 76.3124 70.5549 76.6602 70.5665 76.95C70.5723 77.2399 70.5839 77.5703 70.5955 77.9413H69.8941L65.5002 73.0431V75.9124C65.5002 76.1733 65.5002 76.4167 65.5002 76.6312C65.5002 76.8457 65.506 77.0602 65.5176 77.263C65.5292 77.4659 65.5292 77.692 65.535 77.9413H64.5322C64.5438 77.692 64.5554 77.4659 64.5554 77.263C64.5554 77.0602 64.5612 76.8515 64.5669 76.6312C64.5727 76.4109 64.5669 76.1733 64.5669 75.9124V72.9387C64.5669 72.5388 64.5669 72.191 64.5554 71.8953C64.5496 71.5997 64.538 71.2693 64.5264 70.9099H65.2162L69.6216 75.8197L69.6332 75.8139Z" fill="white"/>
<path d="M75.1747 77.9413H74.4559L72.2068 72.6721C72.0619 72.3301 71.9286 72.0229 71.8068 71.7504C71.6851 71.478 71.5576 71.1997 71.4185 70.9099H72.9662C73.0589 71.2229 73.169 71.5649 73.2966 71.9243C73.4241 72.2837 73.6038 72.7474 73.8357 73.3155L74.9892 76.1849L76.2007 73.1474C76.3398 72.8054 76.4558 72.5098 76.5485 72.2605C76.6412 72.0113 76.7282 71.7794 76.792 71.5649C76.8615 71.3505 76.9311 71.1302 76.9948 70.9099H78.2179C78.073 71.2229 77.9455 71.5012 77.8411 71.7446C77.731 71.9823 77.6209 72.2431 77.4991 72.5156L75.1747 77.947V77.9413Z" fill="white"/>
<path d="M79.0928 72.9329C79.0928 72.5329 79.0928 72.1851 79.0812 71.8895C79.0754 71.5939 79.0638 71.2634 79.0522 70.9041H83.3186L83.3881 71.8779C83.0925 71.8315 82.7969 71.7967 82.507 71.762C82.2172 71.7272 81.9042 71.7098 81.5738 71.6982C81.2434 71.6866 80.8724 71.6808 80.4608 71.6808H80.3333V73.8603C80.797 73.8603 81.2376 73.8603 81.6433 73.843C82.0491 73.8256 82.4491 73.814 82.8375 73.7908L82.7969 74.6951C82.4085 74.6719 82.0143 74.6487 81.6202 74.6429C81.2202 74.6313 80.7912 74.6255 80.3333 74.6255V77.1586H80.6115C81.2086 77.1586 81.7361 77.1412 82.194 77.1123C82.652 77.0833 83.1273 77.0311 83.62 76.9673L83.5388 77.9412H79.0522C79.0638 77.576 79.0754 77.2456 79.0812 76.95C79.087 76.6601 79.0928 76.3123 79.0928 75.9124V72.9387V72.9329Z" fill="white"/>
<path d="M84.4841 72.6777C84.4841 72.0748 84.6986 71.5995 85.1217 71.2633C85.5449 70.9271 86.1304 70.7532 86.8781 70.7532C87.1738 70.7532 87.4694 70.7764 87.7708 70.8343C88.0722 70.8923 88.3505 70.9676 88.6113 71.0778L88.7273 72.2197C88.1012 71.7908 87.4984 71.5821 86.9013 71.5821C86.5071 71.5821 86.2057 71.6575 85.9912 71.814C85.7768 71.9705 85.6724 72.1849 85.6724 72.4574C85.6724 72.6661 85.742 72.8516 85.8753 73.0139C86.0086 73.1762 86.2463 73.3385 86.5883 73.5124L87.5911 73.9935C88.1534 74.2602 88.5765 74.5616 88.8548 74.8862C89.133 75.2108 89.2663 75.605 89.2663 76.0745C89.2663 76.7121 89.0287 77.2048 88.5592 77.5584C88.0896 77.912 87.4462 78.0859 86.6347 78.0859C86.2347 78.0859 85.8521 78.0454 85.4927 77.9584C85.1333 77.8715 84.8087 77.7555 84.5247 77.6048L84.4146 76.4049C85.0928 76.9614 85.8289 77.2454 86.6231 77.2454C87.0752 77.2454 87.4288 77.1585 87.6781 76.9788C87.9273 76.7991 88.0548 76.5672 88.0548 76.2716C88.0548 76.0629 87.9853 75.8716 87.8404 75.6977C87.6954 75.5296 87.423 75.3441 87.023 75.1586L85.9507 74.6485C84.971 74.1848 84.4841 73.5298 84.4841 72.6893V72.6777Z" fill="white"/>
<path d="M91.7296 71.6924C91.3412 71.6982 90.9702 71.7214 90.605 71.7504C90.2456 71.7851 89.8688 71.8257 89.4805 71.8779L89.5616 70.9041H95.138L95.2076 71.8779C94.8192 71.8257 94.4482 71.7851 94.0888 71.7504C93.7294 71.7156 93.3584 71.6982 92.9701 71.6924V75.9124C92.9701 76.3123 92.9701 76.6601 92.9817 76.95C92.9874 77.2398 92.999 77.5702 93.0106 77.9412H91.689C91.7006 77.576 91.7122 77.2456 91.718 76.95C91.7238 76.6601 91.7296 76.3123 91.7296 75.9124V71.6924Z" fill="white"/>
<path d="M99.6884 75.9008L102.152 70.9041H102.859L103.334 75.1588C103.387 75.6109 103.445 76.0689 103.503 76.5326C103.561 76.9963 103.63 77.4659 103.7 77.9354H102.279C102.268 77.605 102.251 77.2978 102.233 77.0137C102.216 76.7297 102.193 76.4341 102.164 76.1384C102.135 75.837 102.106 75.5124 102.077 75.1588L101.909 73.3328L99.7927 77.6514H99.2131L97.0277 73.3676L96.8712 75.2226C96.8248 75.7269 96.7901 76.1964 96.7611 76.6253C96.7321 77.0543 96.7089 77.4948 96.6915 77.9412H95.6191C95.6771 77.5006 95.7351 77.0659 95.7872 76.6369C95.8394 76.208 95.8916 75.75 95.9322 75.2747L96.3785 70.9098H97.0857L99.7 75.9066L99.6884 75.9008Z" fill="white"/>
<path d="M104.963 72.9329C104.963 72.5329 104.963 72.1851 104.952 71.8895C104.946 71.5939 104.934 71.2634 104.923 70.9041H109.189L109.259 71.8779C108.963 71.8315 108.667 71.7967 108.378 71.762C108.088 71.7272 107.775 71.7098 107.444 71.6982C107.114 71.6866 106.743 71.6808 106.331 71.6808H106.204V73.8603C106.668 73.8603 107.108 73.8603 107.514 73.843C107.92 73.8256 108.32 73.814 108.708 73.7908L108.667 74.6951C108.279 74.6719 107.885 74.6487 107.491 74.6429C107.091 74.6313 106.662 74.6255 106.204 74.6255V77.1586H106.482C107.079 77.1586 107.607 77.1412 108.065 77.1123C108.523 77.0833 108.998 77.0311 109.491 76.9673L109.409 77.9412H104.923C104.934 77.576 104.946 77.2456 104.952 76.95C104.958 76.6601 104.963 76.3123 104.963 75.9124V72.9387V72.9329Z" fill="white"/>
<path d="M115.635 75.8139V72.9387C115.635 72.5388 115.635 72.191 115.624 71.8953C115.618 71.5997 115.606 71.2693 115.595 70.9099H116.597C116.586 71.2693 116.574 71.5997 116.568 71.8953C116.563 72.191 116.557 72.5388 116.557 72.9387V75.9124C116.557 76.3124 116.557 76.6602 116.568 76.95C116.574 77.2399 116.586 77.5703 116.597 77.9413H115.896L111.502 73.0431V75.9124C111.502 76.1733 111.502 76.4167 111.502 76.6312C111.502 76.8457 111.508 77.0602 111.52 77.263C111.531 77.4659 111.531 77.692 111.537 77.9413H110.534C110.546 77.692 110.557 77.4659 110.557 77.263C110.557 77.0602 110.563 76.8515 110.569 76.6312C110.575 76.4109 110.569 76.1733 110.569 75.9124V72.9387C110.569 72.5388 110.569 72.191 110.557 71.8953C110.552 71.5997 110.54 71.2693 110.528 70.9099H111.218L115.624 75.8197L115.635 75.8139Z" fill="white"/>
<path d="M119.785 71.6924C119.397 71.6982 119.026 71.7214 118.661 71.7504C118.301 71.7851 117.925 71.8257 117.536 71.8779L117.617 70.9041H123.194L123.263 71.8779C122.875 71.8257 122.504 71.7851 122.144 71.7504C121.785 71.7156 121.414 71.6982 121.026 71.6924V75.9124C121.026 76.3123 121.026 76.6601 121.037 76.95C121.043 77.2398 121.055 77.5702 121.066 77.9412H119.745C119.756 77.576 119.768 77.2456 119.774 76.95C119.779 76.6601 119.785 76.3123 119.785 75.9124V71.6924Z" fill="white"/>
<path d="M126.278 77.9411C126.289 77.5759 126.301 77.2455 126.307 76.9499C126.313 76.6601 126.318 76.3123 126.318 75.9123V72.9734C126.318 72.614 126.318 72.2662 126.307 71.9358C126.301 71.6054 126.289 71.275 126.278 70.9562C126.544 70.9214 126.817 70.904 127.084 70.8924C127.35 70.8808 127.617 70.875 127.878 70.875C128.492 70.875 129.037 70.9504 129.501 71.1069C129.965 71.2634 130.33 71.4894 130.596 71.7909C130.857 72.0923 130.991 72.4691 130.991 72.9154C130.991 73.3618 130.869 73.7559 130.62 74.0748C130.37 74.3936 130.028 74.637 129.582 74.8051C129.136 74.9732 128.608 75.0544 127.994 75.0544H127.559V75.9123C127.559 76.3123 127.559 76.6601 127.57 76.9499C127.576 77.2397 127.588 77.5701 127.599 77.9411H126.278ZM129.309 73.9356C129.57 73.7038 129.698 73.3792 129.698 72.9734C129.698 72.5676 129.559 72.2314 129.28 72.0053C129.002 71.7793 128.608 71.6633 128.104 71.6633C127.936 71.6633 127.75 71.6749 127.559 71.7039V74.2371C127.762 74.2718 127.965 74.2834 128.168 74.2834C128.666 74.2834 129.049 74.1675 129.304 73.9356H129.309Z" fill="white"/>
<path d="M133.315 77.1297H133.355C133.947 77.1297 134.491 77.1123 134.996 77.0833C135.5 77.0486 135.987 76.9964 136.468 76.9268L136.41 77.9413H132.034C132.045 77.5761 132.057 77.2457 132.063 76.95C132.068 76.6602 132.074 76.3124 132.074 75.9124V72.9387C132.074 72.5388 132.074 72.191 132.063 71.8953C132.057 71.5997 132.045 71.2693 132.034 70.9099H133.355C133.344 71.2693 133.332 71.5997 133.326 71.8953C133.321 72.191 133.315 72.5388 133.315 72.9387V77.1355V77.1297Z" fill="white"/>
<path d="M140.062 70.904H140.798L142.914 75.8311C143.094 76.2543 143.256 76.6195 143.401 76.9325C143.546 77.2455 143.714 77.5817 143.888 77.9353H142.323C142.218 77.5991 142.12 77.3035 142.027 77.0426C141.934 76.7818 141.818 76.4862 141.679 76.15H138.862C138.711 76.5615 138.59 76.9151 138.497 77.1992C138.404 77.4832 138.335 77.7324 138.282 77.9353H137.042C137.175 77.6571 137.285 77.4252 137.372 77.2281C137.459 77.031 137.546 76.8398 137.627 76.6485C137.709 76.463 137.801 76.2543 137.9 76.0224L140.056 70.8982L140.062 70.904ZM140.271 72.6314L139.175 75.379H141.384L140.271 72.6314Z" fill="white"/>
<path d="M145.378 71.6924C144.989 71.6982 144.618 71.7214 144.253 71.7504C143.894 71.7851 143.517 71.8257 143.128 71.8779L143.21 70.9041H148.786L148.855 71.8779C148.467 71.8257 148.096 71.7851 147.737 71.7504C147.377 71.7156 147.006 71.6982 146.618 71.6924V75.9124C146.618 76.3123 146.618 76.6601 146.63 76.95C146.635 77.2398 146.647 77.5702 146.659 77.9412H145.337C145.349 77.576 145.36 77.2456 145.366 76.95C145.372 76.6601 145.378 76.3123 145.378 75.9124V71.6924Z" fill="white"/>
<path d="M149.841 72.9329C149.841 72.5329 149.841 72.1851 149.829 71.8895C149.823 71.5939 149.812 71.2634 149.8 70.9041H154.067L154.136 71.8779C153.841 71.8257 153.545 71.7851 153.255 71.762C152.959 71.7388 152.652 71.7156 152.322 71.704C151.991 71.6924 151.62 71.6866 151.209 71.6866H151.081V73.9531C151.545 73.9531 151.986 73.9531 152.391 73.9357C152.797 73.9241 153.197 73.9067 153.586 73.8835L153.545 74.7994C153.157 74.7762 152.762 74.753 152.368 74.7472C151.968 74.7356 151.539 74.7298 151.081 74.7298V75.9124C151.081 76.3123 151.081 76.6601 151.093 76.95C151.099 77.2398 151.11 77.5702 151.122 77.9412H149.8C149.812 77.576 149.823 77.2456 149.829 76.95C149.835 76.6601 149.841 76.3123 149.841 75.9124V72.9387V72.9329Z" fill="white"/>
<path d="M154.849 75.9412C154.664 75.489 154.571 74.9847 154.571 74.4225C154.571 73.8602 154.664 73.3501 154.849 72.8979C155.035 72.4458 155.295 72.0632 155.62 71.7444C155.95 71.4256 156.333 71.1821 156.768 71.0082C157.202 70.8401 157.672 70.7532 158.165 70.7532C158.657 70.7532 159.133 70.8401 159.562 71.0082C159.996 71.1763 160.379 71.4256 160.709 71.7444C161.04 72.0632 161.301 72.4458 161.486 72.8979C161.672 73.3501 161.764 73.8544 161.764 74.4225C161.764 74.9905 161.672 75.489 161.486 75.9412C161.301 76.3933 161.04 76.7817 160.709 77.1005C160.379 77.4193 159.996 77.6628 159.562 77.8367C159.127 78.0048 158.663 78.0917 158.165 78.0917C157.666 78.0917 157.208 78.0048 156.768 77.8367C156.333 77.6686 155.95 77.4193 155.62 77.1005C155.29 76.7817 155.035 76.3933 154.849 75.9412ZM160.402 74.4225C160.402 73.8254 160.309 73.3153 160.124 72.8921C159.938 72.469 159.678 72.1444 159.341 71.9125C159.005 71.6806 158.617 71.5705 158.171 71.5705C157.724 71.5705 157.342 71.6864 157.005 71.9125C156.669 72.1444 156.408 72.469 156.223 72.8921C156.037 73.3153 155.939 73.8254 155.939 74.4225C155.939 75.0195 156.032 75.5354 156.223 75.9586C156.408 76.3875 156.669 76.7121 157.005 76.9382C157.342 77.1643 157.73 77.2802 158.171 77.2802C158.611 77.2802 159.005 77.1643 159.341 76.9382C159.678 76.7121 159.938 76.3875 160.124 75.9586C160.309 75.5296 160.402 75.0195 160.402 74.4225Z" fill="white"/>
<path d="M162.953 77.9411C162.964 77.5759 162.976 77.2455 162.982 76.9499C162.987 76.6601 162.993 76.3123 162.993 75.9123V72.9734C162.993 72.614 162.993 72.2662 162.982 71.9358C162.976 71.6054 162.964 71.275 162.953 70.9562C163.219 70.9214 163.492 70.904 163.758 70.8924C164.025 70.8808 164.292 70.875 164.553 70.875C165.161 70.875 165.7 70.9504 166.164 71.0953C166.628 71.2402 166.987 71.4605 167.248 71.7561C167.509 72.0459 167.636 72.4111 167.636 72.8459C167.636 73.2806 167.497 73.669 167.225 74.0168C166.947 74.3646 166.552 74.6138 166.031 74.7645L168.535 77.9353H166.912C166.703 77.5933 166.5 77.2861 166.303 77.0021C166.106 76.718 165.897 76.4224 165.665 76.0978L164.796 74.9153C164.709 74.9153 164.622 74.9153 164.535 74.9153C164.448 74.9153 164.344 74.9153 164.234 74.9153V75.8891C164.234 76.2891 164.234 76.6369 164.245 76.9267C164.251 77.2165 164.263 77.5469 164.274 77.9179H162.953V77.9411ZM164.234 71.7039V74.1385C164.437 74.1733 164.639 74.1849 164.837 74.1849C165.341 74.1849 165.723 74.069 165.973 73.8371C166.228 73.6052 166.349 73.298 166.349 72.9154C166.349 72.5097 166.21 72.1966 165.938 71.9822C165.665 71.7677 165.277 71.6633 164.773 71.6633C164.605 71.6633 164.419 71.6749 164.228 71.7039H164.234Z" fill="white"/>
<path d="M173.172 75.9008L175.636 70.9041H176.343L176.818 75.1588C176.87 75.6109 176.928 76.0689 176.986 76.5326C177.044 76.9963 177.114 77.4659 177.184 77.9354H175.763C175.752 77.605 175.734 77.2978 175.717 77.0137C175.7 76.7297 175.676 76.4341 175.647 76.1384C175.618 75.837 175.589 75.5124 175.56 75.1588L175.392 73.3328L173.271 77.6514H172.691L170.506 73.3676L170.349 75.2226C170.303 75.7269 170.268 76.1964 170.239 76.6253C170.21 77.0543 170.193 77.4948 170.17 77.9412H169.097C169.155 77.5006 169.213 77.0659 169.265 76.6369C169.317 76.208 169.37 75.75 169.41 75.2747L169.857 70.9098H170.564L173.172 75.9066V75.9008Z" fill="white"/>
<path d="M89.3535 0.387939H88.5361V57.5719H89.3535V0.387939Z" fill="white"/>
<path d="M164.587 23.8414C164.848 23.8414 165.115 23.7718 165.329 23.6211C165.55 23.482 165.724 23.2675 165.828 23.024C165.932 22.7806 165.961 22.5197 165.909 22.2531C165.857 21.9864 165.729 21.7546 165.544 21.5749C165.358 21.3952 165.121 21.2619 164.866 21.2097C164.605 21.1575 164.338 21.1923 164.095 21.2908C163.851 21.3894 163.637 21.5633 163.498 21.7894C163.358 22.0096 163.277 22.2647 163.277 22.5313C163.277 22.7052 163.306 22.8733 163.376 23.0356C163.445 23.1979 163.538 23.3371 163.66 23.4704C163.782 23.5921 163.932 23.6907 164.095 23.7544C164.245 23.8124 164.419 23.853 164.593 23.8472L164.587 23.8414Z" fill="white"/>
<path d="M173.265 30.9771C172.801 31.806 172.007 32.3972 170.83 32.3972C169.544 32.3972 168.367 31.435 168.367 29.6496C168.367 27.7657 169.544 26.902 170.83 26.902C171.793 26.902 172.564 27.2962 173.265 28.1309L174.39 27.1281C173.995 26.5716 173.479 26.1137 172.877 25.8006C172.268 25.4876 171.601 25.3137 170.923 25.3137C168.773 25.3137 166.657 26.9136 166.657 29.6612C166.645 32.4088 168.715 34.0087 170.83 34.0087C172.291 34.0087 173.758 33.1798 174.54 31.8118L173.265 30.9828V30.9771Z" fill="white"/>
<path d="M165.046 25.5745H163.405V33.8173H165.046V25.5745Z" fill="white"/>
<path d="M161.226 21.2385H159.44V33.8057H161.226V21.2385Z" fill="white"/>
<path d="M153.846 25.3137C152.612 25.3137 151.696 25.8296 151.18 26.6527V21.2502H149.354V33.8174H151.18V32.774C151.696 33.5565 152.6 34.0087 153.846 34.0087C156.229 34.0087 157.881 32.1769 157.881 29.6612C157.881 27.2788 156.13 25.3137 153.846 25.3137ZM153.69 32.3276C152.049 32.3276 150.942 31.2205 150.942 29.6612C150.942 28.1019 152.049 26.9947 153.69 26.9947C155.168 26.9947 156.223 28.0497 156.223 29.6612C156.223 31.2727 155.156 32.3276 153.69 32.3276Z" fill="white"/>
<path d="M145.505 30.351C145.505 31.5567 144.775 32.3393 143.592 32.3393C142.578 32.3393 142.039 31.4698 142.039 30.351V25.5862H140.254V30.6351C140.242 32.5422 141.442 33.9276 143.407 33.9276C144.288 33.9276 145.007 33.5508 145.557 32.774V33.8174H147.262V25.5862H145.511V30.351H145.505Z" fill="white"/>
<path d="M134.799 25.3137C133.605 25.3137 132.701 25.8296 131.953 26.6528V25.5804H130.22V36.7621H131.953V32.7798C132.695 33.5624 133.605 34.0145 134.799 34.0145C137.158 34.0145 138.874 32.0494 138.874 29.667C138.874 27.1339 137.17 25.3195 134.799 25.3195V25.3137ZM134.567 32.3277C132.875 32.3277 131.872 31.2205 131.872 29.6612C131.872 28.1019 132.886 26.9948 134.567 26.9948C136.248 26.9948 137.164 28.1425 137.164 29.6612C137.176 31.2147 136.179 32.3277 134.567 32.3277Z" fill="white"/>
<path d="M119.224 30.8148C122.262 30.8148 124.725 28.3519 124.725 25.3138C124.725 22.2756 122.262 19.8127 119.224 19.8127C116.186 19.8127 113.723 22.2756 113.723 25.3138C113.723 28.3519 116.186 30.8148 119.224 30.8148Z" fill="white"/>
<path d="M116.476 38.1533C117.206 38.1533 117.907 37.8577 118.423 37.3302C118.939 36.8143 119.223 36.1129 119.223 35.3825C119.223 33.8928 117.977 32.6465 116.476 32.6465C114.974 32.6465 113.716 33.8928 113.716 35.3825C113.716 36.1129 114.012 36.8143 114.516 37.3302C115.044 37.8577 115.745 38.1533 116.47 38.1533H116.476Z" fill="white"/>
<path d="M33.8446 26.6008C25.9148 26.6008 13.6607 26.6414 3.28467 26.8733V26.9254C13.6549 27.1573 26.4539 27.1979 34.3605 27.1979C37.282 27.1979 52.1099 27.1921 64.1437 26.9254V26.8733C55.8545 26.6878 45.0901 26.6008 33.8388 26.6008" fill="white"/>
<path d="M57.9416 31.7537C55.3911 31.7537 53.3101 33.8347 53.3101 36.3852C53.3101 38.9357 55.3911 41.0167 57.9416 41.0167C60.4921 41.0167 62.5441 38.9357 62.5441 36.3852C62.5441 33.8347 60.4863 31.7537 57.9416 31.7537ZM57.9416 38.9067C56.5388 38.9067 55.42 37.7648 55.42 36.3852C55.42 35.0056 56.5388 33.8868 57.9416 33.8868C59.3444 33.8868 60.4399 35.0056 60.4399 36.3852C60.4399 37.7648 59.3212 38.9067 57.9416 38.9067Z" fill="white"/>
<path d="M40.9864 31.6497C39.972 31.6497 38.9286 31.8583 38.0997 32.1945C37.4215 31.8062 36.7723 31.6497 35.8332 31.6497C34.6623 31.6497 33.4682 31.8062 32.1639 32.2467L31.9263 32.3221V40.8316H34.2391V33.8582C34.7087 33.7017 35.0738 33.6495 35.5434 33.6495C36.6853 33.6495 37.0273 34.0147 37.0273 35.2088V40.8316H39.3692V35.0581C39.3692 34.5364 39.346 34.2002 39.2648 33.8872C39.7344 33.7307 40.0995 33.6495 40.5111 33.6495C41.6067 33.6495 42.0994 34.1422 42.0994 35.2088V40.8316H44.4181V35.0291C44.4181 33.8872 44.2326 33.209 43.7167 32.6351C43.1428 32.0091 42.1805 31.6497 40.9864 31.6497Z" fill="white"/>
<path d="M50.2665 38.9997C48.7246 38.9997 47.8377 38.0432 47.8377 36.368C47.8377 34.6928 48.7304 33.6726 50.2897 33.6726C50.6143 33.6726 50.8867 33.7073 51.1476 33.7827C51.1476 33.7827 51.6287 33.916 52.0461 34.2464L53.0257 32.5654C52.4924 32.1191 51.8606 31.9278 51.6519 31.8698C51.049 31.6901 50.168 31.6611 50.168 31.6611C47.3856 31.6611 45.519 33.5914 45.519 36.4608C45.519 39.3301 47.2928 41.0053 50.0404 41.0053C50.0404 41.0053 51.878 41.0865 53.1185 39.9387L51.9649 38.4548C51.3389 38.8548 50.9041 38.9881 50.2781 38.9881" fill="white"/>
<path d="M20.078 31.7309C16.7739 31.7309 15.2378 33.1859 15.2378 36.2871V40.8374H17.6028V36.2581C17.6028 34.6988 18.4897 33.7365 19.8693 33.7365C20.4432 33.7365 20.8837 33.8409 21.1968 33.9162L21.7416 31.8584C20.8258 31.7251 20.078 31.7251 20.078 31.7251" fill="white"/>
<path d="M30.5754 36.0204V40.8316H27.3988C25.2135 40.8316 24.2512 40.6751 23.1035 39.9216C22.1123 39.2433 21.5674 37.9681 21.5674 36.3044C21.5674 34.0148 23.0745 31.7019 26.4076 31.7019C29.1146 31.7019 30.5696 33.209 30.5696 36.0204M28.2625 36.2813C28.2625 34.5365 27.5843 33.6786 26.2337 33.6786C24.8831 33.6786 23.9672 34.693 23.9672 36.2291C23.9672 38.0782 24.8483 38.884 26.8307 38.884H28.2625V36.2813Z" fill="white"/>
<path d="M13.9507 36.0204V40.8316H10.8031C8.61777 40.8316 7.65553 40.6751 6.50779 39.9216C5.51657 39.2433 4.97168 37.9681 4.97168 36.3044C4.97168 34.0148 6.47881 31.7019 9.81188 31.7019C12.5189 31.7019 13.9507 33.209 13.9507 36.0204ZM11.5567 36.2813C11.5567 34.5133 10.9306 33.6786 9.55103 33.6786C8.17143 33.6786 7.28454 34.693 7.28454 36.2291C7.28454 38.0782 8.17143 38.884 10.1481 38.884H11.5567V36.2813Z" fill="white"/>
<path d="M29.5087 44.4543H29.2189L27.4741 48.3787H28.1407C28.2103 48.1468 28.2857 47.8802 28.5233 47.2831H29.9493C30.1232 47.7121 30.2565 48.0946 30.3609 48.3787H31.1956L29.5087 44.4543ZM29.2363 45.5905C29.6595 46.5643 29.6653 46.5701 29.7638 46.8252H28.7146C28.8247 46.5701 28.8247 46.5643 29.2363 45.5905Z" fill="white"/>
<path d="M56.1381 44.4543H55.8483L54.1035 48.3787H54.7701C54.8397 48.1468 54.915 47.8802 55.1527 47.2831H56.5787C56.7526 47.7121 56.8859 48.0946 56.9902 48.3787H57.825L56.1381 44.4543ZM55.8657 45.5905C56.2889 46.5643 56.2946 46.5701 56.3932 46.8252H55.344C55.4541 46.5701 55.4541 46.5643 55.8657 45.5905Z" fill="white"/>
<path d="M19.4866 48.3727C19.3881 47.1554 19.3127 46.425 19.2605 45.9381C18.5997 47.1264 18.3157 47.7002 18.049 48.3147H17.8288C17.1621 46.9525 17.0926 46.8249 16.9419 46.5351C16.8781 46.4134 16.8028 46.2743 16.6404 45.9612C16.6115 46.2047 16.4897 47.2771 16.4144 48.3727H15.8115C16.0028 46.9931 16.3042 44.6628 16.3216 44.5295H16.681C16.7332 44.6396 16.7854 44.744 16.8375 44.8425C17.2781 45.7236 17.6259 46.4192 18.049 47.138V47.1496L18.0606 47.138C18.2519 46.7902 18.4258 46.4656 18.5881 46.1467C18.849 45.6598 19.1156 45.1555 19.4692 44.5237H19.788C19.7996 44.6454 20.0199 46.5467 20.246 48.3669H19.4924L19.4866 48.3727Z" fill="white"/>
<path d="M61.7727 48.3727C61.6742 47.1554 61.5988 46.425 61.5467 45.9381C60.8858 47.1264 60.6018 47.7002 60.3352 48.3147H60.1149C59.4483 46.9525 59.3787 46.8249 59.228 46.5351C59.1642 46.4134 59.0889 46.2743 58.9266 45.9612C58.8976 46.2047 58.7759 47.2771 58.7005 48.3727H58.0977C58.2889 46.9931 58.5904 44.6628 58.6078 44.5295H58.9672C59.0193 44.6396 59.0715 44.744 59.1237 44.8425C59.5642 45.7236 59.912 46.4192 60.3352 47.138V47.1496L60.3468 47.138C60.538 46.7902 60.712 46.4656 60.8743 46.1467C61.1351 45.6598 61.4017 45.1555 61.7553 44.5237H62.0742C62.0858 44.6454 62.306 46.5467 62.5321 48.3669H61.7785L61.7727 48.3727Z" fill="white"/>
<path d="M9.68399 48.5061C8.88405 48.5061 8.40873 48.083 8.29859 47.9728C7.97398 47.6656 7.68994 47.1671 7.68994 46.4541C7.68994 45.7411 7.97398 45.2426 8.29859 44.9354C8.41452 44.8253 8.88405 44.4021 9.68399 44.4021C10.1709 44.4021 11.1042 44.605 11.5157 45.5788C11.6259 45.8397 11.6838 46.1353 11.6838 46.4541C11.6838 47.1671 11.3998 47.6656 11.0752 47.9728C10.9593 48.083 10.4897 48.5061 9.68978 48.5061M9.68399 48.0482C10.281 48.0482 10.8839 47.4975 10.8839 46.4541C10.8839 45.4107 10.281 44.86 9.68399 44.86C9.08693 44.86 8.48408 45.4107 8.48408 46.4541C8.48408 47.4975 9.08693 48.0482 9.68399 48.0482Z" fill="white"/>
<path d="M35.0736 48.5061C34.2737 48.5061 33.7984 48.083 33.6882 47.9728C33.3636 47.6656 33.0796 47.1671 33.0796 46.4541C33.0796 45.7411 33.3636 45.2426 33.6882 44.9354C33.8042 44.8253 34.2737 44.4021 35.0736 44.4021C35.5606 44.4021 36.4938 44.605 36.9054 45.5788C37.0155 45.8397 37.0735 46.1353 37.0735 46.4541C37.0735 47.1671 36.7894 47.6656 36.4648 47.9728C36.3489 48.083 35.8794 48.5061 35.0794 48.5061M35.0794 48.0482C35.6765 48.0482 36.2793 47.4975 36.2793 46.4541C36.2793 45.4107 35.6765 44.86 35.0794 44.86C34.4824 44.86 33.8795 45.4107 33.8795 46.4541C33.8795 47.4975 34.4824 48.0482 35.0794 48.0482Z" fill="white"/>
<path d="M12.3621 44.5295C12.5708 44.5179 13.4461 44.5063 13.4519 44.5063C14.1127 44.5063 14.3678 44.6339 14.588 44.8599C14.7967 45.0686 14.9068 45.3411 14.8953 45.6251C14.8895 45.8975 14.7735 46.1584 14.5822 46.3497C14.3794 46.5526 14.1301 46.6453 14.0373 46.6801L15.4807 48.3785H14.5996L13.2954 46.7728H13.0577V48.3785H12.3447V44.5295H12.3621ZM13.3649 44.9237C13.278 44.9237 13.1794 44.9295 13.0809 44.9469H13.0751V46.3033C13.1794 46.3207 13.278 46.3323 13.3707 46.3323C13.9446 46.3323 14.2112 45.9613 14.2112 45.6193C14.2112 45.5729 14.2055 45.3295 14.0142 45.144C13.8692 44.9991 13.649 44.9237 13.3649 44.9237Z" fill="white"/>
<path d="M25.0225 48.3727V44.5295H25.7412V47.8626H27.3295L27.3237 48.3727H25.0225Z" fill="white"/>
<path d="M40.7195 48.3727C40.5572 48.1698 39.4094 46.9062 38.3197 45.6889V48.3727H37.7632V44.5295H38.1574L40.5224 47.0917V44.5295H41.0731V48.3727H40.7195Z" fill="white"/>
<path d="M49.1246 48.3727V45.0512C48.5217 45.057 48.1507 45.1034 47.9131 45.1266V44.5295H51.0027V45.1266C50.823 45.1034 50.4752 45.057 49.8434 45.0512V48.3727H49.1304H49.1246Z" fill="white"/>
<path d="M42.6441 47.8625V46.622H44.018V46.1525H42.6441V45.0163C42.963 45.0163 43.4267 45.0163 44.2092 45.0627V44.5178H41.9312V48.361H44.273V47.7987C43.7571 47.8277 43.16 47.8567 42.6441 47.8567" fill="white"/>
<path d="M52.2081 47.8625V46.622H53.5819V46.1525H52.2081V45.0163C52.5269 45.0163 52.9907 45.0163 53.7732 45.0627V44.5178H51.4951V48.361H53.837V47.7987C53.3211 47.8277 52.724 47.8567 52.2081 47.8567" fill="white"/>
<path d="M23.544 44.5295C23.5672 46.0077 23.5556 46.5932 23.5556 46.5932C23.5556 47.0743 23.5266 47.938 22.5992 47.938C22.2688 47.938 21.6137 47.8858 21.6137 46.7902C21.6137 45.799 21.6369 44.5759 21.6369 44.5353H20.8892C20.8892 44.5817 20.8892 45.7063 20.8892 46.7902C20.8892 48.3669 22.1586 48.4307 22.4716 48.4307C23.3817 48.4307 24.0947 48.0133 24.1121 46.7555V44.5295H23.544Z" fill="white"/>
<path d="M7.24377 45.0802V44.5295H4.90771V48.3727H5.6207V46.7207H7.06987V46.2164H5.6207V45.0223C6.33949 45.0223 6.75685 45.0454 7.24377 45.0744" fill="white"/>
<path d="M44.9162 44.6339H44.6206V44.489H45.4032V44.6339H45.1075V45.486H44.9162V44.6339Z" fill="white"/>
<path d="M46.4174 45.0801C46.4174 44.9468 46.4 44.7961 46.4 44.657C46.371 44.7845 46.3247 44.9178 46.2725 45.0396L46.1218 45.4685H45.9711L45.8319 45.0396C45.7914 44.912 45.7566 44.7729 45.7276 44.6512C45.7276 44.7845 45.7218 44.941 45.7102 45.0801L45.687 45.4859H45.5073L45.5769 44.4831H45.8261L45.9595 44.8889C46 45.0048 46.029 45.1207 46.0522 45.2309C46.0812 45.1207 46.116 44.999 46.1565 44.8773L46.2957 44.4773H46.5449L46.6087 45.4801H46.4232L46.4 45.0743H46.4058L46.4174 45.0801Z" fill="white"/>
<path d="M22.7151 14.0046H23.3759L23.0455 13.1467L22.7151 14.0046ZM22.0253 14.8451L22.9876 12.5554H23.2368L24.1991 14.8451H23.6948L23.4745 14.2712H22.6108L22.3847 14.8451H22.0195H22.0253ZM24.3382 14.735L24.2976 14.3234C24.5179 14.5089 24.7498 14.6016 24.9932 14.6016C25.1323 14.6016 25.2367 14.5727 25.3062 14.5205C25.4396 14.4161 25.4396 14.2306 25.341 14.1147C25.2599 14.0162 25.1149 13.9524 24.7671 13.7901C24.4599 13.6452 24.3034 13.4249 24.3034 13.1467C24.3034 12.9496 24.373 12.7931 24.5063 12.6771C24.8019 12.4221 25.2888 12.5206 25.341 12.5264C25.4338 12.5438 25.5265 12.5728 25.6135 12.6076L25.654 13.0018C25.5497 12.9264 25.4511 12.8742 25.3584 12.8395C25.0454 12.7235 24.7092 12.7989 24.7092 13.0713C24.7092 13.2046 24.7961 13.2916 24.97 13.3843C25.37 13.5872 25.5613 13.6684 25.7062 13.8481C25.8801 14.0683 25.8917 14.5031 25.6077 14.7234C25.4627 14.8393 25.2541 14.8973 24.9932 14.8973C24.6512 14.8973 24.4193 14.7929 24.3324 14.7408L24.3382 14.735ZM26.5177 14.8451V12.8337C26.3322 12.8337 26.1294 12.851 25.8337 12.8858L25.8569 12.5496H27.6191L27.6423 12.8858C27.2597 12.8395 27.0568 12.8337 26.9525 12.8337V14.8451H26.5177ZM28.8074 14.6132C29.161 14.6132 29.4856 14.3292 29.4856 13.6974C29.4856 13.6452 29.4972 13.1351 29.1668 12.8916C29.0625 12.8163 28.9465 12.7815 28.8074 12.7815C28.3321 12.7815 28.1292 13.222 28.1292 13.6974C28.1292 14.3234 28.4538 14.6132 28.8074 14.6132ZM28.8074 14.8973C28.1234 14.8973 27.6539 14.3988 27.6539 13.7032C27.6539 13.0076 28.1292 12.509 28.8074 12.509C29.4856 12.509 29.9609 12.996 29.9609 13.7032C29.9609 14.4103 29.4914 14.8973 28.8074 14.8973ZM30.3145 14.8451V12.5554H30.5522L31.9202 14.1089V12.5554H32.2448V14.8451H32.0014L30.6334 13.2858V14.8451H30.3087H30.3145ZM33.4679 14.8451L33.723 12.5554H33.9548L34.7722 14.1553L35.5605 12.5554H35.7924L36.0474 14.8451H35.5837L35.4504 13.4307L34.8069 14.7524H34.5925L33.9432 13.4481L33.8099 14.8451H33.4621H33.4679ZM36.9343 14.0046H37.5951L37.2647 13.1467L36.9343 14.0046ZM36.2445 14.8451L37.2068 12.5554H37.456L38.4183 14.8451H37.9139L37.6937 14.2712H36.83L36.6039 14.8451H36.2387H36.2445ZM39.0617 13.593C39.1254 13.6046 39.1834 13.6104 39.2472 13.6104C39.6182 13.6104 39.7109 13.3959 39.7109 13.2104C39.7109 12.9322 39.5138 12.8105 39.224 12.8105C39.1718 12.8105 39.1197 12.8105 39.0617 12.8221V13.593ZM38.6269 14.8451V12.5728C38.7545 12.5554 38.9052 12.5438 39.1428 12.5438C39.3457 12.5438 39.5254 12.567 39.6761 12.6134C39.8964 12.6829 40.1573 12.8395 40.1573 13.1873C40.1573 13.3322 40.1109 13.4597 40.0239 13.5698C39.937 13.68 39.8095 13.7611 39.6529 13.8075L40.4587 14.8393H39.9312L39.2124 13.8597H39.0675V14.8393H38.6327L38.6269 14.8451ZM40.992 14.8451V12.8337C40.8065 12.8337 40.6036 12.851 40.308 12.8858L40.3312 12.5496H42.0933L42.1165 12.8858C41.7397 12.8395 41.5311 12.8337 41.4267 12.8337V14.8451H40.992ZM42.4179 12.5554H42.8527V14.8451H42.4179V12.5554ZM43.3048 14.8451V12.5554H43.5425L44.9105 14.1089V12.5554H45.2351V14.8451H44.9917L43.6237 13.2858V14.8451H43.299H43.3048Z" fill="white"/>
<path d="M61.5757 9.87152C61.425 9.61067 61.1351 9.45996 60.7757 9.45996H38.2442C37.8616 9.45996 37.2877 9.45996 36.6907 10.057C36.4936 10.2541 36.3892 10.4454 36.2907 10.6193C36.1052 10.9497 35.9719 11.1932 35.3574 11.1932H32.0765C31.4621 11.1932 31.3288 10.9555 31.1433 10.6193C31.0447 10.4454 30.9404 10.2541 30.7433 10.057C30.1462 9.45996 29.5724 9.45996 29.1898 9.45996H6.65821C6.29882 9.45996 6.00899 9.61067 5.85827 9.87152C5.71336 10.1324 5.73075 10.4686 5.91044 10.7642L6.31621 11.4424C6.53648 11.8192 6.82052 11.8772 7.03499 11.9177C7.22628 11.9583 7.34221 11.9815 7.48713 12.2366L7.84652 12.8626C8.12476 13.3785 8.45517 13.4423 8.69863 13.4886C8.88412 13.5234 9.06382 13.5408 9.30148 13.9756C9.53335 14.3987 9.88695 15.0363 10.7333 15.2914C10.8144 15.3146 19.1268 17.7376 19.1384 17.7434C20.0137 18.0274 20.2456 18.352 20.518 18.752C20.6803 18.9897 21.1093 19.6273 22.1816 19.9171L30.1752 22.0793C31.0273 22.3111 31.5722 21.8938 31.8215 21.6735L33.2706 20.2997C33.4677 20.1084 33.5952 20.0388 33.717 20.0388C33.8387 20.0388 33.9662 20.1142 34.1633 20.2997L35.6125 21.6735C35.8617 21.8938 36.4066 22.3111 37.2587 22.0793L45.2523 19.9171C46.3189 19.6273 46.7536 18.9954 46.916 18.752C47.1884 18.352 47.4145 18.0274 48.2956 17.7434C48.3071 17.7434 56.6195 15.3146 56.7007 15.2914C57.5528 15.0363 57.9006 14.3987 58.1325 13.9756C58.3585 13.5582 58.5324 13.5292 58.7121 13.4944C58.9498 13.4481 59.3034 13.4017 59.5874 12.8684L59.9468 12.2424C60.0975 11.9815 60.2077 11.9583 60.399 11.9235C60.6076 11.883 60.8975 11.825 61.1177 11.4482L61.5235 10.77C61.7032 10.4744 61.7206 10.1382 61.5757 9.87732V9.87152ZM46.1856 11.7265V15.674H21.2484V11.7265H46.1856ZM37.2413 21.4706C36.6269 21.4706 36.4124 20.9431 36.2559 20.5316C36.0762 20.062 35.0908 16.955 34.8183 16.1029H36.0472C36.7138 17.2275 37.9253 19.2447 38.4528 20.0736C38.5456 20.2185 38.8122 20.6765 39.2991 20.9605C37.4036 21.4706 37.45 21.4764 37.2413 21.4764V21.4706ZM40.1513 20.6707C39.4615 20.6707 39.1021 20.1374 38.8818 19.7954C38.4297 19.0882 37.4094 17.384 36.6385 16.0971H38.0065C38.8702 17.013 40.6903 18.9433 41.4033 19.6621C41.5135 19.7722 41.7453 20.0157 42.0757 20.2012C40.4179 20.6475 40.4063 20.6707 40.1513 20.6707ZM42.9452 19.9287C42.4062 19.9287 42.0352 19.5751 41.7627 19.3027C41.1309 18.6708 39.6354 17.0884 38.7021 16.0971H40.1976C41.1483 16.7927 43.3394 18.4042 44.1973 18.9897C44.3538 19.0998 44.6669 19.2911 45.032 19.4012C43.1076 19.9229 43.1481 19.9229 42.9452 19.9229V19.9287ZM46.458 18.4448C46.2088 18.81 46.0291 18.9897 45.6117 18.9897C45.2291 18.9897 44.8118 18.7984 44.4872 18.5723C43.7742 18.0854 42.1337 16.8855 41.0555 16.0971H42.8351C45.0146 17.1869 45.9305 17.668 46.5566 17.8535C46.6667 17.8883 46.771 17.9115 46.8696 17.9231C46.7073 18.0854 46.5913 18.2535 46.4638 18.439L46.458 18.4448ZM47.1188 17.4362C46.6203 17.4362 45.9711 17.1057 43.9655 16.1029H45.9073L48.6318 16.7985C48.8173 16.8449 48.9911 16.8855 49.1477 16.9202C47.6231 17.3666 47.3913 17.4362 47.1188 17.4362ZM52.446 15.958C50.8345 16.4275 50.5736 16.5319 50.1215 16.5319C49.8201 16.5319 49.4201 16.4739 48.7651 16.3058L46.6203 15.7551V14.99L52.4517 15.958H52.446ZM54.1096 15.4711C53.5937 15.5986 53.1184 15.558 52.3648 15.4247L46.6203 14.4683V13.8596L56.0167 14.9146L54.1154 15.4711H54.1096ZM57.6513 13.7089C57.576 13.8422 57.5064 13.9698 57.4253 14.0857C57.1007 14.532 56.8978 14.5088 55.8892 14.3929L46.6145 13.3495V12.7756L57.3093 13.4017C57.3905 13.4017 57.605 13.4191 57.8252 13.4365C57.7673 13.5118 57.7093 13.6046 57.6513 13.7089ZM59.4657 11.9641C59.4657 11.9641 59.2686 12.3119 59.1643 12.4916C58.8512 12.9959 58.7005 12.9901 57.7905 12.9264L46.6087 12.2655V11.8018H59.5642C59.5295 11.8482 59.4947 11.9061 59.4599 11.9641H59.4657ZM61.054 10.486L60.7583 10.9729C60.5555 11.2975 60.4743 11.2975 59.7787 11.2975H36.4994C36.7486 11.0135 36.8124 10.7178 37.079 10.4512C37.5196 10.0106 37.8964 10.0164 38.2442 10.0164H60.7757C60.9323 10.0164 61.0482 10.0628 61.0946 10.1498C61.1409 10.2367 61.1293 10.3642 61.054 10.4918V10.486ZM31.3461 21.3431C31.4447 21.1982 31.5316 21.0127 31.6534 20.7055C31.8331 20.2185 32.8591 17.0072 33.1489 16.0971H34.285C34.5749 17.0072 35.6009 20.2185 35.7806 20.7055C35.8965 21.0185 35.9893 21.204 36.0878 21.3431C36.053 21.3199 36.0182 21.2909 35.9835 21.2561L34.5401 19.8881C34.314 19.6737 34.059 19.4766 33.717 19.4766C33.375 19.4766 33.1199 19.6737 32.8939 19.8881L31.4505 21.2561C31.4157 21.2851 31.3809 21.3141 31.3461 21.3431ZM28.1348 20.9547C28.6217 20.6765 28.8884 20.2185 28.9811 20.0678C29.5086 19.2389 30.7143 17.2217 31.3867 16.0971H32.6156C32.3432 16.9492 31.3519 20.0504 31.178 20.5258C31.0215 20.9373 30.8071 21.4648 30.1926 21.4648C29.9839 21.4648 30.0303 21.4648 28.1348 20.9489V20.9547ZM25.3582 20.2069C25.6944 20.0215 25.9263 19.778 26.0306 19.6679C26.7494 18.9491 28.5695 17.0188 29.4275 16.1029H30.7955C30.0303 17.3898 29.0043 19.094 28.5522 19.8012C28.3319 20.1432 27.9725 20.6765 27.2827 20.6765C27.0218 20.6765 27.016 20.6591 25.3582 20.2069ZM22.4019 19.407C22.7671 19.2911 23.0743 19.1056 23.2366 18.9955C24.0945 18.41 26.2915 16.7985 27.2363 16.1029H28.7319C27.7986 17.0941 26.3031 18.6766 25.6712 19.3085C25.4046 19.5751 25.0278 19.9345 24.4887 19.9345C24.2858 19.9345 24.3264 19.9345 22.4019 19.4128V19.407ZM20.5702 17.9289C20.6687 17.9173 20.7731 17.8941 20.8832 17.8593C21.5092 17.6796 22.4251 17.1927 24.6046 16.1029H26.3842C25.3118 16.8913 23.6656 18.0854 22.9526 18.5781C22.6222 18.8042 22.2106 18.9955 21.828 18.9955C21.4107 18.9955 21.231 18.8158 20.9817 18.4506C20.8542 18.2651 20.7383 18.097 20.576 17.9347L20.5702 17.9289ZM18.2863 16.9202C18.4428 16.8855 18.6167 16.8449 18.8022 16.7985L21.5266 16.1029H23.4685C21.4629 17.1115 20.8136 17.4362 20.3151 17.4362C20.0427 17.4362 19.8108 17.3608 18.2863 16.9202ZM20.8194 14.99V15.7551L18.6747 16.3C18.0254 16.4681 17.6255 16.5261 17.3182 16.5261C16.8603 16.5261 16.6053 16.4217 14.9938 15.9522L20.8252 14.9842L20.8194 14.99ZM11.4231 14.9204L20.8194 13.8654V14.4741L15.0749 15.4305C14.3214 15.558 13.8403 15.6044 13.3302 15.4769L11.4289 14.9204H11.4231ZM9.60871 13.4365C9.82898 13.4249 10.0435 13.4075 10.1246 13.4017L20.8194 12.7756V13.3495L11.5448 14.3929C10.5362 14.5088 10.3333 14.532 10.0087 14.0857C9.92752 13.9698 9.85796 13.8422 9.7826 13.7089C9.72464 13.6046 9.66667 13.5118 9.60871 13.4365ZM7.86391 11.8018H20.8194V12.2655L9.63769 12.9264C8.73341 12.9901 8.5769 12.9959 8.26388 12.4916C8.16534 12.3119 7.96825 11.9699 7.96246 11.9641C7.92768 11.9061 7.8929 11.8482 7.85812 11.8018H7.86391ZM6.33939 10.144C6.38577 10.057 6.5017 10.0106 6.65821 10.0106H29.1898C29.5376 10.0106 29.9144 10.0106 30.3549 10.4454C30.6216 10.712 30.6853 11.0077 30.9346 11.2917H7.65523C6.95964 11.2917 6.88428 11.2917 6.6756 10.9671L6.37997 10.4802C6.30461 10.3526 6.28722 10.2251 6.33939 10.1382V10.144Z" fill="white"/>
</g>
<defs>
<clipPath id="clip0_309_1304">
<rect width="176.798" height="78.2548" fill="white" transform="translate(0.601074 0.335938)"/>
</clipPath>
</defs>
</svg>
