<svg width="178" height="59" viewBox="0 0 178 59" fill="none" xmlns="http://www.w3.org/2000/svg">
<g clip-path="url(#clip0_22_250)">
<path d="M89.9248 0H89.0933V58.6641H89.9248V0Z" fill="white"/>
<path d="M32.9783 26.9043C24.8507 26.9043 12.2702 26.9579 1.62109 27.1725V27.2262C12.2702 27.4676 25.3871 27.4944 33.5148 27.4944C41.6425 27.4944 51.7283 27.4944 64.0673 27.2262V27.1725C55.5641 26.9848 44.5126 26.9043 32.9783 26.9043Z" fill="white"/>
<path d="M57.7112 32.1887C55.0825 32.1887 52.9634 34.3346 52.9634 36.9366C52.9634 39.5385 55.1093 41.6844 57.7112 41.6844C60.3131 41.6844 62.4322 39.5385 62.4322 36.9366C62.4322 34.3346 60.3131 32.1887 57.7112 32.1887ZM57.7112 39.5117C56.2627 39.5117 55.1093 38.3314 55.1093 36.9097C55.1093 35.4881 56.2627 34.3346 57.7112 34.3346C59.1597 34.3346 60.2863 35.4881 60.2863 36.9097C60.2863 38.3314 59.1329 39.5117 57.7112 39.5117Z" fill="white"/>
<path d="M40.3031 32.0815C39.2569 32.0815 38.184 32.2961 37.3524 32.6448C36.655 32.2425 35.9844 32.0815 35.0187 32.0815C34.0531 32.0815 32.5778 32.2425 31.2634 32.6985L31.022 32.7789V41.4967H33.4093V34.3347C33.8921 34.1738 34.2677 34.1201 34.7505 34.1201C35.9308 34.1201 36.2795 34.4957 36.2795 35.7296V41.4967H38.6936V35.5686C38.6936 35.0322 38.6936 34.6834 38.5863 34.3616C39.0692 34.2006 39.4447 34.1201 39.8739 34.1201C41.0005 34.1201 41.5101 34.6298 41.5101 35.7296V41.4967H43.8975V35.5418C43.8975 34.3616 43.7097 33.6641 43.1732 33.074C42.5831 32.4302 41.5906 32.0547 40.3835 32.0547" fill="white"/>
<path d="M49.8248 39.6191C48.2422 39.6191 47.3302 38.6266 47.3302 36.9099C47.3302 35.1932 48.2422 34.147 49.8516 34.147C51.4611 34.147 50.4686 34.1738 50.7368 34.2543C50.7368 34.2543 51.2197 34.3884 51.6488 34.7371L52.6413 33.0204C52.1048 32.5644 51.4611 32.3766 51.2197 32.323C50.6027 32.1352 49.6907 32.1084 49.6907 32.1084C46.8205 32.1084 44.916 34.0934 44.916 37.044C44.916 39.9947 46.74 41.7114 49.5566 41.7114C49.5566 41.7114 51.4342 41.7919 52.7218 40.6116L51.5415 39.0826C50.8978 39.485 50.4686 39.6191 49.798 39.6191" fill="white"/>
<path d="M18.8706 32.1621C15.4908 32.1621 13.9082 33.6642 13.9082 36.8295V41.4968H16.3492V36.8026C16.3492 35.1932 17.2612 34.2007 18.6829 34.2007C20.1045 34.2007 19.729 34.308 20.0509 34.3885L20.6142 32.2694C19.6754 32.1353 18.8975 32.1353 18.8975 32.1353" fill="white"/>
<path d="M29.6269 36.5612V41.4968H26.3812C24.1279 41.4968 23.1623 41.3359 21.982 40.558C20.9627 39.8606 20.3994 38.5462 20.3994 36.8563C20.3994 35.1664 21.9552 32.1353 25.3619 32.1353C28.7685 32.1353 29.6269 33.691 29.6269 36.5612ZM27.2664 36.8295C27.2664 35.0322 26.5689 34.1471 25.1741 34.1471C23.7792 34.1471 22.8404 35.1932 22.8404 36.749C22.8404 38.3048 23.7524 39.485 25.7642 39.485H27.2395V36.8026L27.2664 36.8295Z" fill="white"/>
<path d="M12.5668 36.5612V41.4968H9.34796C7.09474 41.4968 6.12908 41.3359 4.94883 40.558C3.92951 39.8606 3.36621 38.5462 3.36621 36.8563C3.36621 35.1664 4.922 32.1353 8.32865 32.1353C11.7353 32.1353 12.5668 33.691 12.5668 36.5612ZM10.1259 36.8295C10.1259 35.0054 9.48208 34.1471 8.06041 34.1471C6.63874 34.1471 5.72672 35.1932 5.72672 36.749C5.72672 38.3048 6.63874 39.485 8.65054 39.485H10.099V36.8026L10.1259 36.8295Z" fill="white"/>
<path d="M21.5509 13.9752H22.2215L21.8728 13.09L21.5241 13.9752H21.5509ZM20.8535 14.8336L21.846 12.4731H22.1142L23.1067 14.8336H22.5971L22.3825 14.2435H21.4973L21.2559 14.8336H20.8803H20.8535ZM23.2409 14.7263V14.2971C23.4286 14.4849 23.67 14.5922 23.9115 14.5922C24.1529 14.5922 24.1529 14.5654 24.2333 14.5117C24.3675 14.4044 24.3675 14.2166 24.2602 14.1093C24.1797 14.002 24.0187 13.9484 23.67 13.7875C23.3481 13.6265 23.1872 13.4119 23.1872 13.1169C23.1872 12.8218 23.2677 12.7413 23.4018 12.634C23.6969 12.3658 24.2065 12.4731 24.2602 12.4731C24.3675 12.4731 24.4479 12.5267 24.5284 12.5536V12.9559C24.4479 12.8754 24.3675 12.8218 24.2602 12.795C23.9383 12.6877 23.5896 12.7681 23.5896 13.0364C23.5896 13.3046 23.67 13.251 23.8578 13.3583C24.2602 13.5729 24.4748 13.6533 24.6089 13.8411C24.7966 14.0557 24.7966 14.5117 24.5016 14.7263C24.3406 14.8336 24.1529 14.9141 23.8846 14.9141C23.6164 14.9141 23.2945 14.8068 23.214 14.7531L23.2409 14.7263ZM25.4672 14.8336V12.7681C25.2795 12.7681 25.0649 12.7681 24.7698 12.8218V12.4731H26.5938V12.8218C26.2183 12.7681 26.0305 12.7681 25.9232 12.7681V14.8336H25.4672ZM27.8278 14.5922C28.2033 14.5922 28.5252 14.2971 28.5252 13.6533C28.5252 13.0096 28.5252 13.09 28.2033 12.8218C28.096 12.7413 27.9887 12.7145 27.8278 12.7145C27.3449 12.7145 27.1303 13.1705 27.1303 13.6533C27.1303 14.1362 27.4522 14.5922 27.8278 14.5922ZM27.8278 14.8872C27.1303 14.8872 26.6475 14.3776 26.6475 13.6533C26.6475 12.9291 27.1303 12.4194 27.8278 12.4194C28.5252 12.4194 29.008 12.9291 29.008 13.6533C29.008 14.3776 28.5252 14.8872 27.8278 14.8872ZM29.3567 14.8336V12.4731H29.5981L30.993 14.0825V12.4731H31.3149V14.8336H31.0735L29.6786 13.2242V14.8336H29.3567ZM32.6024 14.8336L32.8707 12.4731H33.1121L33.9436 14.1093L34.7483 12.4731H34.9898L35.258 14.8336H34.7752L34.641 13.3851L33.9704 14.7531H33.7559L33.0853 13.4119L32.9511 14.8604H32.6024V14.8336ZM36.1432 13.9752H36.8138L36.4651 13.09L36.1164 13.9752H36.1432ZM35.4458 14.8336L36.4383 12.4731H36.7065L37.699 14.8336H37.1893L36.9747 14.2435H36.0895L35.8481 14.8336H35.4726H35.4458ZM38.3428 13.546C38.3964 13.546 38.4769 13.546 38.5305 13.546C38.9061 13.546 39.0134 13.3314 39.0134 13.1437C39.0134 12.8486 38.7988 12.7413 38.5037 12.7413C38.2086 12.7413 38.3964 12.7413 38.3428 12.7413V13.546ZM37.8867 14.8336V12.4999C38.0209 12.4999 38.1818 12.4731 38.4232 12.4731C38.6646 12.4731 38.8256 12.4731 38.9597 12.5536C39.1743 12.634 39.4425 12.795 39.4425 13.1437C39.4425 13.4924 39.3889 13.4119 39.3084 13.546C39.2279 13.6533 39.0938 13.7338 38.9329 13.7875L39.7644 14.8604H39.2279L38.5037 13.8679H38.3428V14.8604H37.8867V14.8336ZM40.3277 14.8336V12.7681C40.14 12.7681 39.9254 12.7681 39.6303 12.8218V12.4731H41.4543V12.8218C41.0788 12.7681 40.891 12.7681 40.7837 12.7681V14.8336H40.3277ZM41.7762 12.4731H42.2322V14.8336H41.7762V12.4731ZM42.6882 14.8336V12.4731H42.9297L44.3245 14.0825V12.4731H44.6464V14.8336H44.405L43.0101 13.2242V14.8336H42.6882Z" fill="white"/>
<path d="M61.4385 9.73704C61.2775 9.4688 60.9824 9.30786 60.6069 9.30786H37.4846C37.0823 9.30786 36.4921 9.30786 35.902 9.92481C35.7143 10.1126 35.5801 10.3272 35.4997 10.4881C35.3119 10.8368 35.1778 11.0782 34.534 11.0782H31.1542C30.5104 11.0782 30.3763 10.8368 30.1885 10.4881C30.0812 10.3003 29.9739 10.1126 29.7862 9.92481C29.1692 9.30786 28.5791 9.30786 28.2035 9.30786H5.08127C4.70573 9.30786 4.41067 9.4688 4.24972 9.73704C4.08878 10.0053 4.1156 10.354 4.30337 10.6491L4.73255 11.3465C4.94715 11.722 5.24221 11.8025 5.4568 11.8293C5.64457 11.8561 5.77869 11.883 5.91281 12.1512L6.28834 12.795C6.58341 13.3315 6.9053 13.3851 7.17354 13.4388C7.3613 13.4656 7.54907 13.4924 7.79049 13.9484C8.0319 14.3776 8.38061 15.0482 9.26581 15.2896C9.34628 15.2896 17.8763 17.8111 17.9031 17.8111C18.7883 18.1061 19.0297 18.428 19.3248 18.8572C19.4857 19.0986 19.9418 19.7692 21.0415 20.0643L29.2497 22.2907C30.1349 22.5321 30.6713 22.1029 30.9396 21.8615L32.4149 20.4398C32.6295 20.252 32.7368 20.1716 32.8709 20.1716C33.005 20.1716 33.1123 20.252 33.3269 20.4398L34.8022 21.8615C35.0705 22.0761 35.607 22.5053 36.4921 22.2907L44.7003 20.0643C45.8001 19.7692 46.2293 19.1254 46.417 18.8572C46.6853 18.4548 46.9267 18.1061 47.8387 17.8111C47.8387 17.8111 56.3687 15.3164 56.476 15.2896C57.3612 15.0214 57.7099 14.3776 57.9513 13.9484C58.1928 13.5192 58.3537 13.4924 58.5415 13.4656C58.7829 13.4119 59.1584 13.3583 59.4535 12.8218L59.829 12.178C59.99 11.9098 60.0973 11.883 60.285 11.8561C60.4996 11.8025 60.7947 11.7488 61.0093 11.3733L61.4385 10.6759C61.6262 10.3808 61.653 10.0321 61.4921 9.76387L61.4385 9.73704ZM45.6391 11.6415V15.692H20.049V11.6415H45.6391ZM36.4653 21.6201C35.8215 21.6201 35.607 21.0836 35.446 20.6544C35.2582 20.1716 34.2389 16.9795 33.9707 16.1212H35.2314C35.9288 17.2746 37.1628 19.34 37.6992 20.1984C37.8065 20.3593 38.0748 20.8154 38.5576 21.1104C36.6263 21.6469 36.6531 21.6469 36.4385 21.6469L36.4653 21.6201ZM39.4428 20.8154C38.7454 20.8154 38.3698 20.2789 38.1284 19.9033C37.6724 19.1791 36.6263 17.4355 35.8215 16.1212H37.2164C38.1016 17.06 39.9793 19.045 40.7035 19.7692C40.8108 19.8765 41.0522 20.1448 41.4009 20.3325C39.6842 20.7885 39.6842 20.8154 39.416 20.8154H39.4428ZM42.313 20.0375C41.7496 20.0375 41.3741 19.6619 41.1059 19.3937C40.4621 18.7499 38.9331 17.1136 37.9675 16.0943H39.4964C40.4621 16.8186 42.7153 18.4548 43.6005 19.0718C43.7615 19.1791 44.0833 19.3669 44.4589 19.501C42.4739 20.0375 42.5275 20.0375 42.313 20.0375ZM45.9342 18.5353C45.6928 18.9108 45.505 19.0986 45.0758 19.0986C44.6466 19.0986 44.2443 18.9108 43.9224 18.6694C43.1981 18.1598 41.5082 16.9527 40.4085 16.1212H42.2325C44.4589 17.2478 45.3977 17.7306 46.0415 17.9184C46.1488 17.9452 46.2561 17.972 46.3634 17.9988C46.2024 18.1598 46.0683 18.3475 45.9342 18.5353ZM46.6048 17.4892C46.0951 17.4892 45.4245 17.1405 43.3591 16.1212H45.3441L48.1338 16.8454C48.3215 16.899 48.5093 16.9259 48.6702 16.9795C47.1144 17.4355 46.873 17.516 46.578 17.516L46.6048 17.4892ZM52.0769 15.987C50.4138 16.4699 50.1456 16.5772 49.6895 16.5772C49.2335 16.5772 48.9653 16.5235 48.2947 16.3357L46.0951 15.7724V14.9945L52.0769 15.987ZM53.7668 15.4774C53.2303 15.6115 52.7475 15.5578 51.9696 15.4237L46.0683 14.4312V13.8143L55.6981 14.8872L53.74 15.4506L53.7668 15.4774ZM57.4149 13.6802C57.3344 13.8143 57.2539 13.9484 57.1734 14.0557C56.8247 14.5117 56.637 14.4849 55.5908 14.3776L46.0683 13.3046V12.7145L57.0393 13.3583C57.1198 13.3583 57.3344 13.3583 57.5758 13.3851C57.5222 13.4656 57.4685 13.5461 57.388 13.6802H57.4149ZM59.2657 11.883C59.2657 11.883 59.0511 12.2317 58.9706 12.4194C58.6488 12.9291 58.4878 12.9291 57.5758 12.8755L46.0951 12.2049V11.722H59.3998C59.373 11.7757 59.3194 11.8293 59.2925 11.883H59.2657ZM60.902 10.354L60.6069 10.8637C60.3923 11.1855 60.3118 11.1855 59.6144 11.1855H35.7411C36.0093 10.8905 36.063 10.5954 36.3312 10.3272C36.7872 9.87116 37.1627 9.87116 37.5383 9.87116H60.6606C60.8215 9.87116 60.9288 9.92481 60.9824 10.0053C61.0361 10.0858 61.0093 10.2199 60.9288 10.354H60.902ZM30.4299 21.5128C30.5372 21.3787 30.6177 21.1641 30.7518 20.869C30.9396 20.3593 31.9857 17.0868 32.2808 16.148H33.4342C33.7293 17.0868 34.7754 20.3862 34.9632 20.869C35.0705 21.1909 35.1778 21.3787 35.2851 21.5128C35.2582 21.5128 35.2046 21.4591 35.1778 21.4323L33.7025 20.0375C33.461 19.8229 33.2196 19.6083 32.8709 19.6083C32.5222 19.6083 32.254 19.8229 32.0394 20.0375L30.564 21.4323C30.5372 21.4591 30.4836 21.4859 30.4568 21.5128H30.4299ZM27.1306 21.1104C27.6402 20.8154 27.9085 20.3593 27.9889 20.1984C28.5254 19.34 29.7593 17.2746 30.4568 16.1212H31.7175C31.4492 17.0063 30.4299 20.1716 30.2422 20.6544C30.0812 21.0836 29.8666 21.6201 29.2228 21.6201C29.0083 21.6201 29.0619 21.6201 27.1038 21.0836L27.1306 21.1104ZM24.2872 20.3325C24.6359 20.1448 24.8774 19.8765 24.9847 19.7692C25.7089 19.045 27.5866 17.06 28.4718 16.1212H29.8666C29.0887 17.4355 28.0426 19.1791 27.5598 19.9033C27.3452 20.252 26.9696 20.8154 26.2454 20.8154C25.9771 20.8154 25.9771 20.8154 24.2604 20.3325H24.2872ZM21.2561 19.501C21.6317 19.3937 21.9535 19.1791 22.1145 19.0718C22.9997 18.4817 25.2529 16.8186 26.2186 16.0943H27.7475C26.7819 17.1136 25.2529 18.7231 24.6091 19.3937C24.3409 19.6619 23.9385 20.0375 23.402 20.0375C22.8656 20.0375 23.2411 20.0375 21.2561 19.501ZM19.3516 17.9988C19.4589 17.9988 19.5662 17.972 19.6735 17.9184C20.3173 17.7306 21.2561 17.2209 23.4825 16.1212H25.3065C24.2068 16.9259 22.5169 18.1598 21.7926 18.6694C21.4439 18.9108 21.0415 19.0986 20.6392 19.0986C20.2368 19.0986 20.0222 18.9108 19.7808 18.5353C19.6467 18.3475 19.5394 18.1598 19.3516 17.9988ZM17.0179 16.9527C17.1789 16.9259 17.3666 16.8722 17.5544 16.8186L20.3441 16.0943H22.3291C20.2636 17.1405 19.6199 17.4624 19.0834 17.4624C18.8151 17.4624 18.5737 17.3819 16.9911 16.9259L17.0179 16.9527ZM19.6199 14.9677V15.7456L17.4203 16.3089C16.7497 16.4967 16.3473 16.5503 16.0255 16.5503C15.5694 16.5503 15.3012 16.443 13.6381 15.9602L19.6199 14.9677ZM9.99005 14.9141L19.6199 13.8411V14.4581L13.7186 15.4506C12.9407 15.5847 12.4579 15.6383 11.9214 15.5042L9.96323 14.9409L9.99005 14.9141ZM8.11238 13.3851C8.32697 13.3851 8.56838 13.3583 8.64885 13.3583L19.6199 12.7145V13.3046L10.0974 14.3776C9.05121 14.4849 8.86345 14.5117 8.51473 14.0557C8.43426 13.9216 8.35379 13.8143 8.27332 13.6802C8.21967 13.5729 8.16602 13.4656 8.08555 13.3851H8.11238ZM6.31517 11.722H19.6199V12.2049L8.1392 12.8755C7.20036 12.9291 7.03942 12.9559 6.74435 12.4194C6.63706 12.2317 6.44929 11.883 6.44929 11.883C6.42246 11.8293 6.36882 11.7757 6.34199 11.722H6.31517ZM4.75938 10.0053C4.81303 9.92481 4.92032 9.87116 5.08127 9.87116H28.2035C28.5522 9.87116 28.9546 9.87116 29.4106 10.3272C29.6789 10.5954 29.7593 10.9173 30.0007 11.1855H6.10058C5.37633 11.1855 5.29586 11.1855 5.10809 10.8637L4.81303 10.354C4.73255 10.2199 4.70573 10.0858 4.75938 10.0053Z" fill="white"/>
<path d="M28.5244 45.1982H28.2293L26.4321 49.2218H27.1296C27.21 48.9804 27.2905 48.7122 27.5319 48.0952H29.0072C29.195 48.5244 29.3291 48.9268 29.4364 49.2218H30.2948L28.578 45.1982H28.5244ZM28.2562 46.3785C28.6853 47.371 28.6853 47.371 28.7926 47.6392H27.7197C27.827 47.371 27.827 47.371 28.2562 46.3785Z" fill="white"/>
<path d="M55.8589 45.1982H55.5638L53.7666 49.2218H54.464C54.5445 48.9804 54.625 48.7122 54.8664 48.0952H56.3417C56.5295 48.5244 56.6636 48.9268 56.7709 49.2218H57.6293L55.9125 45.1982H55.8589ZM55.5906 46.3785C56.0198 47.371 56.0198 47.371 56.1271 47.6392H55.0542C55.1614 47.371 55.1614 47.371 55.5906 46.3785Z" fill="white"/>
<path d="M18.251 49.2485C18.1437 47.9878 18.0632 47.2367 18.0095 46.7539C17.3389 47.961 17.0439 48.5779 16.7756 49.1949H16.5611C15.8905 47.8001 15.81 47.6659 15.649 47.3709C15.5686 47.2368 15.5149 47.1026 15.354 46.7807C15.3271 47.0222 15.193 48.1219 15.1126 49.2485H14.4956C14.6834 47.8269 15.0053 45.4395 15.0053 45.3054H15.3808C15.4344 45.4127 15.4881 45.52 15.5417 45.6273C15.9977 46.5393 16.3465 47.2367 16.7756 47.9878C16.9634 47.6391 17.1512 47.2904 17.3121 46.9685C17.5804 46.4589 17.8486 45.9492 18.2241 45.3054H18.546C18.546 45.4395 18.7874 47.3709 19.002 49.2485H18.2241H18.251Z" fill="white"/>
<path d="M61.6518 49.2485C61.5445 47.9878 61.464 47.2367 61.4104 46.7539C60.7398 47.961 60.4447 48.5779 60.1765 49.1949H59.9619C59.2913 47.8001 59.2108 47.6659 59.0499 47.3709C58.9694 47.2368 58.9158 47.1026 58.728 46.7807C58.7012 47.0222 58.5671 48.1219 58.4866 49.2485H57.8696C58.0574 47.8269 58.3793 45.4395 58.3793 45.3054H58.7548C58.8085 45.4127 58.8621 45.52 58.9158 45.6273C59.3718 46.5393 59.7205 47.2367 60.1497 47.9878C60.3374 47.6391 60.5252 47.2904 60.6861 46.9685C60.9544 46.4589 61.2226 45.9492 61.5982 45.3054H61.9201C61.9201 45.4395 62.1615 47.3709 62.3761 49.2485H61.5982H61.6518Z" fill="white"/>
<path d="M8.19243 49.3828C7.36089 49.3828 6.87806 48.9536 6.77076 48.8463C6.44887 48.5244 6.15381 48.0148 6.15381 47.2905C6.15381 46.5663 6.44887 46.0566 6.77076 45.7347C6.87806 45.6274 7.36089 45.1982 8.19243 45.1982C9.02397 45.1982 9.64093 45.4128 10.0701 46.4053C10.1774 46.6736 10.2311 46.9686 10.2311 47.2905C10.2311 48.0148 9.93599 48.5244 9.6141 48.8463C9.50681 48.9536 9.02397 49.3828 8.19243 49.3828ZM8.19243 48.9C8.80938 48.9 9.42633 48.3366 9.42633 47.2637C9.42633 46.1907 8.80938 45.6274 8.19243 45.6274C7.57548 45.6274 6.95853 46.1907 6.95853 47.2637C6.95853 48.3366 7.57548 48.9 8.19243 48.9Z" fill="white"/>
<path d="M34.2378 49.3828C33.4063 49.3828 32.9235 48.9536 32.8162 48.8463C32.4943 48.5244 32.1992 48.0148 32.1992 47.2905C32.1992 46.5663 32.4943 46.0566 32.8162 45.7347C32.9235 45.6274 33.4063 45.1982 34.2378 45.1982C35.0694 45.1982 35.6863 45.4128 36.1155 46.4053C36.2228 46.6736 36.2765 46.9686 36.2765 47.2905C36.2765 48.0148 35.9814 48.5244 35.6595 48.8463C35.5522 48.9536 35.0694 49.3828 34.2378 49.3828ZM34.2378 48.9C34.8548 48.9 35.4717 48.3366 35.4717 47.2637C35.4717 46.1907 34.8548 45.6274 34.2378 45.6274C33.6209 45.6274 33.0039 46.1907 33.0039 47.2637C33.0039 48.3366 33.6209 48.9 34.2378 48.9Z" fill="white"/>
<path d="M10.9551 45.2788C11.1697 45.2788 12.0549 45.2788 12.0817 45.2788C12.7523 45.2788 13.0205 45.4129 13.2619 45.6275C13.4765 45.8421 13.5838 46.1104 13.5838 46.4054C13.5838 46.6737 13.4497 46.9419 13.2619 47.1565C13.0473 47.3711 12.8059 47.4516 12.6986 47.5052L14.174 49.2488H13.2619L11.9207 47.6125H11.6793V49.2488H10.9551V45.3056V45.2788ZM11.9744 45.708C11.8939 45.708 11.7866 45.708 11.6793 45.708V47.1028C11.7866 47.1028 11.8939 47.1297 11.9744 47.1297C12.5645 47.1297 12.8328 46.7541 12.8328 46.4054C12.8328 46.3518 12.8328 46.1104 12.645 45.9226C12.484 45.7616 12.2695 45.6812 11.9744 45.6812" fill="white"/>
<path d="M23.9375 49.2219V45.2788H24.6617V48.7123H26.298V49.2219H23.9375Z" fill="white"/>
<path d="M40.0326 49.2485C39.8716 49.034 38.6914 47.7464 37.5648 46.4857V49.2485H37.0015V45.3054H37.4038L39.818 47.9342V45.3054H40.3813V49.2485H40.0326Z" fill="white"/>
<path d="M48.6694 49.2485V45.8419C48.0525 45.8419 47.677 45.8955 47.4355 45.9224V45.3054H50.6008V45.9224C50.413 45.9224 50.0643 45.8419 49.4205 45.8419V49.2485H48.6963H48.6694Z" fill="white"/>
<path d="M42.0177 48.7121V47.4513H43.4126V46.9685H42.0177V45.8151C42.3396 45.8151 42.8224 45.8151 43.6271 45.8687V45.3054H41.2935V49.2485H43.7076V48.6584C43.1711 48.6852 42.5542 48.7121 42.0445 48.7121" fill="white"/>
<path d="M51.8346 48.7121V47.4513H53.2294V46.9685H51.8346V45.8151C52.1565 45.8151 52.6393 45.8151 53.444 45.8687V45.3054H51.1104V49.2485H53.5245V48.6584C52.988 48.6852 52.3711 48.7121 51.8614 48.7121" fill="white"/>
<path d="M22.4088 45.2788C22.4088 46.8078 22.4088 47.3979 22.4088 47.3979C22.4088 47.8807 22.382 48.7659 21.4163 48.7659C20.4507 48.7659 20.397 48.7123 20.397 47.5857C20.397 46.4591 20.397 45.3056 20.397 45.2788H19.6191C19.6191 45.3325 19.6191 46.4859 19.6191 47.5857C19.6191 49.1951 20.9335 49.2756 21.2554 49.2756C22.1942 49.2756 22.9185 48.8464 22.9453 47.5588V45.2788H22.3552H22.4088Z" fill="white"/>
<path d="M5.69739 45.8421V45.2788H3.31006V49.2219H4.03431V47.532H5.50963V47.0224H4.03431V45.7885C4.75855 45.7885 5.18774 45.7885 5.69739 45.8421Z" fill="white"/>
<path d="M44.8343 44.9569C45.0757 44.9569 45.2635 45.1447 45.2635 45.3861C45.2635 45.6275 45.0757 45.8153 44.8343 45.8153C44.5929 45.8153 44.4051 45.6275 44.4051 45.3861C44.4051 45.1447 44.5929 44.9569 44.8343 44.9569ZM44.8343 44.8496C44.5124 44.8496 44.271 45.1179 44.271 45.4129C44.271 45.708 44.5392 45.9762 44.8343 45.9762C45.1294 45.9762 45.3976 45.708 45.3976 45.4129C45.3976 45.1179 45.1294 44.8496 44.8343 44.8496Z" fill="white"/>
<path d="M44.942 45.4666C45.0225 45.4666 45.0493 45.3861 45.0493 45.2788C45.0493 45.1715 44.9688 45.0911 44.8615 45.0911H44.6201V45.708H44.7274V45.4666H44.8079L44.9688 45.708H45.1029L44.942 45.4398V45.4666ZM44.8615 45.3861H44.7542V45.1984H44.8615C44.9152 45.1984 44.9688 45.2252 44.9688 45.2788C44.9688 45.3325 44.9152 45.3593 44.8615 45.3593V45.3861Z" fill="white"/>
<path d="M173.59 34.4956C175.092 34.4956 176.594 33.6373 177.399 32.2424L176.084 31.3841C175.601 32.2424 174.797 32.8326 173.59 32.8326C172.383 32.8326 171.068 31.8401 171.068 30.016C171.068 28.192 172.275 27.1995 173.59 27.1995C174.904 27.1995 175.36 27.6019 176.084 28.4602L177.238 27.4409C176.835 26.8776 176.299 26.3948 175.682 26.0729C175.065 25.751 174.368 25.5633 173.67 25.5633C171.471 25.5633 169.271 27.1995 169.271 30.0429C169.271 32.8594 171.39 34.5225 173.563 34.5225L173.59 34.4956ZM167.179 24.0611C167.447 24.0611 167.715 23.9806 167.93 23.8197C168.171 23.6856 168.332 23.4442 168.439 23.2027C168.547 22.9613 168.574 22.6931 168.52 22.398C168.466 22.103 168.332 21.8884 168.144 21.7006C167.957 21.5128 167.715 21.3787 167.447 21.3251C167.179 21.2714 166.911 21.3251 166.642 21.4055C166.401 21.5128 166.186 21.6738 166.025 21.9152C165.891 22.1566 165.784 22.398 165.784 22.6663C165.784 22.9345 165.811 23.015 165.891 23.1759C165.972 23.3369 166.052 23.4978 166.186 23.6319C166.32 23.766 166.455 23.8733 166.642 23.927C166.803 23.9806 166.964 24.0343 167.152 24.0075L167.179 24.0611ZM167.635 25.8315H165.945V34.3079H167.635V25.8315ZM163.718 21.3787H161.894V34.3079H163.718V21.3787ZM156.127 25.5633C154.867 25.5633 153.928 26.0997 153.391 26.9313V21.3787H151.514V34.3079H153.391V33.2349C153.928 34.0396 154.84 34.4956 156.127 34.4956C158.568 34.4956 160.285 32.618 160.285 30.016C160.285 27.4141 158.488 25.5364 156.127 25.5364V25.5633ZM155.966 32.7789C154.276 32.7789 153.15 31.6523 153.15 30.0429C153.15 28.4334 154.276 27.3068 155.966 27.3068C157.656 27.3068 158.568 28.3798 158.568 30.0429C158.568 31.7059 157.468 32.7789 155.966 32.7789ZM145.398 34.4152C146.31 34.4152 147.034 34.0396 147.597 33.2349V34.3079H149.341V25.8583H147.544V30.7671C147.544 32.001 146.793 32.8057 145.585 32.8057C144.378 32.8057 144.003 31.9205 144.003 30.7671V25.8583H142.179V31.0353C142.179 32.9935 143.386 34.4152 145.425 34.4152H145.398ZM136.546 25.5633C135.312 25.5633 134.4 26.0997 133.622 26.9313V25.8315H131.852V37.3122H133.622V33.2081C134.373 34.0128 135.312 34.4688 136.546 34.4688C138.987 34.4688 140.73 32.457 140.73 29.9892C140.73 27.3873 138.987 25.5096 136.546 25.5096V25.5633ZM136.304 32.7789C134.561 32.7789 133.541 31.6523 133.541 30.0429C133.541 28.4334 134.588 27.3068 136.304 27.3068C138.021 27.3068 138.96 28.4871 138.96 30.0429C138.96 31.6255 137.941 32.7789 136.304 32.7789Z" fill="white"/>
<path d="M120.531 31.223C123.67 31.223 126.191 28.7016 126.191 25.5632C126.191 22.4248 123.67 19.9033 120.531 19.9033C117.393 19.9033 114.872 22.4248 114.872 25.5632C114.872 28.7016 117.393 31.223 120.531 31.223ZM117.715 38.7606C118.466 38.7606 119.19 38.4655 119.727 37.929C120.263 37.3926 120.558 36.6683 120.558 35.9172C120.558 34.3883 119.271 33.1007 117.742 33.1007C116.213 33.1007 114.898 34.3883 114.898 35.9172C114.898 37.4462 115.193 37.3926 115.73 37.929C116.266 38.4655 116.991 38.7606 117.742 38.7606H117.715Z" fill="white"/>
</g>
<defs>
<clipPath id="clip0_22_250">
<rect width="176.797" height="58.6641" fill="white" transform="translate(0.601562)"/>
</clipPath>
</defs>
</svg>
