<svg width="122" height="28" viewBox="0 0 122 28" fill="none" xmlns="http://www.w3.org/2000/svg">
<path d="M0.5 6C0.5 2.68629 3.18629 0 6.5 0H115.5C118.814 0 121.5 2.68629 121.5 6V22C121.5 25.3137 118.814 28 115.5 28H6.5C3.18629 28 0.5 25.3137 0.5 22V6Z" fill="white" fill-opacity="0.08"/>
<path d="M20.2489 9.99898C20.5837 10.331 20.5837 10.8701 20.2489 11.2021L13.3925 18.001C13.0578 18.333 12.5141 18.333 12.1793 18.001L8.75109 14.6015C8.4163 14.2696 8.4163 13.7304 8.75109 13.3985C9.08587 13.0665 9.62956 13.0665 9.96435 13.3985L12.7872 16.195L19.0383 9.99898C19.3731 9.66701 19.9168 9.66701 20.2516 9.99898H20.2489Z" fill="#DCE2EA"/>
<path d="M27.733 19V8.81818H31.1733C31.9688 8.81818 32.6217 8.95407 33.1321 9.22585C33.6425 9.49432 34.0204 9.86387 34.2656 10.3345C34.5109 10.8052 34.6335 11.3404 34.6335 11.9403C34.6335 12.5402 34.5109 13.0722 34.2656 13.5362C34.0204 14.0002 33.6442 14.3648 33.1371 14.63C32.63 14.8918 31.982 15.0227 31.1932 15.0227H28.4091V13.9091H31.1534C31.697 13.9091 32.1345 13.8295 32.4659 13.6705C32.8007 13.5114 33.0426 13.286 33.1918 12.9943C33.3442 12.6993 33.4205 12.348 33.4205 11.9403C33.4205 11.5327 33.3442 11.1764 33.1918 10.8714C33.0393 10.5665 32.7957 10.3312 32.4609 10.1655C32.1262 9.99645 31.6837 9.91193 31.1335 9.91193H28.9659V19H27.733ZM32.5256 14.4261L35.0312 19H33.5994L31.1335 14.4261H32.5256ZM39.6486 19.1591C38.9128 19.1591 38.2781 18.9967 37.7445 18.6719C37.2142 18.3438 36.8049 17.8864 36.5165 17.2997C36.2315 16.7098 36.089 16.0237 36.089 15.2415C36.089 14.4593 36.2315 13.7699 36.5165 13.1733C36.8049 12.5734 37.2059 12.1061 37.7196 11.7713C38.2367 11.4332 38.8399 11.2642 39.5293 11.2642C39.927 11.2642 40.3198 11.3305 40.7076 11.4631C41.0953 11.5956 41.4483 11.8111 41.7665 12.1094C42.0847 12.4044 42.3382 12.7955 42.5272 13.2827C42.7161 13.7699 42.8105 14.3698 42.8105 15.0824V15.5795H36.9242V14.5653H41.6174C41.6174 14.1345 41.5312 13.75 41.3588 13.4119C41.1898 13.0739 40.9479 12.8071 40.633 12.6115C40.3214 12.416 39.9535 12.3182 39.5293 12.3182C39.062 12.3182 38.6576 12.4342 38.3162 12.6662C37.9782 12.8949 37.718 13.1932 37.5357 13.5611C37.3534 13.929 37.2623 14.3234 37.2623 14.7443V15.4205C37.2623 15.9972 37.3617 16.486 37.5605 16.8871C37.7627 17.2848 38.0428 17.5881 38.4007 17.7969C38.7587 18.0024 39.1747 18.1051 39.6486 18.1051C39.9569 18.1051 40.2353 18.062 40.4838 17.9759C40.7357 17.8864 40.9528 17.7538 41.1351 17.5781C41.3174 17.3991 41.4583 17.1771 41.5577 16.9119L42.6912 17.2301C42.5719 17.6146 42.3714 17.9527 42.0897 18.2443C41.8079 18.5327 41.4599 18.758 41.0456 18.9205C40.6313 19.0795 40.1657 19.1591 39.6486 19.1591ZM49.8056 21.8636V17.8267H49.7061C49.62 17.9659 49.4973 18.1416 49.3382 18.3537C49.1792 18.5625 48.9521 18.7498 48.6571 18.9155C48.3622 19.0779 47.9694 19.1591 47.4789 19.1591C46.8425 19.1591 46.2807 18.9983 45.7935 18.6768C45.3063 18.352 44.9251 17.8946 44.65 17.3047C44.3749 16.7114 44.2374 16.0104 44.2374 15.2017C44.2374 14.3996 44.3749 13.7036 44.65 13.1136C44.9251 12.5237 45.3079 12.0679 45.7985 11.7464C46.289 11.425 46.8558 11.2642 47.4988 11.2642C47.9959 11.2642 48.3887 11.3471 48.677 11.5128C48.9687 11.6752 49.1908 11.8608 49.3432 12.0696C49.499 12.2751 49.62 12.4441 49.7061 12.5767H49.8453V11.3636H50.9789V21.8636H49.8056ZM47.638 18.1051C48.1086 18.1051 48.5063 17.9825 48.8311 17.7372C49.156 17.4886 49.4029 17.1456 49.5719 16.7081C49.7409 16.2673 49.8255 15.7585 49.8255 15.1818C49.8255 14.6117 49.7426 14.1129 49.5769 13.6854C49.4112 13.2545 49.1659 12.9197 48.8411 12.6811C48.5163 12.4392 48.1152 12.3182 47.638 12.3182C47.1408 12.3182 46.7265 12.4458 46.3951 12.701C46.0669 12.9529 45.82 13.2959 45.6543 13.7301C45.4919 14.161 45.4107 14.6449 45.4107 15.1818C45.4107 15.7254 45.4935 16.2192 45.6593 16.6634C45.8283 17.1042 46.0769 17.4555 46.405 17.7173C46.7364 17.9759 47.1474 18.1051 47.638 18.1051ZM57.9391 15.8778V11.3636H59.1124V19H57.9391V17.7074H57.8596C57.6806 18.0952 57.4022 18.425 57.0243 18.6967C56.6465 18.9652 56.1692 19.0994 55.5925 19.0994C55.1152 19.0994 54.691 18.995 54.3198 18.7862C53.9486 18.5741 53.6569 18.2559 53.4448 17.8317C53.2327 17.4041 53.1266 16.8655 53.1266 16.2159V11.3636H54.2999V16.1364C54.2999 16.6932 54.4557 17.1373 54.7672 17.4688C55.0821 17.8002 55.4831 17.9659 55.9703 17.9659C56.262 17.9659 56.5587 17.8913 56.8603 17.7422C57.1652 17.593 57.4204 17.3643 57.6259 17.0561C57.8347 16.7479 57.9391 16.3551 57.9391 15.8778ZM64.4631 19.1591C63.7273 19.1591 63.0926 18.9967 62.5589 18.6719C62.0286 18.3438 61.6193 17.8864 61.331 17.2997C61.0459 16.7098 60.9034 16.0237 60.9034 15.2415C60.9034 14.4593 61.0459 13.7699 61.331 13.1733C61.6193 12.5734 62.0204 12.1061 62.5341 11.7713C63.0511 11.4332 63.6544 11.2642 64.3438 11.2642C64.7415 11.2642 65.1342 11.3305 65.522 11.4631C65.9098 11.5956 66.2628 11.8111 66.581 12.1094C66.8991 12.4044 67.1527 12.7955 67.3416 13.2827C67.5305 13.7699 67.625 14.3698 67.625 15.0824V15.5795H61.7386V14.5653H66.4318C66.4318 14.1345 66.3456 13.75 66.1733 13.4119C66.0043 13.0739 65.7623 12.8071 65.4474 12.6115C65.1359 12.416 64.768 12.3182 64.3438 12.3182C63.8764 12.3182 63.4721 12.4342 63.1307 12.6662C62.7926 12.8949 62.5324 13.1932 62.3501 13.5611C62.1679 13.929 62.0767 14.3234 62.0767 14.7443V15.4205C62.0767 15.9972 62.1761 16.486 62.375 16.8871C62.5772 17.2848 62.8572 17.5881 63.2152 17.7969C63.5732 18.0024 63.9891 18.1051 64.4631 18.1051C64.7713 18.1051 65.0497 18.062 65.2983 17.9759C65.5502 17.8864 65.7673 17.7538 65.9496 17.5781C66.1319 17.3991 66.2727 17.1771 66.3722 16.9119L67.5057 17.2301C67.3864 17.6146 67.1858 17.9527 66.9041 18.2443C66.6224 18.5327 66.2744 18.758 65.8601 18.9205C65.4458 19.0795 64.9801 19.1591 64.4631 19.1591ZM74.8189 13.0739L73.7649 13.3722C73.6986 13.1965 73.6009 13.0258 73.4716 12.8601C73.3456 12.6911 73.1733 12.5518 72.9545 12.4425C72.7358 12.3331 72.4557 12.2784 72.1143 12.2784C71.647 12.2784 71.2576 12.3861 70.946 12.6016C70.6378 12.8137 70.4837 13.0838 70.4837 13.4119C70.4837 13.7036 70.5897 13.9339 70.8018 14.103C71.014 14.272 71.3454 14.4129 71.7962 14.5256L72.9297 14.804C73.6125 14.9697 74.1212 15.2232 74.456 15.5646C74.7907 15.9027 74.9581 16.3385 74.9581 16.8722C74.9581 17.3097 74.8321 17.7008 74.5803 18.0455C74.3317 18.3902 73.9837 18.6619 73.5362 18.8608C73.0888 19.0597 72.5684 19.1591 71.9751 19.1591C71.1963 19.1591 70.5516 18.9901 70.0412 18.652C69.5308 18.3139 69.2076 17.8201 69.0717 17.1705L70.1854 16.892C70.2914 17.303 70.492 17.6113 70.7869 17.8168C71.0852 18.0223 71.4747 18.125 71.9553 18.125C72.5021 18.125 72.9363 18.009 73.2578 17.777C73.5826 17.5417 73.745 17.2599 73.745 16.9318C73.745 16.6667 73.6522 16.4446 73.4666 16.2656C73.281 16.0833 72.996 15.9474 72.6115 15.858L71.3388 15.5597C70.6394 15.3939 70.1257 15.1371 69.7976 14.7891C69.4728 14.4377 69.3104 13.9986 69.3104 13.4716C69.3104 13.0407 69.4313 12.6596 69.6733 12.3281C69.9186 11.9967 70.2517 11.7365 70.6726 11.5476C71.0968 11.3587 71.5774 11.2642 72.1143 11.2642C72.87 11.2642 73.4633 11.4299 73.8942 11.7614C74.3284 12.0928 74.6366 12.5303 74.8189 13.0739ZM80.0453 11.3636V12.358H76.0879V11.3636H80.0453ZM77.2413 9.53409H78.4146V16.8125C78.4146 17.1439 78.4627 17.3925 78.5588 17.5582C78.6582 17.7206 78.7842 17.83 78.9366 17.8864C79.0924 17.9394 79.2565 17.9659 79.4288 17.9659C79.5581 17.9659 79.6641 17.9593 79.747 17.946C79.8298 17.9295 79.8961 17.9162 79.9458 17.9062L80.1845 18.9602C80.1049 18.9901 79.9939 19.0199 79.8514 19.0497C79.7089 19.0829 79.5282 19.0994 79.3095 19.0994C78.978 19.0994 78.6532 19.0282 78.335 18.8857C78.0202 18.7431 77.7583 18.526 77.5495 18.2344C77.344 17.9427 77.2413 17.5748 77.2413 17.1307V9.53409ZM91.1568 13.0739L90.1028 13.3722C90.0365 13.1965 89.9387 13.0258 89.8095 12.8601C89.6835 12.6911 89.5112 12.5518 89.2924 12.4425C89.0737 12.3331 88.7936 12.2784 88.4522 12.2784C87.9849 12.2784 87.5955 12.3861 87.2839 12.6016C86.9757 12.8137 86.8216 13.0838 86.8216 13.4119C86.8216 13.7036 86.9276 13.9339 87.1397 14.103C87.3519 14.272 87.6833 14.4129 88.1341 14.5256L89.2676 14.804C89.9503 14.9697 90.4591 15.2232 90.7939 15.5646C91.1286 15.9027 91.296 16.3385 91.296 16.8722C91.296 17.3097 91.17 17.7008 90.9181 18.0455C90.6696 18.3902 90.3216 18.6619 89.8741 18.8608C89.4267 19.0597 88.9063 19.1591 88.313 19.1591C87.5342 19.1591 86.8895 18.9901 86.3791 18.652C85.8687 18.3139 85.5455 17.8201 85.4096 17.1705L86.5233 16.892C86.6293 17.303 86.8298 17.6113 87.1248 17.8168C87.4231 18.0223 87.8126 18.125 88.2931 18.125C88.84 18.125 89.2742 18.009 89.5957 17.777C89.9205 17.5417 90.0829 17.2599 90.0829 16.9318C90.0829 16.6667 89.9901 16.4446 89.8045 16.2656C89.6189 16.0833 89.3339 15.9474 88.9494 15.858L87.6767 15.5597C86.9773 15.3939 86.4636 15.1371 86.1355 14.7891C85.8107 14.4377 85.6483 13.9986 85.6483 13.4716C85.6483 13.0407 85.7692 12.6596 86.0112 12.3281C86.2565 11.9967 86.5895 11.7365 87.0105 11.5476C87.4347 11.3587 87.9153 11.2642 88.4522 11.2642C89.2079 11.2642 89.8012 11.4299 90.2321 11.7614C90.6663 12.0928 90.9745 12.5303 91.1568 13.0739ZM96.2638 19.1591C95.5281 19.1591 94.8933 18.9967 94.3597 18.6719C93.8294 18.3438 93.4201 17.8864 93.1317 17.2997C92.8467 16.7098 92.7042 16.0237 92.7042 15.2415C92.7042 14.4593 92.8467 13.7699 93.1317 13.1733C93.4201 12.5734 93.8211 12.1061 94.3349 11.7713C94.8519 11.4332 95.4551 11.2642 96.1445 11.2642C96.5423 11.2642 96.935 11.3305 97.3228 11.4631C97.7106 11.5956 98.0636 11.8111 98.3817 12.1094C98.6999 12.4044 98.9535 12.7955 99.1424 13.2827C99.3313 13.7699 99.4258 14.3698 99.4258 15.0824V15.5795H93.5394V14.5653H98.2326C98.2326 14.1345 98.1464 13.75 97.9741 13.4119C97.805 13.0739 97.5631 12.8071 97.2482 12.6115C96.9367 12.416 96.5688 12.3182 96.1445 12.3182C95.6772 12.3182 95.2728 12.4342 94.9315 12.6662C94.5934 12.8949 94.3332 13.1932 94.1509 13.5611C93.9686 13.929 93.8775 14.3234 93.8775 14.7443V15.4205C93.8775 15.9972 93.9769 16.486 94.1758 16.8871C94.378 17.2848 94.658 17.5881 95.016 17.7969C95.3739 18.0024 95.7899 18.1051 96.2638 18.1051C96.5721 18.1051 96.8505 18.062 97.0991 17.9759C97.351 17.8864 97.5681 17.7538 97.7504 17.5781C97.9326 17.3991 98.0735 17.1771 98.1729 16.9119L99.3065 17.2301C99.1871 17.6146 98.9866 17.9527 98.7049 18.2443C98.4232 18.5327 98.0752 18.758 97.6609 18.9205C97.2466 19.0795 96.7809 19.1591 96.2638 19.1591ZM102.384 14.4062V19H101.211V11.3636H102.344V12.5568H102.444C102.623 12.169 102.894 11.8575 103.259 11.6222C103.623 11.3835 104.094 11.2642 104.671 11.2642C105.188 11.2642 105.64 11.3703 106.028 11.5824C106.416 11.7912 106.717 12.1094 106.933 12.5369C107.148 12.9612 107.256 13.4981 107.256 14.1477V19H106.083V14.2273C106.083 13.6274 105.927 13.16 105.615 12.8253C105.304 12.4872 104.876 12.3182 104.333 12.3182C103.958 12.3182 103.623 12.3994 103.328 12.5618C103.037 12.7242 102.806 12.9612 102.637 13.2727C102.468 13.5843 102.384 13.9621 102.384 14.4062ZM112.721 11.3636V12.358H108.764V11.3636H112.721ZM109.917 9.53409H111.09V16.8125C111.09 17.1439 111.138 17.3925 111.235 17.5582C111.334 17.7206 111.46 17.83 111.612 17.8864C111.768 17.9394 111.932 17.9659 112.105 17.9659C112.234 17.9659 112.34 17.9593 112.423 17.946C112.506 17.9295 112.572 17.9162 112.622 17.9062L112.86 18.9602C112.781 18.9901 112.67 19.0199 112.527 19.0497C112.385 19.0829 112.204 19.0994 111.985 19.0994C111.654 19.0994 111.329 19.0282 111.011 18.8857C110.696 18.7431 110.434 18.526 110.225 18.2344C110.02 17.9427 109.917 17.5748 109.917 17.1307V9.53409Z" fill="#DCE2EA"/>
</svg>
