<svg width="102" height="42" viewBox="0 0 102 42" fill="none" xmlns="http://www.w3.org/2000/svg">
<path d="M23.1541 0.6875C23.894 0.68756 24.621 0.880949 25.2634 1.24805L37.6042 8.30078C38.9291 9.058 39.7468 10.4672 39.7468 11.9932V29.6582C39.7468 31.1414 38.9742 32.518 37.7078 33.29L25.5632 40.6914C24.8965 41.0977 24.1301 41.3125 23.3494 41.3125H17.5242C16.7504 41.3125 15.9905 41.1016 15.3279 40.7021L2.92554 33.2256C1.64884 32.456 0.867919 31.0737 0.86792 29.583V11.9395C0.867921 10.4094 1.68981 8.99688 3.02026 8.24121L15.3464 1.24219C15.9864 0.878787 16.7101 0.687583 17.446 0.6875H23.1541ZM19.3982 3.95117C18.1068 3.27472 16.5588 3.30662 15.2966 4.03613L5.5437 9.67383C4.22903 10.4338 3.41969 11.8369 3.41968 13.3555V28.5713C3.41968 30.0737 4.21203 31.4648 5.50464 32.2305L15.198 37.9727C16.446 38.7118 17.9849 38.7643 19.28 38.1113L30.1052 32.6533C31.5222 31.9389 32.4236 30.495 32.4431 28.9082L32.6316 13.5098C32.6512 11.9094 31.7709 10.4332 30.3533 9.69043L19.3982 3.95117ZM66.0476 10.7939C67.356 10.794 68.4167 11.8547 68.4167 13.1631V14.7451C68.4167 15.943 67.4456 16.9139 66.2478 16.9141H65.1531C62.7381 16.9142 60.7669 18.7739 60.571 21.125V27.6787C60.571 29.6149 59.0014 31.1846 57.0652 31.1846C55.1291 31.1845 53.5594 29.6149 53.5593 27.6787V14.2998C53.5594 12.3637 55.1291 10.794 57.0652 10.7939C58.944 10.7939 60.4779 12.2722 60.5671 14.1289C60.6095 14.0265 60.6551 13.9251 60.7039 13.8252C61.6093 11.9705 63.4925 10.794 65.5564 10.7939H66.0476ZM81.6326 10.7939C86.7569 10.7939 90.9116 14.948 90.9119 20.0723V21.9062C90.9117 27.0306 86.757 31.1846 81.6326 31.1846H78.6521C73.5277 31.1846 69.373 27.0306 69.3728 21.9062V20.0723C69.3731 14.948 73.5278 10.7939 78.6521 10.7939H81.6326ZM97.614 10.7939C99.55 10.7942 101.119 12.3638 101.119 14.2998V27.6787C101.119 29.6147 99.55 31.1843 97.614 31.1846C95.6778 31.1846 94.1082 29.6149 94.1082 27.6787V14.2998C94.1082 12.3636 95.6778 10.7939 97.614 10.7939ZM80.1423 15.9873C78.0737 15.9873 76.3964 17.6638 76.3962 19.7324V22.2461C76.3963 24.3148 78.0736 25.9922 80.1423 25.9922C82.211 25.9921 83.8883 24.3147 83.8884 22.2461V19.7324C83.8883 17.6638 82.2109 15.9874 80.1423 15.9873Z" fill="white"/>
</svg>
