<svg width="166" height="36" viewBox="0 0 166 36" fill="none" xmlns="http://www.w3.org/2000/svg">
<g clip-path="url(#clip0_349_4232)">
<path d="M12.9445 0.576419C10.598 0.925481 8.4454 1.73996 6.49647 3.01986C5.4105 3.73738 3.51975 5.62816 2.74405 6.77228C1.63869 8.41096 0.901772 10.1272 0.465444 12.0664C0.27152 12.9391 0.242432 13.3366 0.242432 14.9656C0.242432 17.0309 0.339394 17.6805 0.892078 19.4259C2.28833 23.7988 5.81776 27.3283 10.181 28.7148C11.7033 29.1996 12.4596 29.3257 14.1274 29.3838C16.3478 29.4614 17.9574 29.1899 20.0227 28.3948C23.1449 27.1925 26.1895 24.3612 27.6245 21.336C29.1274 18.1653 29.4862 14.7135 28.662 11.4459C27.3142 6.15175 23.1836 2.12781 17.7441 0.838214C16.9005 0.64429 16.4254 0.595812 14.9807 0.566723C14.0207 0.54733 13.1093 0.557027 12.9445 0.576419ZM16.9684 3.56285C18.0834 3.80525 18.8688 4.08644 19.9063 4.61004C21.5062 5.4342 22.8831 6.57837 23.9593 8.01342C25.3362 9.84597 26.5191 13.2203 26.044 13.9475C25.8501 14.2481 25.5495 14.2577 24.483 14.0056C23.1352 13.676 21.2444 13.3366 19.5379 13.1039C18.0931 12.91 17.492 12.8809 14.6413 12.8809C11.81 12.8906 11.1797 12.9197 9.74473 13.1039C7.97032 13.3463 6.02135 13.7051 4.82872 14.0056C4.42149 14.1026 3.93668 14.1899 3.74276 14.1899C3.02524 14.1899 2.94767 13.5306 3.46157 11.7658C4.33423 8.7406 6.49648 6.09356 9.25988 4.66822C10.598 3.98948 11.7033 3.64042 13.3323 3.38832C13.9238 3.30105 16.2605 3.4174 16.9684 3.56285ZM10.3168 17.8357C11.5773 19.0865 12.3142 21.5687 12.3142 24.5163V25.9029L12.0524 26.0677C11.81 26.2229 11.7712 26.2326 11.2089 26.0774C9.61868 25.6314 7.9606 24.6618 6.63224 23.3819C5.56566 22.3541 4.97416 21.5687 4.31484 20.2694C3.74276 19.1446 3.68459 18.8441 3.96577 18.5629C4.1597 18.3689 5.48808 18.0199 7.32068 17.6902C8.85266 17.409 8.82355 17.4187 9.37626 17.3993C9.85138 17.3896 9.89985 17.4187 10.3168 17.8357ZM21.6226 17.632C23.6878 17.9908 25.1035 18.3496 25.3168 18.5629C25.5592 18.8053 25.5495 19.0671 25.278 19.7167C24.289 22.0923 21.7777 24.5842 19.2955 25.6411C18.064 26.1647 17.6277 26.2617 17.2883 26.0968L17.0168 25.9708L16.9878 24.6133C16.9296 21.7141 17.6762 19.1544 18.9561 17.8357C19.4797 17.2927 19.6057 17.283 21.6226 17.632Z" fill="white"/>
<path d="M132.063 15.5967V27.8624H134.051H136.039V15.5967V3.33105H134.051H132.063V15.5967Z" fill="white"/>
<path d="M126.438 3.51441C125.953 3.66955 125.594 3.90226 125.255 4.28041C123.81 5.8803 125.138 8.44976 127.31 8.24617C129.143 8.08133 130.142 6.03542 129.123 4.52281C128.687 3.87317 128.057 3.51441 127.291 3.46593C126.952 3.44654 126.574 3.46593 126.438 3.51441Z" fill="white"/>
<path d="M46.4148 3.78687C46.386 3.83535 44.4465 9.19734 42.0904 15.7132C39.7342 22.2291 37.7853 27.6298 37.7562 27.7171C37.698 27.8529 37.9307 27.8625 39.8991 27.8431L42.1098 27.8141L42.9243 25.4869C43.3703 24.2071 43.7969 22.9756 43.8842 22.7429L44.0394 22.3357H48.5579H53.086L53.4447 23.3829C53.6387 23.955 54.0654 25.1961 54.3949 26.1463L54.9959 27.8625H57.2166C58.4383 27.8625 59.4368 27.8431 59.4368 27.8237C59.4368 27.7462 50.8169 3.91292 50.759 3.81596C50.691 3.6996 46.4828 3.68021 46.4148 3.78687ZM48.7226 9.79851C48.8002 10.1088 49.5373 12.2226 50.3418 14.5109C51.1464 16.7895 51.7867 18.6705 51.7575 18.6996C51.7283 18.7287 50.2643 18.7384 48.5091 18.7287L45.3095 18.6996L46.7931 14.4818C47.6077 12.1644 48.3251 10.0312 48.3931 9.75005C48.4607 9.47855 48.5191 9.24585 48.5383 9.24585C48.5479 9.24585 48.6355 9.49795 48.7226 9.79851Z" fill="white"/>
<path d="M79.4134 9.00358V11.5731H77.8622H76.3105V13.2699V14.9667H77.8622H79.4134V21.4147V27.8627H81.4497H83.486V21.4147V14.9667H85.0372H86.5889V13.2699V11.5731H85.0372H83.486L83.4664 9.02297L83.4377 6.48255L81.4305 6.45348L79.4134 6.43408V9.00358Z" fill="white"/>
<path d="M158.631 9.00358V11.5731H157.08H155.528V13.2699V14.9667H157.08H158.631V21.4147V27.8627H160.667H162.704V21.4147V14.9667H164.255H165.806V13.2699V11.5731H164.255H162.704L162.684 9.02297L162.655 6.48255L160.648 6.45348L158.631 6.43408V9.00358Z" fill="white"/>
<path d="M93.6939 11.2241C91.7256 11.6023 90.2516 12.3683 89.0011 13.6676C87.9345 14.7729 87.3235 15.9074 86.9164 17.4879C86.6353 18.5933 86.6544 20.9203 86.9552 22.0451C87.4011 23.7031 88.3804 25.2836 89.5825 26.2823C90.3679 26.932 91.9 27.698 92.9377 27.9695C94.1594 28.2894 96.0598 28.3282 97.3495 28.0567C99.1042 27.698 100.403 27.0386 101.596 25.8848C104.98 22.6559 104.951 16.557 101.538 13.4058C100.442 12.3877 99.3082 11.7768 97.7565 11.3696C96.7868 11.1078 94.6829 11.0399 93.6939 11.2241ZM96.3409 14.7826C98.5903 15.1899 100.064 17.1291 100.064 19.6695C100.064 22.239 98.6099 24.1491 96.3313 24.5758C95.2064 24.7891 93.7231 24.5273 92.8309 23.9552C91.9292 23.3832 91.2022 22.3457 90.9014 21.2209C90.717 20.484 90.7075 18.8647 90.9014 18.1375C91.5317 15.7231 93.8007 14.3172 96.3409 14.7826Z" fill="white"/>
<path d="M113.737 11.2918C112.273 11.67 111.022 12.4748 110.314 13.5026L110.004 13.9486L109.945 13.5608C109.906 13.3475 109.848 12.8141 109.81 12.3681L109.742 11.573H107.86H105.98V23.4994V35.4257H108.016H110.052V30.6164V25.8168L110.575 26.3791C111.855 27.7657 114.008 28.4444 116.442 28.2311C119.031 28.0081 121.154 26.5343 122.231 24.2169C123.297 21.9383 123.51 18.9325 122.793 16.4502C122.007 13.7256 119.981 11.796 117.315 11.2336C116.345 11.0301 114.638 11.0495 113.737 11.2918ZM116.655 15.18C118.342 16.0139 119.273 17.8465 119.128 20.0572C119.041 21.5504 118.614 22.6073 117.77 23.4509C115.928 25.2932 112.427 24.9829 110.954 22.84C110.323 21.9189 110.1 21.085 110.1 19.6694C110.1 18.7094 110.139 18.3895 110.323 17.8659C110.847 16.3532 111.758 15.403 113.135 14.957C113.572 14.8116 113.921 14.7825 114.813 14.8019C115.879 14.8213 115.957 14.831 116.655 15.18Z" fill="white"/>
<path d="M144.939 11.243C140.963 11.9605 138.258 15.0245 138.005 19.0873C137.783 22.7621 139.547 25.9231 142.631 27.3678C144.066 28.0368 144.861 28.2016 146.703 28.2016C148.138 28.2016 148.4 28.1726 149.244 27.9399C150.601 27.5617 151.842 26.8927 152.831 26.0006C153.82 25.0989 154.77 23.4699 155.139 21.9961C155.662 19.9599 155.42 17.4874 154.528 15.6936C153.597 13.8125 151.949 12.3484 149.981 11.6503C148.439 11.1073 146.538 10.9521 144.939 11.243ZM147.799 14.8209C149.981 15.2766 151.357 17.1577 151.357 19.669C151.357 22.5197 149.719 24.4298 147.091 24.6335C145.103 24.7789 143.348 23.8093 142.544 22.1124C142.185 21.3367 142.049 20.6871 142.049 19.669C142.049 18.1079 142.476 16.9444 143.407 16.0232C144.541 14.8888 146.102 14.4621 147.799 14.8209Z" fill="white"/>
<path d="M59.7273 16.7791C59.7273 19.8819 59.7661 22.3545 59.8341 22.8684C60.2416 26.3008 62.3939 28.2595 65.7486 28.2595C67.5718 28.2595 69.1522 27.6486 70.3447 26.4753L71.0526 25.7772L71.1785 26.8147L71.3049 27.8619H73.176H75.0476V19.7171V11.5723H73.0113H70.975V16.4398C70.975 21.6951 70.9462 22.0151 70.4515 22.9944C70.1608 23.5568 69.5593 24.1289 68.9487 24.4004C68.2988 24.6912 66.728 24.7494 65.9814 24.5167C64.8861 24.1677 64.1294 23.1593 63.9067 21.7533C63.8387 21.3751 63.7999 19.2226 63.7999 16.3428V11.5723H61.7636H59.7273V16.7791Z" fill="white"/>
<path d="M125.081 19.718V27.8629H127.117H129.153V19.718V11.5732H127.117H125.081V19.718Z" fill="white"/>
</g>
<defs>
<clipPath id="clip0_349_4232">
<rect width="165.625" height="35.3043" fill="white" transform="translate(0.24292 0.347656)"/>
</clipPath>
</defs>
</svg>
