<svg width="163" height="42" viewBox="0 0 163 42" fill="none" xmlns="http://www.w3.org/2000/svg">
<path d="M14.1497 9.33309C14.1497 10.4023 13.8991 11.3796 13.3979 12.2651C12.9134 13.1338 12.17 13.8355 11.1676 14.3701C10.1819 14.888 8.97071 15.1469 7.53396 15.1469H5.10317V21.1111H0.191475V3.44406H7.53396C8.95401 3.44406 10.1569 3.69466 11.1426 4.19586C12.1449 4.69705 12.8967 5.39037 13.3979 6.27581C13.8991 7.16125 14.1497 8.18034 14.1497 9.33309ZM7.05783 11.2376C8.44446 11.2376 9.13778 10.6028 9.13778 9.33309C9.13778 8.04669 8.44446 7.40349 7.05783 7.40349H5.10317V11.2376H7.05783Z" fill="white"/>
<path d="M22.4129 21.2866C21.0096 21.2866 19.7483 20.9942 18.6289 20.4095C17.5263 19.8247 16.6576 18.9894 16.0227 17.9035C15.3879 16.8176 15.0705 15.5395 15.0705 14.0694C15.0705 12.6159 15.3879 11.3462 16.0227 10.2603C16.6743 9.17438 17.5514 8.33905 18.654 7.75433C19.7733 7.1696 21.0347 6.87724 22.438 6.87724C23.8413 6.87724 25.0943 7.1696 26.197 7.75433C27.3163 8.33905 28.1934 9.17438 28.8282 10.2603C29.4798 11.3462 29.8055 12.6159 29.8055 14.0694C29.8055 15.5228 29.4798 16.8009 28.8282 17.9035C28.1934 18.9894 27.3163 19.8247 26.197 20.4095C25.0776 20.9942 23.8163 21.2866 22.4129 21.2866ZM22.4129 17.0264C23.0979 17.0264 23.6659 16.7758 24.117 16.2746C24.5848 15.7567 24.8187 15.0216 24.8187 14.0694C24.8187 13.1171 24.5848 12.3904 24.117 11.8892C23.6659 11.388 23.1063 11.1374 22.438 11.1374C21.7697 11.1374 21.2101 11.388 20.759 11.8892C20.3079 12.3904 20.0824 13.1171 20.0824 14.0694C20.0824 15.0383 20.2996 15.7734 20.7339 16.2746C21.1683 16.7758 21.728 17.0264 22.4129 17.0264Z" fill="white"/>
<path d="M36.465 9.53357C37.0163 8.73166 37.6845 8.09681 38.4697 7.62903C39.2549 7.16125 40.0986 6.92736 41.0008 6.92736V12.1648H39.6225C38.5533 12.1648 37.7597 12.3737 37.2418 12.7913C36.7239 13.209 36.465 13.9357 36.465 14.9715V21.1111H31.5533V7.05266H36.465V9.53357Z" fill="white"/>
<path d="M50.8057 16.9262V21.1111H48.6757C45.0838 21.1111 43.2878 19.3319 43.2878 15.7734V11.1374H41.5587V7.05266H43.2878V3.64454H48.2246V7.05266H50.7807V11.1374H48.2246V15.8486C48.2246 16.2329 48.3081 16.5085 48.4752 16.6756C48.659 16.8426 48.9597 16.9262 49.3773 16.9262H50.8057Z" fill="white"/>
<path d="M60.4011 11.1374H58.1958V21.1111H53.2591V11.1374H51.7304V7.05266H53.2591V6.92736C53.2591 5.12306 53.7853 3.74478 54.8378 2.79251C55.907 1.82354 57.4357 1.33905 59.4237 1.33905C59.8247 1.33905 60.1338 1.34741 60.3509 1.36411V5.54908C60.2173 5.53237 60.0335 5.52402 59.7996 5.52402C59.265 5.52402 58.8724 5.64932 58.6218 5.89991C58.3712 6.1338 58.2292 6.51805 58.1958 7.05266H60.4011V11.1374Z" fill="white"/>
<path d="M68.4464 21.2866C67.043 21.2866 65.7817 20.9942 64.6624 20.4095C63.5597 19.8247 62.691 18.9894 62.0562 17.9035C61.4213 16.8176 61.1039 15.5395 61.1039 14.0694C61.1039 12.6159 61.4213 11.3462 62.0562 10.2603C62.7077 9.17438 63.5848 8.33905 64.6874 7.75433C65.8068 7.1696 67.0681 6.87724 68.4714 6.87724C69.8748 6.87724 71.1278 7.1696 72.2304 7.75433C73.3497 8.33905 74.2268 9.17438 74.8616 10.2603C75.5132 11.3462 75.839 12.6159 75.839 14.0694C75.839 15.5228 75.5132 16.8009 74.8616 17.9035C74.2268 18.9894 73.3497 19.8247 72.2304 20.4095C71.1111 20.9942 69.8497 21.2866 68.4464 21.2866ZM68.4464 17.0264C69.1313 17.0264 69.6994 16.7758 70.1504 16.2746C70.6182 15.7567 70.8521 15.0216 70.8521 14.0694C70.8521 13.1171 70.6182 12.3904 70.1504 11.8892C69.6994 11.388 69.1397 11.1374 68.4714 11.1374C67.8032 11.1374 67.2435 11.388 66.7924 11.8892C66.3414 12.3904 66.1158 13.1171 66.1158 14.0694C66.1158 15.0383 66.333 15.7734 66.7674 16.2746C67.2017 16.7758 67.7614 17.0264 68.4464 17.0264Z" fill="white"/>
<path d="M82.4984 2.56698V21.1111H77.5867V2.56698H82.4984Z" fill="white"/>
<path d="M87.5258 5.74955C86.6571 5.74955 85.9554 5.51566 85.4208 5.04788C84.9029 4.5634 84.6439 3.96196 84.6439 3.24359C84.6439 2.5085 84.9029 1.89872 85.4208 1.41423C85.9554 0.929744 86.6571 0.6875 87.5258 0.6875C88.3778 0.6875 89.0628 0.929744 89.5807 1.41423C90.1153 1.89872 90.3826 2.5085 90.3826 3.24359C90.3826 3.96196 90.1153 4.5634 89.5807 5.04788C89.0628 5.51566 88.3778 5.74955 87.5258 5.74955ZM89.9566 7.05266V21.1111H85.0449V7.05266H89.9566Z" fill="white"/>
<path d="M99.0436 21.2866C97.6403 21.2866 96.379 20.9942 95.2596 20.4095C94.157 19.8247 93.2883 18.9894 92.6534 17.9035C92.0186 16.8176 91.7012 15.5395 91.7012 14.0694C91.7012 12.6159 92.0186 11.3462 92.6534 10.2603C93.305 9.17438 94.1821 8.33905 95.2847 7.75433C96.404 7.1696 97.6654 6.87724 99.0687 6.87724C100.472 6.87724 101.725 7.1696 102.828 7.75433C103.947 8.33905 104.824 9.17438 105.459 10.2603C106.11 11.3462 106.436 12.6159 106.436 14.0694C106.436 15.5228 106.11 16.8009 105.459 17.9035C104.824 18.9894 103.947 19.8247 102.828 20.4095C101.708 20.9942 100.447 21.2866 99.0436 21.2866ZM99.0436 17.0264C99.7286 17.0264 100.297 16.7758 100.748 16.2746C101.215 15.7567 101.449 15.0216 101.449 14.0694C101.449 13.1171 101.215 12.3904 100.748 11.8892C100.297 11.388 99.737 11.1374 99.0687 11.1374C98.4004 11.1374 97.8408 11.388 97.3897 11.8892C96.9386 12.3904 96.7131 13.1171 96.7131 14.0694C96.7131 15.0383 96.9303 15.7734 97.3646 16.2746C97.799 16.7758 98.3587 17.0264 99.0436 17.0264Z" fill="white"/>
<path d="M122.142 9.33309C122.142 10.4023 121.892 11.3796 121.39 12.2651C120.906 13.1338 120.162 13.8355 119.16 14.3701C118.174 14.888 116.963 15.1469 115.526 15.1469H113.096V21.1111H108.184V3.44406H115.526C116.947 3.44406 118.149 3.69466 119.135 4.19586C120.137 4.69705 120.889 5.39037 121.39 6.27581C121.892 7.16125 122.142 8.18034 122.142 9.33309ZM115.05 11.2376C116.437 11.2376 117.13 10.6028 117.13 9.33309C117.13 8.04669 116.437 7.40349 115.05 7.40349H113.096V11.2376H115.05Z" fill="white"/>
<path d="M126.346 5.74955C125.477 5.74955 124.775 5.51566 124.241 5.04788C123.723 4.5634 123.464 3.96196 123.464 3.24359C123.464 2.5085 123.723 1.89872 124.241 1.41423C124.775 0.929744 125.477 0.6875 126.346 0.6875C127.198 0.6875 127.883 0.929744 128.401 1.41423C128.935 1.89872 129.203 2.5085 129.203 3.24359C129.203 3.96196 128.935 4.5634 128.401 5.04788C127.883 5.51566 127.198 5.74955 126.346 5.74955ZM128.777 7.05266V21.1111H123.865V7.05266H128.777Z" fill="white"/>
<path d="M136.235 2.56698V21.1111H131.323V2.56698H136.235Z" fill="white"/>
<path d="M145.322 21.2866C143.918 21.2866 142.657 20.9942 141.538 20.4095C140.435 19.8247 139.566 18.9894 138.932 17.9035C138.297 16.8176 137.979 15.5395 137.979 14.0694C137.979 12.6159 138.297 11.3462 138.932 10.2603C139.583 9.17438 140.46 8.33905 141.563 7.75433C142.682 7.1696 143.944 6.87724 145.347 6.87724C146.75 6.87724 148.003 7.1696 149.106 7.75433C150.225 8.33905 151.102 9.17438 151.737 10.2603C152.389 11.3462 152.714 12.6159 152.714 14.0694C152.714 15.5228 152.389 16.8009 151.737 17.9035C151.102 18.9894 150.225 19.8247 149.106 20.4095C147.987 20.9942 146.725 21.2866 145.322 21.2866ZM145.322 17.0264C146.007 17.0264 146.575 16.7758 147.026 16.2746C147.494 15.7567 147.728 15.0216 147.728 14.0694C147.728 13.1171 147.494 12.3904 147.026 11.8892C146.575 11.388 146.015 11.1374 145.347 11.1374C144.679 11.1374 144.119 11.388 143.668 11.8892C143.217 12.3904 142.991 13.1171 142.991 14.0694C142.991 15.0383 143.208 15.7734 143.643 16.2746C144.077 16.7758 144.637 17.0264 145.322 17.0264Z" fill="white"/>
<path d="M162.757 16.9262V21.1111H160.627C157.035 21.1111 155.239 19.3319 155.239 15.7734V11.1374H153.51V7.05266H155.239V3.64454H160.176V7.05266H162.732V11.1374H160.176V15.8486C160.176 16.2329 160.259 16.5085 160.426 16.6756C160.61 16.8426 160.911 16.9262 161.329 16.9262H162.757Z" fill="white"/>
<path d="M1.12736 33.5106C1.33422 33.1486 1.63713 32.8531 2.03609 32.6241C2.43504 32.395 2.8894 32.2805 3.39917 32.2805C3.94589 32.2805 4.43719 32.4098 4.87308 32.6684C5.30897 32.927 5.65252 33.2927 5.90371 33.7655C6.1549 34.231 6.2805 34.774 6.2805 35.3946C6.2805 36.0078 6.1549 36.5545 5.90371 37.0347C5.65252 37.5149 5.30528 37.888 4.862 38.154C4.42611 38.42 3.9385 38.5529 3.39917 38.5529C2.87462 38.5529 2.41287 38.4384 2.01392 38.2094C1.62236 37.9804 1.32684 37.6885 1.12736 37.3339V38.4532H0.118896V30.2525H1.12736V33.5106ZM5.24987 35.3946C5.24987 34.9365 5.15752 34.5376 4.97282 34.1977C4.78812 33.8579 4.53693 33.5993 4.21924 33.422C3.90895 33.2447 3.5654 33.156 3.18862 33.156C2.81921 33.156 2.47567 33.2483 2.15799 33.433C1.84769 33.6104 1.5965 33.8726 1.40441 34.2199C1.21971 34.5597 1.12736 34.955 1.12736 35.4056C1.12736 35.8637 1.21971 36.2663 1.40441 36.6136C1.5965 36.9534 1.84769 37.2157 2.15799 37.4004C2.47567 37.5777 2.81921 37.6664 3.18862 37.6664C3.5654 37.6664 3.90895 37.5777 4.21924 37.4004C4.53693 37.2157 4.78812 36.9534 4.97282 36.6136C5.15752 36.2663 5.24987 35.86 5.24987 35.3946Z" fill="white"/>
<path d="M12.7278 32.3803L9.07074 41.3124H8.02903L9.22589 38.3867L6.77676 32.3803H7.89605L9.80216 37.3007L11.6861 32.3803H12.7278Z" fill="white"/>
<path d="M22.3257 32.9676C22.1114 32.5169 21.8012 32.1697 21.3948 31.9259C20.9885 31.6747 20.5156 31.5491 19.9763 31.5491C19.437 31.5491 18.9494 31.6747 18.5135 31.9259C18.085 32.1697 17.7451 32.5243 17.4939 32.9898C17.2501 33.4478 17.1282 33.9798 17.1282 34.5856C17.1282 35.1914 17.2501 35.7233 17.4939 36.1814C17.7451 36.6394 18.085 36.9941 18.5135 37.2453C18.9494 37.4891 19.437 37.611 19.9763 37.611C20.7299 37.611 21.3505 37.3856 21.8381 36.935C22.3257 36.4843 22.6101 35.8748 22.6914 35.1064H19.6106V34.2864H23.7664V35.0621C23.7073 35.6975 23.5078 36.2811 23.1679 36.8131C22.8281 37.3376 22.3811 37.755 21.827 38.0653C21.2729 38.3682 20.656 38.5197 19.9763 38.5197C19.2597 38.5197 18.6058 38.3535 18.0148 38.021C17.4238 37.6812 16.9546 37.212 16.6074 36.6136C16.2675 36.0152 16.0976 35.3392 16.0976 34.5856C16.0976 33.832 16.2675 33.156 16.6074 32.5576C16.9546 31.9517 17.4238 31.4826 18.0148 31.1502C18.6058 30.8103 19.2597 30.6404 19.9763 30.6404C20.7964 30.6404 21.5204 30.8435 22.1484 31.2499C22.7838 31.6562 23.2455 32.2288 23.5336 32.9676H22.3257Z" fill="white"/>
<path d="M25.9974 30.2525V38.4532H24.9889V30.2525H25.9974Z" fill="white"/>
<path d="M30.2539 38.5529C29.6851 38.5529 29.1679 38.4236 28.7024 38.1651C28.2444 37.9065 27.8824 37.5408 27.6164 37.068C27.3578 36.5877 27.2285 36.0336 27.2285 35.4056C27.2285 34.7851 27.3615 34.2383 27.6275 33.7655C27.9009 33.2853 28.2703 32.9196 28.7357 32.6684C29.2011 32.4098 29.722 32.2805 30.2983 32.2805C30.8745 32.2805 31.3954 32.4098 31.8608 32.6684C32.3263 32.9196 32.692 33.2816 32.9579 33.7544C33.2313 34.2273 33.368 34.7777 33.368 35.4056C33.368 36.0336 33.2276 36.5877 32.9469 37.068C32.6735 37.5408 32.3004 37.9065 31.8276 38.1651C31.3547 38.4236 30.8302 38.5529 30.2539 38.5529ZM30.2539 37.6664C30.6159 37.6664 30.9558 37.5814 31.2735 37.4115C31.5912 37.2416 31.846 36.9867 32.0381 36.6468C32.2376 36.307 32.3374 35.8933 32.3374 35.4056C32.3374 34.918 32.2413 34.5043 32.0492 34.1645C31.8571 33.8246 31.6059 33.5734 31.2956 33.4109C30.9853 33.241 30.6492 33.156 30.2872 33.156C29.9178 33.156 29.5779 33.241 29.2676 33.4109C28.9647 33.5734 28.7209 33.8246 28.5362 34.1645C28.3515 34.5043 28.2592 34.918 28.2592 35.4056C28.2592 35.9006 28.3478 36.3181 28.5251 36.6579C28.7098 36.9978 28.9536 37.2526 29.2565 37.4226C29.5595 37.5851 29.8919 37.6664 30.2539 37.6664Z" fill="white"/>
<path d="M35.5916 33.5106C35.7984 33.1486 36.1013 32.8531 36.5003 32.6241C36.8992 32.395 37.3536 32.2805 37.8634 32.2805C38.4101 32.2805 38.9014 32.4098 39.3373 32.6684C39.7732 32.927 40.1167 33.2927 40.3679 33.7655C40.6191 34.231 40.7447 34.774 40.7447 35.3946C40.7447 36.0078 40.6191 36.5545 40.3679 37.0347C40.1167 37.5149 39.7695 37.888 39.3262 38.154C38.8903 38.42 38.4027 38.5529 37.8634 38.5529C37.3388 38.5529 36.8771 38.4384 36.4781 38.2094C36.0866 37.9804 35.791 37.6885 35.5916 37.3339V38.4532H34.5831V30.2525H35.5916V33.5106ZM39.7141 35.3946C39.7141 34.9365 39.6217 34.5376 39.437 34.1977C39.2523 33.8579 39.0011 33.5993 38.6834 33.422C38.3732 33.2447 38.0296 33.156 37.6528 33.156C37.2834 33.156 36.9399 33.2483 36.6222 33.433C36.3119 33.6104 36.0607 33.8726 35.8686 34.2199C35.6839 34.5597 35.5916 34.955 35.5916 35.4056C35.5916 35.8637 35.6839 36.2663 35.8686 36.6136C36.0607 36.9534 36.3119 37.2157 36.6222 37.4004C36.9399 37.5777 37.2834 37.6664 37.6528 37.6664C38.0296 37.6664 38.3732 37.5777 38.6834 37.4004C39.0011 37.2157 39.2523 36.9534 39.437 36.6136C39.6217 36.2663 39.7141 35.86 39.7141 35.3946Z" fill="white"/>
<path d="M41.5845 35.3946C41.5845 34.774 41.7101 34.231 41.9613 33.7655C42.2125 33.2927 42.556 32.927 42.9919 32.6684C43.4352 32.4098 43.9265 32.2805 44.4658 32.2805C44.9978 32.2805 45.4595 32.395 45.8511 32.6241C46.2427 32.8531 46.5345 33.1412 46.7266 33.4885V32.3803H47.7461V38.4532H46.7266V37.3228C46.5271 37.6775 46.2279 37.973 45.8289 38.2094C45.4374 38.4384 44.9793 38.5529 44.4548 38.5529C43.9154 38.5529 43.4278 38.42 42.9919 38.154C42.556 37.888 42.2125 37.5149 41.9613 37.0347C41.7101 36.5545 41.5845 36.0078 41.5845 35.3946ZM46.7266 35.4056C46.7266 34.9476 46.6342 34.5486 46.4495 34.2088C46.2648 33.8689 46.0136 33.6104 45.6959 33.433C45.3856 33.2483 45.0421 33.156 44.6653 33.156C44.2885 33.156 43.945 33.2447 43.6347 33.422C43.3244 33.5993 43.0769 33.8579 42.8922 34.1977C42.7075 34.5376 42.6151 34.9365 42.6151 35.3946C42.6151 35.86 42.7075 36.2663 42.8922 36.6136C43.0769 36.9534 43.3244 37.2157 43.6347 37.4004C43.945 37.5777 44.2885 37.6664 44.6653 37.6664C45.0421 37.6664 45.3856 37.5777 45.6959 37.4004C46.0136 37.2157 46.2648 36.9534 46.4495 36.6136C46.6342 36.2663 46.7266 35.8637 46.7266 35.4056Z" fill="white"/>
<path d="M50.348 30.2525V38.4532H49.3395V30.2525H50.348Z" fill="white"/>
<path d="M59.9638 32.9898C59.9638 33.6325 59.7421 34.1682 59.2989 34.5967C58.863 35.0178 58.1944 35.2283 57.293 35.2283H55.808V38.4532H54.7996V30.729H57.293C58.1648 30.729 58.826 30.9396 59.2767 31.3607C59.7348 31.7818 59.9638 32.3248 59.9638 32.9898ZM57.293 34.3972C57.8545 34.3972 58.2682 34.2753 58.5342 34.0315C58.8002 33.7877 58.9332 33.4404 58.9332 32.9898C58.9332 32.0367 58.3864 31.5602 57.293 31.5602H55.808V34.3972H57.293Z" fill="white"/>
<path d="M62.1148 33.3666C62.2921 33.0193 62.5433 32.7497 62.8684 32.5576C63.2009 32.3655 63.6035 32.2694 64.0763 32.2694V33.3111H63.8104C62.68 33.3111 62.1148 33.9244 62.1148 35.1508V38.4532H61.1064V32.3803H62.1148V33.3666Z" fill="white"/>
<path d="M70.6707 35.184C70.6707 35.3761 70.6596 35.5793 70.6374 35.7935H65.7835C65.8204 36.3919 66.0236 36.8611 66.393 37.2009C66.7698 37.5334 67.2242 37.6996 67.7561 37.6996C68.192 37.6996 68.554 37.5999 68.8421 37.4004C69.1376 37.1935 69.3445 36.9202 69.4627 36.5803H70.5488C70.3862 37.164 70.0611 37.6405 69.5735 38.0099C69.0859 38.3719 68.4801 38.5529 67.7561 38.5529C67.1798 38.5529 66.6627 38.4236 66.2046 38.1651C65.7539 37.9065 65.3993 37.5408 65.1407 37.068C64.8821 36.5877 64.7529 36.0336 64.7529 35.4056C64.7529 34.7777 64.8785 34.2273 65.1296 33.7544C65.3808 33.2816 65.7318 32.9196 66.1824 32.6684C66.6405 32.4098 67.165 32.2805 67.7561 32.2805C68.3324 32.2805 68.8421 32.4061 69.2854 32.6573C69.7287 32.9085 70.0685 33.2557 70.3049 33.699C70.5488 34.1349 70.6707 34.6299 70.6707 35.184ZM69.629 34.9734C69.629 34.5893 69.544 34.2605 69.3741 33.9871C69.2041 33.7064 68.9714 33.4958 68.6759 33.3555C68.3878 33.2077 68.0664 33.1338 67.7118 33.1338C67.202 33.1338 66.7661 33.2964 66.4041 33.6214C66.0495 33.9465 65.8463 34.3972 65.7946 34.9734H69.629Z" fill="white"/>
<path d="M71.5142 35.3946C71.5142 34.774 71.6398 34.231 71.891 33.7655C72.1422 33.2927 72.4857 32.927 72.9216 32.6684C73.3649 32.4098 73.8599 32.2805 74.4066 32.2805C74.8794 32.2805 75.319 32.3913 75.7253 32.613C76.1317 32.8272 76.442 33.1117 76.6562 33.4663V30.2525H77.6758V38.4532H76.6562V37.3118C76.4568 37.6738 76.1612 37.973 75.7697 38.2094C75.3781 38.4384 74.9201 38.5529 74.3955 38.5529C73.8562 38.5529 73.3649 38.42 72.9216 38.154C72.4857 37.888 72.1422 37.5149 71.891 37.0347C71.6398 36.5545 71.5142 36.0078 71.5142 35.3946ZM76.6562 35.4056C76.6562 34.9476 76.5639 34.5486 76.3792 34.2088C76.1945 33.8689 75.9433 33.6104 75.6256 33.433C75.3153 33.2483 74.9718 33.156 74.595 33.156C74.2182 33.156 73.8747 33.2447 73.5644 33.422C73.2541 33.5993 73.0066 33.8579 72.8219 34.1977C72.6372 34.5376 72.5448 34.9365 72.5448 35.3946C72.5448 35.86 72.6372 36.2663 72.8219 36.6136C73.0066 36.9534 73.2541 37.2157 73.5644 37.4004C73.8747 37.5777 74.2182 37.6664 74.595 37.6664C74.9718 37.6664 75.3153 37.5777 75.6256 37.4004C75.9433 37.2157 76.1945 36.9534 76.3792 36.6136C76.5639 36.2663 76.6562 35.8637 76.6562 35.4056Z" fill="white"/>
<path d="M79.79 31.394C79.5979 31.394 79.4354 31.3275 79.3024 31.1945C79.1694 31.0615 79.1029 30.899 79.1029 30.7069C79.1029 30.5148 79.1694 30.3522 79.3024 30.2193C79.4354 30.0863 79.5979 30.0198 79.79 30.0198C79.9747 30.0198 80.1299 30.0863 80.2555 30.2193C80.3885 30.3522 80.455 30.5148 80.455 30.7069C80.455 30.899 80.3885 31.0615 80.2555 31.1945C80.1299 31.3275 79.9747 31.394 79.79 31.394ZM80.2776 32.3803V38.4532H79.2692V32.3803H80.2776Z" fill="white"/>
<path d="M81.5088 35.4056C81.5088 34.7777 81.6344 34.231 81.8856 33.7655C82.1368 33.2927 82.484 32.927 82.9273 32.6684C83.378 32.4098 83.8914 32.2805 84.4677 32.2805C85.2139 32.2805 85.8271 32.4615 86.3073 32.8235C86.7949 33.1855 87.1163 33.6879 87.2714 34.3307H86.1854C86.082 33.9613 85.8788 33.6695 85.5759 33.4552C85.2804 33.241 84.911 33.1338 84.4677 33.1338C83.8914 33.1338 83.426 33.3333 83.0714 33.7323C82.7167 34.1238 82.5394 34.6816 82.5394 35.4056C82.5394 36.1371 82.7167 36.7022 83.0714 37.1012C83.426 37.5001 83.8914 37.6996 84.4677 37.6996C84.911 37.6996 85.2804 37.5962 85.5759 37.3893C85.8714 37.1825 86.0746 36.8869 86.1854 36.5028H87.2714C87.1089 37.1234 86.7838 37.6221 86.2962 37.9988C85.8086 38.3682 85.1991 38.5529 84.4677 38.5529C83.8914 38.5529 83.378 38.4236 82.9273 38.1651C82.484 37.9065 82.1368 37.5408 81.8856 37.068C81.6344 36.5951 81.5088 36.041 81.5088 35.4056Z" fill="white"/>
<path d="M89.7363 33.2114V36.7909C89.7363 37.0864 89.7991 37.297 89.9247 37.4226C90.0503 37.5408 90.2682 37.5999 90.5785 37.5999H91.321V38.4532H90.4123C89.8508 38.4532 89.4297 38.3239 89.149 38.0653C88.8682 37.8068 88.7278 37.3819 88.7278 36.7909V33.2114H87.941V32.3803H88.7278V30.8509H89.7363V32.3803H91.321V33.2114H89.7363Z" fill="white"/>
<path d="M92.9529 31.394C92.7609 31.394 92.5983 31.3275 92.4653 31.1945C92.3324 31.0615 92.2659 30.899 92.2659 30.7069C92.2659 30.5148 92.3324 30.3522 92.4653 30.2193C92.5983 30.0863 92.7609 30.0198 92.9529 30.0198C93.1376 30.0198 93.2928 30.0863 93.4184 30.2193C93.5514 30.3522 93.6179 30.5148 93.6179 30.7069C93.6179 30.899 93.5514 31.0615 93.4184 31.1945C93.2928 31.3275 93.1376 31.394 92.9529 31.394ZM93.4406 32.3803V38.4532H92.4321V32.3803H93.4406Z" fill="white"/>
<path d="M97.6971 38.5529C97.1282 38.5529 96.6111 38.4236 96.1456 38.1651C95.6876 37.9065 95.3255 37.5408 95.0596 37.068C94.801 36.5877 94.6717 36.0336 94.6717 35.4056C94.6717 34.7851 94.8047 34.2383 95.0707 33.7655C95.344 33.2853 95.7134 32.9196 96.1789 32.6684C96.6443 32.4098 97.1652 32.2805 97.7414 32.2805C98.3177 32.2805 98.8385 32.4098 99.304 32.6684C99.7694 32.9196 100.135 33.2816 100.401 33.7544C100.674 34.2273 100.811 34.7777 100.811 35.4056C100.811 36.0336 100.671 36.5877 100.39 37.068C100.117 37.5408 99.7436 37.9065 99.2707 38.1651C98.7979 38.4236 98.2734 38.5529 97.6971 38.5529ZM97.6971 37.6664C98.0591 37.6664 98.399 37.5814 98.7166 37.4115C99.0343 37.2416 99.2892 36.9867 99.4813 36.6468C99.6808 36.307 99.7805 35.8933 99.7805 35.4056C99.7805 34.918 99.6845 34.5043 99.4924 34.1645C99.3003 33.8246 99.0491 33.5734 98.7388 33.4109C98.4285 33.241 98.0924 33.156 97.7303 33.156C97.3609 33.156 97.0211 33.241 96.7108 33.4109C96.4079 33.5734 96.1641 33.8246 95.9794 34.1645C95.7947 34.5043 95.7023 34.918 95.7023 35.4056C95.7023 35.9006 95.791 36.3181 95.9683 36.6579C96.153 36.9978 96.3968 37.2526 96.6997 37.4226C97.0026 37.5851 97.3351 37.6664 97.6971 37.6664Z" fill="white"/>
<path d="M104.985 32.2694C105.724 32.2694 106.322 32.4948 106.78 32.9454C107.239 33.3887 107.468 34.0315 107.468 34.8737V38.4532H106.47V35.0178C106.47 34.412 106.319 33.9502 106.016 33.6325C105.713 33.3075 105.299 33.1449 104.775 33.1449C104.243 33.1449 103.818 33.3111 103.5 33.6436C103.19 33.9761 103.035 34.46 103.035 35.0954V38.4532H102.026V32.3803H103.035V33.2447C103.234 32.9344 103.504 32.6942 103.844 32.5243C104.191 32.3544 104.571 32.2694 104.985 32.2694Z" fill="white"/>
<path d="M111.154 38.5529C110.689 38.5529 110.271 38.4754 109.902 38.3202C109.532 38.1577 109.24 37.936 109.026 37.6553C108.812 37.3672 108.694 37.0384 108.672 36.669H109.713C109.743 36.9719 109.883 37.2194 110.134 37.4115C110.393 37.6036 110.729 37.6996 111.143 37.6996C111.527 37.6996 111.83 37.6147 112.052 37.4447C112.273 37.2748 112.384 37.0606 112.384 36.802C112.384 36.536 112.266 36.3402 112.029 36.2146C111.793 36.0816 111.427 35.9524 110.932 35.8268C110.482 35.7086 110.112 35.5903 109.824 35.4721C109.543 35.3465 109.3 35.1655 109.093 34.9291C108.893 34.6853 108.793 34.3676 108.793 33.9761C108.793 33.6658 108.886 33.3813 109.071 33.1228C109.255 32.8642 109.518 32.661 109.857 32.5132C110.197 32.3581 110.585 32.2805 111.021 32.2805C111.693 32.2805 112.236 32.4504 112.65 32.7903C113.064 33.1301 113.285 33.5956 113.315 34.1866H112.306C112.284 33.8689 112.155 33.6141 111.919 33.422C111.69 33.2299 111.379 33.1338 110.988 33.1338C110.626 33.1338 110.338 33.2114 110.123 33.3666C109.909 33.5217 109.802 33.7249 109.802 33.9761C109.802 34.1755 109.865 34.3418 109.99 34.4748C110.123 34.6004 110.286 34.7038 110.478 34.7851C110.677 34.8589 110.951 34.9439 111.298 35.0399C111.734 35.1581 112.089 35.2764 112.362 35.3946C112.635 35.5054 112.868 35.6753 113.06 35.9043C113.26 36.1334 113.363 36.4326 113.37 36.802C113.37 37.1344 113.278 37.4337 113.093 37.6996C112.909 37.9656 112.646 38.1762 112.306 38.3313C111.974 38.4791 111.59 38.5529 111.154 38.5529Z" fill="white"/>
</svg>
