<svg width="226" height="25" viewBox="0 0 226 25" fill="none" xmlns="http://www.w3.org/2000/svg">
<path d="M62.9314 19.7526C65.1843 19.7526 67.4623 18.4737 68.6652 16.3495L66.6942 15.0706C65.9775 16.3495 64.754 17.2713 62.928 17.2713C60.9319 17.2713 59.115 15.7882 59.115 13.0239C59.115 10.1068 60.9319 8.77654 62.928 8.77654C64.4116 8.77654 65.6157 9.39031 66.6942 10.6692L68.4346 9.10966C67.8289 8.2457 67.025 7.53927 66.0902 7.04943C65.1554 6.55959 64.1169 6.30058 63.0615 6.29405C59.7335 6.29405 56.4569 8.77654 56.4569 13.0251C56.4569 17.2736 59.6559 19.7526 62.9314 19.7526Z" fill="white"/>
<path d="M52.7443 4.22228C53.1429 4.22499 53.5334 4.10915 53.8659 3.88949C54.1985 3.66983 54.4582 3.35627 54.6121 2.98868C54.7659 2.62109 54.8069 2.21607 54.7299 1.82512C54.6529 1.43417 54.4613 1.07493 54.1795 0.793097C53.8978 0.511261 53.5385 0.319549 53.1474 0.242337C52.7564 0.165126 52.3512 0.205902 51.9834 0.359479C51.6156 0.513056 51.3017 0.772501 51.0818 1.10482C50.8619 1.43715 50.7458 1.82734 50.7482 2.2258C50.745 2.48877 50.7945 2.74974 50.8936 2.99334C50.9928 3.23694 51.1397 3.45826 51.3257 3.64427C51.5116 3.83029 51.733 3.97725 51.9766 4.07652C52.2202 4.17578 52.4813 4.22534 52.7443 4.22228Z" fill="white"/>
<path d="M53.9735 6.70362H51.4399V19.4457H53.9735V6.70362Z" fill="white"/>
<path d="M48.0606 0H45.2964V19.4457H48.0606V0Z" fill="white"/>
<path d="M36.6455 6.29405C34.7258 6.29405 33.3175 7.09265 32.5243 8.36697V0H29.7088V19.4457H32.5243V17.8337C33.3232 19.0362 34.7258 19.7526 36.6455 19.7526C40.3307 19.7526 42.8906 16.9131 42.8906 13.0216C42.8906 9.33783 40.1777 6.29405 36.6455 6.29405ZM36.4172 17.1435C33.8824 17.1435 32.1682 15.4322 32.1682 13.0239C32.1682 10.6692 33.8802 8.90431 36.4172 8.90431C38.6998 8.90431 40.3329 10.5414 40.3329 13.0239C40.3307 15.4288 38.6929 17.1435 36.4149 17.1435H36.4172Z" fill="white"/>
<path d="M20.4918 19.6249C21.8488 19.6249 22.9741 19.0362 23.8198 17.8337V19.4457H26.4561V6.70362H23.7445V14.0724C23.7445 15.9399 22.618 17.1435 20.7771 17.1435C19.2159 17.1435 18.3713 15.787 18.3713 14.0724V6.70362H15.6049V14.5082C15.6049 17.4755 17.448 19.6249 20.4918 19.6249Z" fill="white"/>
<path d="M7.18451 6.29405C5.34135 6.29405 3.93415 7.09264 2.78146 8.36697V6.70362H0.09375V24H2.78146V17.8394C3.93415 19.0419 5.34135 19.7583 7.18451 19.7583C10.8446 19.7583 13.4809 16.7134 13.4809 13.0273C13.4809 9.10966 10.8446 6.29405 7.18451 6.29405ZM6.82615 17.1435C4.21491 17.1435 2.65364 15.4322 2.65364 13.0239C2.65364 10.6692 4.21491 8.90431 6.82615 8.90431C9.30844 8.90431 10.8446 10.6692 10.8446 13.0239C10.8446 15.4288 9.30729 17.1435 6.82615 17.1435Z" fill="white"/>
<path d="M82.0064 20.0489C78.4151 20.0489 75.864 17.3245 75.864 13.7331C75.864 10.117 78.4398 7.39258 82.0064 7.39258C84.2107 7.39258 86.0435 8.5319 86.9847 10.3647V7.59072H88.0745V19.8508H86.9847V17.0768C86.0188 18.9096 84.2107 20.0489 82.0064 20.0489ZM82.0312 19.0582C85.0281 19.0582 87.059 16.7796 87.059 13.7331C87.059 10.6619 85.0033 8.38329 82.0312 8.38329C79.0343 8.38329 76.9785 10.6619 76.9785 13.7084C76.9785 16.7796 79.0095 19.0582 82.0312 19.0582ZM97.1821 20.0489C93.8632 20.0489 91.1387 17.4731 91.1387 13.7331C91.1387 9.9932 93.9127 7.39258 97.1325 7.39258C99.3121 7.39258 101.095 8.5319 102.086 10.2656L101.269 10.8353C100.402 9.32447 98.9654 8.35852 97.1325 8.35852C94.4824 8.35852 92.2533 10.4886 92.2533 13.7084C92.2533 16.9282 94.4576 19.083 97.2069 19.083C99.2378 19.083 100.773 17.9437 101.566 16.1851L102.383 16.6557C101.442 18.7362 99.5598 20.0489 97.1821 20.0489ZM108.626 20.0242C106.472 20.0242 105.382 18.3895 105.382 16.1851V8.5319H103.227V7.59072H105.382V3.87555H106.472V7.59072H109.741V8.5319H106.472V16.1604C106.472 17.7951 107.19 19.083 108.676 19.083C109.196 19.083 109.741 18.9096 110.162 18.6619L110.509 19.4545C109.964 19.826 109.295 20.0242 108.626 20.0242ZM113.337 4.27184C112.668 4.27184 112.173 3.75171 112.173 3.10775C112.173 2.43902 112.668 1.94366 113.337 1.94366C113.981 1.94366 114.501 2.43902 114.501 3.10775C114.501 3.75171 113.981 4.27184 113.337 4.27184ZM112.792 19.8508V7.59072H113.907V19.8508H112.792ZM120.793 19.8508L116.161 7.59072H117.325L121.338 18.5629L125.325 7.59072H126.44L121.833 19.8508H120.793ZM133.54 20.0489C129.85 20.0489 127.373 17.374 127.373 13.7331C127.373 10.0427 129.974 7.39258 133.466 7.39258C136.958 7.39258 139.187 10.2904 139.187 13.4855C139.187 13.5845 139.187 13.7331 139.187 13.8322H128.488C128.562 16.8539 130.494 19.083 133.565 19.083C135.522 19.083 137.107 17.9684 138.073 16.2347L138.865 16.8043C137.726 18.8105 135.844 20.0489 133.54 20.0489ZM133.441 8.33375C130.469 8.33375 128.735 10.6124 128.513 12.9406H138.122C137.85 10.5629 136.116 8.33375 133.441 8.33375ZM151.743 20.0242C149.588 20.0242 148.498 18.3895 148.498 16.1851V8.5319H146.343V7.59072H148.498V3.87555H149.588V7.59072H152.857V8.5319H149.588V16.1604C149.588 17.7951 150.306 19.083 151.792 19.083C152.312 19.083 152.857 18.9096 153.278 18.6619L153.625 19.4545C153.08 19.826 152.411 20.0242 151.743 20.0242ZM155.686 19.8508V7.59072H156.651V10.0427C157.246 8.45759 158.41 7.39258 159.896 7.39258C160.169 7.39258 160.466 7.41735 160.713 7.51642L160.565 8.45759C160.342 8.43283 160.144 8.40806 159.921 8.40806C158.088 8.40806 156.775 10.2409 156.775 12.7424V19.8508H155.686ZM167.767 20.0489C164.175 20.0489 161.624 17.3245 161.624 13.7331C161.624 10.117 164.2 7.39258 167.767 7.39258C169.971 7.39258 171.804 8.5319 172.745 10.3647V7.59072H173.835V19.8508H172.745V17.0768C171.779 18.9096 169.971 20.0489 167.767 20.0489ZM167.792 19.0582C170.788 19.0582 172.819 16.7796 172.819 13.7331C172.819 10.6619 170.764 8.38329 167.792 8.38329C164.795 8.38329 162.739 10.6619 162.739 13.7084C162.739 16.7796 164.77 19.0582 167.792 19.0582ZM183.042 20.0489C179.45 20.0489 176.899 17.3492 176.899 13.7331C176.899 10.117 179.475 7.39258 183.042 7.39258C185.246 7.39258 187.103 8.5319 188.02 10.3647V0.779579H189.11V19.8508H188.02V17.0768C187.054 18.9096 185.246 20.0489 183.042 20.0489ZM183.066 19.0582C186.063 19.0582 188.094 16.7796 188.094 13.7331C188.094 10.6619 186.038 8.38329 183.066 8.38329C180.069 8.38329 178.014 10.6619 178.014 13.7084C178.014 16.7796 180.045 19.0582 183.066 19.0582ZM193.957 4.27184C193.288 4.27184 192.793 3.75171 192.793 3.10775C192.793 2.43902 193.288 1.94366 193.957 1.94366C194.601 1.94366 195.121 2.43902 195.121 3.10775C195.121 3.75171 194.601 4.27184 193.957 4.27184ZM193.412 19.8508V7.59072H194.527V19.8508H193.412ZM198.862 19.8508V7.59072H199.853V9.74552C200.645 8.25945 202.156 7.39258 204.014 7.39258C206.713 7.39258 208.397 9.39877 208.397 11.9746V19.8508H207.308V12.1232C207.308 10.018 205.995 8.33375 203.766 8.33375C201.487 8.33375 199.952 9.94366 199.952 12.148V19.8508H198.862ZM217.672 24.73C215.988 24.73 214.254 24.2347 212.917 23.1449L213.462 22.2533C214.7 23.2192 216.211 23.7393 217.697 23.7393C220.768 23.7393 222.453 21.4359 222.453 18.3399V16.8539C221.536 18.8105 219.629 19.8755 217.449 19.8755C213.883 19.8755 211.307 17.2006 211.307 13.6341C211.307 10.0675 213.883 7.39258 217.449 7.39258C219.703 7.39258 221.586 8.5319 222.477 10.4638V7.59072H223.542V18.3399C223.542 22.0551 221.363 24.73 217.672 24.73ZM217.474 18.8848C220.446 18.8848 222.502 16.631 222.502 13.5845C222.502 10.6124 220.446 8.38329 217.474 8.38329C214.502 8.38329 212.422 10.6124 212.422 13.6341C212.422 16.631 214.477 18.8848 217.474 18.8848Z" fill="white"/>
</svg>
