<svg width="167" height="46" viewBox="0 0 167 46" fill="none" xmlns="http://www.w3.org/2000/svg">
<g clip-path="url(#clip0_659_753)">
<path d="M39.7643 29.8817C42.0707 32.5894 41.9571 36.6783 39.4297 39.2521C36.9025 41.826 32.8694 41.9476 30.2045 39.6111C29.9476 43.1828 27.0199 46 23.447 46C19.874 46 16.9463 43.1828 16.6894 39.6111C16.6834 39.6172 16.6775 39.6232 16.6715 39.6293L16.8209 39.2582C19.3483 40.3169 22.2222 39.2034 23.441 36.7635C24.6599 39.1974 27.5339 40.3047 30.0612 39.24C32.5826 38.1752 33.8373 35.3275 33.0008 32.7293C35.5581 33.5752 38.3662 32.2913 39.4119 29.7175C40.4575 27.1498 39.37 24.223 36.9741 22.9817C39.376 21.7587 40.4694 18.8321 39.4239 16.2643C38.3901 13.6966 35.5819 12.4126 33.0307 13.2646C33.8672 10.6664 32.6065 7.80661 30.0851 6.74179C27.5577 5.67699 24.6779 6.79656 23.459 9.23651C22.24 6.80264 19.3662 5.69524 16.8388 6.76006C16.8149 6.77222 16.791 6.77831 16.7671 6.79047L16.552 6.2672C16.5998 6.3037 16.6475 6.3463 16.6954 6.38889C16.9523 2.8172 19.88 0 23.453 0C27.0259 0 29.9536 2.8172 30.2105 6.38889C32.8753 4.05847 36.9083 4.17407 39.4357 6.74788C41.9631 9.32169 42.0707 13.4106 39.7703 16.1183C43.2777 16.3799 46.044 19.3614 46.044 23C46.044 26.6386 43.2717 29.6201 39.7643 29.8817Z" fill="white"/>
<path fill-rule="evenodd" clip-rule="evenodd" d="M13.9051 13.2707C13.8991 13.2707 13.8991 13.2707 13.8932 13.2707C12.6085 12.8447 11.2582 12.9664 10.1051 13.514C10.0155 13.5567 9.93181 13.5992 9.84816 13.6479C9.81829 13.6601 9.79438 13.6783 9.76451 13.6966C9.46577 13.8669 9.17897 14.0677 8.91607 14.299C8.86828 14.3416 8.82048 14.3841 8.77866 14.4268C8.73085 14.4693 8.68904 14.5119 8.64124 14.5606C8.59344 14.6093 8.55161 14.6518 8.50979 14.7006C8.46199 14.7553 8.41419 14.8101 8.36639 14.8648C8.33055 14.9075 8.29469 14.95 8.25884 14.9987C8.07362 15.2299 7.9123 15.4794 7.7689 15.741C7.67331 15.9175 7.58368 16.1 7.50601 16.2886C6.4604 18.8563 7.54783 21.777 9.9318 23.0183C9.9318 23.0183 9.93779 23.0183 9.93779 23.0244C9.69282 23.1461 9.46577 23.2921 9.25067 23.4441C9.22678 23.4624 9.20287 23.4807 9.17897 23.499C7.32079 24.9045 6.56198 27.4601 7.48808 29.7357C8.24092 31.5976 9.92583 32.7841 11.7601 32.9728C11.778 32.9728 11.796 32.9788 11.8079 32.9788C12.495 33.0457 13.2 32.9728 13.8872 32.7415C13.8872 32.7476 13.8812 32.7537 13.8812 32.7659C13.0626 35.3458 14.3054 38.1691 16.7909 39.2461C16.8029 39.2522 16.8209 39.2583 16.8328 39.2643C16.8328 39.2643 16.8328 39.2643 16.8388 39.2643L16.6894 39.6354C16.6595 39.6598 16.6297 39.6841 16.5997 39.7085C14.0664 41.8382 10.368 41.8077 7.8645 39.6172C7.78085 39.5441 7.70318 39.4712 7.62551 39.3982C7.57771 39.3494 7.52991 39.3069 7.4821 39.2583C4.96071 36.6905 4.84719 32.6077 7.13556 29.9C7.14154 29.8939 7.14155 29.8878 7.14752 29.8878C5.66575 29.7783 4.3214 29.1821 3.25787 28.2571C3.18617 28.1963 3.11448 28.1294 3.04278 28.0624C3.00693 28.026 2.9651 27.9894 2.92926 27.9529C1.6566 26.6994 0.86792 24.941 0.86792 23C0.86792 19.3614 3.63429 16.3799 7.14155 16.1183C4.83524 13.4106 4.94876 9.32171 7.47613 6.74789C9.95571 4.22277 13.8872 4.05848 16.558 6.26722C16.6057 6.30372 16.6535 6.34631 16.7014 6.38891L16.8507 6.76007C16.8507 6.76007 16.8507 6.76007 16.8447 6.76007C16.8209 6.77224 16.7969 6.77832 16.7731 6.79049C16.7132 6.81484 16.6535 6.84525 16.5938 6.87568C16.564 6.88785 16.534 6.9061 16.5042 6.91827C16.4743 6.93043 16.4445 6.9487 16.4146 6.96695C16.3846 6.97911 16.3548 6.99738 16.3309 7.01563C16.3011 7.03388 16.2771 7.04604 16.2472 7.06431C16.2174 7.08256 16.1934 7.09472 16.1636 7.11299C14.1023 8.36642 13.1463 10.922 13.9051 13.2707Z" fill="white"/>
<path fill-rule="evenodd" clip-rule="evenodd" d="M28.9617 28.233C27.5876 29.7298 25.6277 30.673 23.4529 30.673C22.4312 30.673 21.4573 30.4661 20.567 30.0888C19.5692 29.6628 18.673 29.024 17.9501 28.233L14.628 30.1801C15.811 31.683 17.3526 32.8756 19.1211 33.624C20.4535 34.1899 21.9174 34.5002 23.4529 34.5002C27.0259 34.5002 30.2045 32.8147 32.2778 30.1801L28.9617 28.233ZM25.1439 11.6279V15.5282C28.4837 16.3131 30.9813 19.3616 30.9813 23.0002C30.9813 23.7789 30.8677 24.5335 30.6527 25.2393L33.9687 27.1864C34.4706 25.8903 34.7454 24.4726 34.7454 22.9941C34.7454 17.238 30.581 12.4616 25.1439 11.6279ZM19.0793 12.3946C15.0164 14.1348 12.1604 18.2297 12.1604 23.0002C12.1604 24.4787 12.4353 25.8964 12.9371 27.1925L16.2531 25.2393C16.0381 24.5335 15.9245 23.7789 15.9245 23.0002C15.9245 19.8179 17.8246 17.0919 20.5372 15.9298C20.9255 15.7594 21.3378 15.6256 21.762 15.5282V11.6279C20.824 11.774 19.9277 12.0356 19.0793 12.3946Z" fill="white"/>
<path d="M63.4584 34.4145C62.5912 34.4145 61.6956 34.2339 60.7719 33.8725C59.848 33.5111 59.2448 33.3304 58.962 33.3304C58.5661 33.3304 58.1136 33.454 57.6047 33.7013C57.0956 33.9675 56.7751 34.1102 56.6431 34.1292C56.4546 34.1673 56.2755 34.1102 56.1058 33.9581C55.9362 33.8059 55.8513 33.5872 55.8513 33.3019V18.8097C55.8513 17.6115 55.7665 16.7842 55.5967 16.3278C55.4271 15.8713 55.0689 15.4054 54.5221 14.93C54.2959 14.7208 54.2111 14.502 54.2677 14.2738C54.3242 14.0265 54.475 13.8744 54.7201 13.8173C56.398 13.3609 57.746 12.5812 58.7641 11.4781C58.9902 11.2308 59.2543 11.1358 59.5559 11.1928C59.8575 11.2499 60.0084 11.4496 60.0084 11.7918V20.2647C60.0084 20.4549 60.0837 20.588 60.2346 20.6641C60.3853 20.7211 60.5173 20.6926 60.6305 20.5785C61.6108 19.4564 62.7797 18.8954 64.137 18.8954C66.0223 18.8954 67.5023 19.6655 68.5769 21.2061C69.6704 22.7466 70.217 24.6485 70.217 26.9117C70.217 29.1558 69.5949 30.9721 68.3506 32.3605C67.1064 33.7298 65.4756 34.4145 63.4584 34.4145ZM62.6665 32.0752C63.7223 32.0752 64.5802 31.4951 65.24 30.335C65.8998 29.1558 66.2298 27.7675 66.2298 26.1699C66.2298 24.7815 65.9941 23.6595 65.5227 22.8037C65.0702 21.9287 64.4388 21.4914 63.6281 21.4914C62.6477 21.4914 61.8182 22.0619 61.1394 23.2031C60.4796 24.3442 60.1498 25.8752 60.1498 27.796C60.1498 28.8991 60.3571 29.8881 60.7719 30.7629C61.1866 31.6377 61.8182 32.0752 62.6665 32.0752Z" fill="white"/>
<path d="M73.0966 34.0434C72.5687 34.0434 72.2482 33.9293 72.1351 33.7011C72.0219 33.4729 72.1257 33.1495 72.4462 32.7312C72.7666 32.3127 72.9646 31.7992 73.04 31.1906C73.1155 30.5631 73.1531 29.555 73.1531 28.1667V18.9807C73.1531 17.9347 73.0871 17.1549 72.9551 16.6414C72.8232 16.1279 72.531 15.6619 72.0785 15.2436C71.645 14.8251 71.4657 14.5114 71.5412 14.3021C71.6166 14.0739 71.9559 13.8552 72.5593 13.646C73.2946 13.4177 73.8883 13.161 74.3408 12.8757C74.8122 12.5904 75.3683 12.115 76.0093 11.4493C76.179 11.2782 76.3581 11.1831 76.5466 11.164C76.754 11.126 76.9236 11.1736 77.0557 11.3067C77.2065 11.4398 77.2818 11.63 77.2818 11.8773V28.1382C77.2818 29.5075 77.3196 30.5059 77.395 31.1336C77.4893 31.7611 77.6966 32.2842 78.0171 32.7026C78.3376 33.121 78.4414 33.4443 78.3282 33.6725C78.2151 33.9198 77.8946 34.0434 77.3668 34.0434H73.0966Z" fill="white"/>
<path d="M87.8219 34.2434C85.5407 34.2434 83.6365 33.5018 82.1094 32.0183C80.5823 30.5158 79.8188 28.7186 79.8188 26.6265C79.8188 24.4393 80.5164 22.604 81.9115 21.1206C83.3255 19.6371 85.2956 18.8955 87.8219 18.8955C90.0276 18.8955 91.8752 19.6562 93.3646 21.1777C94.8728 22.6802 95.6363 24.4584 95.6551 26.5124C95.674 28.7376 94.9671 30.5824 93.5342 32.0468C92.1014 33.5112 90.1972 34.2434 87.8219 34.2434ZM88.1894 32.0753C89.0944 32.0753 89.7825 31.6474 90.2538 30.7916C90.744 29.9357 90.9891 28.7186 90.9891 27.14C90.9891 25.4093 90.6592 23.9734 89.9994 22.8323C89.3395 21.6912 88.4912 21.1206 87.4542 21.1206C86.587 21.1206 85.8706 21.5486 85.305 22.4044C84.7583 23.2412 84.4849 24.3728 84.4849 25.7992C84.4849 27.5299 84.8336 29.0133 85.5313 30.2496C86.2288 31.4667 87.1148 32.0753 88.1894 32.0753Z" fill="white"/>
<path d="M103.013 34.4998C101.166 34.4998 99.5915 34.1289 98.2906 33.3871C97.0086 32.6264 96.3677 31.7231 96.3677 30.677C96.3677 29.8593 96.707 29.2412 97.3857 28.8227C98.0832 28.4043 98.8185 28.2426 99.5915 28.3377C100.364 28.4328 100.892 28.6896 101.175 29.108C101.288 29.3552 101.326 29.5359 101.288 29.65C101.25 29.7642 101.184 29.9353 101.09 30.1636C100.996 30.3917 100.949 30.6009 100.949 30.7911C100.949 31.2286 101.137 31.628 101.514 31.9893C101.91 32.3506 102.485 32.5313 103.24 32.5313C103.975 32.5313 104.597 32.3506 105.106 31.9893C105.634 31.628 105.898 31.162 105.898 30.5915C105.898 30.173 105.587 29.7736 104.964 29.3933C104.342 28.9939 103.588 28.623 102.702 28.2807C101.816 27.9194 100.93 27.5389 100.044 27.1395C99.1767 26.7212 98.4321 26.1886 97.8098 25.542C97.1877 24.8954 96.8766 24.1727 96.8766 23.3739C96.8766 22.1377 97.4328 21.1107 98.5451 20.2929C99.6574 19.4751 101.071 19.0662 102.787 19.0662C103.353 19.0662 103.984 19.1518 104.682 19.323C105.379 19.4941 105.869 19.5797 106.152 19.5797C106.624 19.5797 106.991 19.3895 107.255 19.0092C107.331 18.876 107.415 18.8 107.51 18.7809C107.604 18.7428 107.698 18.7809 107.792 18.8951C107.887 19.0092 107.962 19.2088 108.019 19.4941L108.98 24.1156C109.074 24.5531 108.952 24.8478 108.612 25C108.292 25.1521 108.028 25.0665 107.821 24.7433C107.104 23.6592 106.369 22.8033 105.615 22.1757C104.88 21.529 104.022 21.2153 103.042 21.2343C102.4 21.2533 101.873 21.4055 101.458 21.6907C101.062 21.976 100.864 22.3374 100.864 22.7748C100.864 23.2123 101.156 23.6307 101.741 24.0301C102.325 24.4104 103.042 24.7718 103.89 25.114C104.738 25.4564 105.587 25.8273 106.435 26.2267C107.302 26.6261 108.037 27.1491 108.641 27.7957C109.263 28.4233 109.593 29.1365 109.631 29.9353C109.706 31.3616 109.103 32.4838 107.821 33.3016C106.539 34.1004 104.936 34.4998 103.013 34.4998Z" fill="white"/>
<path d="M117.29 34.4998C115.443 34.4998 113.869 34.1289 112.568 33.3871C111.286 32.6264 110.645 31.7231 110.645 30.677C110.645 29.8593 110.985 29.2412 111.663 28.8227C112.361 28.4043 113.096 28.2426 113.869 28.3377C114.642 28.4328 115.17 28.6896 115.453 29.108C115.566 29.3552 115.603 29.5359 115.566 29.65C115.528 29.7642 115.462 29.9353 115.367 30.1636C115.274 30.3917 115.226 30.6009 115.226 30.7911C115.226 31.2286 115.415 31.628 115.792 31.9893C116.188 32.3506 116.763 32.5313 117.517 32.5313C118.253 32.5313 118.875 32.3506 119.384 31.9893C119.911 31.628 120.176 31.162 120.176 30.5915C120.176 30.173 119.864 29.7736 119.242 29.3933C118.62 28.9939 117.866 28.623 116.98 28.2807C116.093 27.9194 115.208 27.5389 114.322 27.1395C113.454 26.7212 112.71 26.1886 112.088 25.542C111.465 24.8954 111.154 24.1727 111.154 23.3739C111.154 22.1377 111.71 21.1107 112.823 20.2929C113.935 19.4751 115.349 19.0662 117.065 19.0662C117.63 19.0662 118.262 19.1518 118.959 19.323C119.657 19.4941 120.147 19.5797 120.43 19.5797C120.901 19.5797 121.269 19.3895 121.533 19.0092C121.609 18.876 121.693 18.8 121.787 18.7809C121.882 18.7428 121.976 18.7809 122.071 18.8951C122.164 19.0092 122.24 19.2088 122.296 19.4941L123.257 24.1156C123.352 24.5531 123.229 24.8478 122.89 25C122.57 25.1521 122.305 25.0665 122.099 24.7433C121.382 23.6592 120.647 22.8033 119.892 22.1757C119.157 21.529 118.3 21.2153 117.319 21.2343C116.678 21.2533 116.15 21.4055 115.735 21.6907C115.339 21.976 115.141 22.3374 115.141 22.7748C115.141 23.2123 115.434 23.6307 116.018 24.0301C116.603 24.4104 117.319 24.7718 118.168 25.114C119.016 25.4564 119.864 25.8273 120.712 26.2267C121.579 26.6261 122.316 27.1491 122.919 27.7957C123.541 28.4233 123.871 29.1365 123.908 29.9353C123.984 31.3616 123.381 32.4838 122.099 33.3016C120.816 34.1004 119.214 34.4998 117.29 34.4998Z" fill="white"/>
<path d="M133.196 34.2434C130.914 34.2434 129.01 33.5018 127.483 32.0183C125.956 30.5158 125.193 28.7186 125.193 26.6265C125.193 24.4393 125.89 22.604 127.285 21.1206C128.699 19.6371 130.669 18.8955 133.196 18.8955C135.401 18.8955 137.249 19.6562 138.738 21.1777C140.246 22.6802 141.01 24.4584 141.028 26.5124C141.048 28.7376 140.341 30.5824 138.908 32.0468C137.475 33.5112 135.571 34.2434 133.196 34.2434ZM133.563 32.0753C134.467 32.0753 135.156 31.6474 135.627 30.7916C136.117 29.9357 136.362 28.7186 136.362 27.14C136.362 25.4093 136.033 23.9734 135.373 22.8323C134.712 21.6912 133.864 21.1206 132.828 21.1206C131.96 21.1206 131.245 21.5486 130.679 22.4044C130.132 23.2412 129.859 24.3728 129.859 25.7992C129.859 27.5299 130.207 29.0133 130.905 30.2496C131.603 31.4667 132.488 32.0753 133.563 32.0753Z" fill="white"/>
<path d="M142.838 34.0435C142.612 34.0435 142.469 33.9294 142.413 33.7012C142.376 33.473 142.451 33.2637 142.64 33.0736C142.979 32.7313 143.224 32.3223 143.375 31.8469C143.544 31.3524 143.639 30.953 143.657 30.6487C143.677 30.3444 143.686 29.7929 143.686 28.9941V26.7689C143.686 24.7148 143.262 23.298 142.413 22.5182C142.111 22.252 141.979 22.0333 142.018 21.8621C142.074 21.6719 142.31 21.5102 142.725 21.3771C144.459 20.7495 145.797 19.9222 146.74 18.8953C146.947 18.667 147.183 18.6099 147.447 18.724C147.711 18.8191 147.842 19.0283 147.842 19.3517V20.236C147.842 20.4452 147.918 20.5784 148.069 20.6354C148.239 20.6734 148.418 20.6354 148.607 20.5212C149.982 19.7415 151.095 19.3517 151.944 19.3517C152.603 19.3517 153.122 19.4753 153.499 19.7226C153.895 19.9697 154.329 20.3882 154.8 20.9778C154.988 21.206 155.205 21.2345 155.45 21.0634C157.053 19.9222 158.438 19.3517 159.607 19.3517C160.871 19.3517 161.841 19.8081 162.519 20.721C163.217 21.6339 163.726 23.0698 164.047 25.0287L164.754 29.2793C165.056 30.953 165.498 32.1036 166.083 32.7313C166.404 33.0355 166.535 33.3303 166.478 33.6156C166.422 33.9009 166.131 34.0435 165.602 34.0435H160.144C159.786 34.0435 159.55 33.9294 159.438 33.7012C159.325 33.473 159.409 33.1496 159.692 32.7313C160.333 31.8563 160.55 30.7343 160.342 29.365L159.776 25.5136C159.418 23.0983 158.75 21.8907 157.769 21.8907C156.524 21.8907 155.903 22.9842 155.903 25.1714V29.2793C155.903 30.3634 155.959 31.1622 156.072 31.6757C156.185 32.1702 156.439 32.6362 156.836 33.0736C157.024 33.2637 157.081 33.473 157.005 33.7012C156.929 33.9294 156.76 34.0435 156.496 34.0435H151.179C150.916 34.0435 150.747 33.9294 150.671 33.7012C150.596 33.473 150.643 33.2543 150.812 33.045C151.189 32.6076 151.435 32.1227 151.547 31.5901C151.66 31.0575 151.717 30.3159 151.717 29.365V25.0572C151.717 23.9162 151.528 23.1078 151.151 22.6323C150.775 22.1379 150.322 21.8907 149.794 21.8907C149.229 21.8907 148.757 22.1569 148.38 22.6895C148.022 23.2029 147.842 23.9447 147.842 24.9146V29.0797C147.842 29.9736 147.842 30.5726 147.842 30.8769C147.862 31.1812 147.937 31.552 148.069 31.9895C148.22 32.4079 148.447 32.7692 148.748 33.0736C148.917 33.2447 148.965 33.4444 148.889 33.6726C148.833 33.9199 148.692 34.0435 148.465 34.0435H142.838Z" fill="white"/>
</g>
<defs>
<clipPath id="clip0_659_753">
<rect width="166" height="46" fill="white" transform="translate(0.86792)"/>
</clipPath>
</defs>
</svg>
